<mxfile host="65bd71144e">
    <diagram id="Ts5-3GC7bHX-KwomtYyO" name="diagram">
        <mxGraphModel dx="4073" dy="1286" grid="1" gridSize="10" guides="1" tooltips="1" connect="1" arrows="1" fold="1" page="1" pageScale="1" pageWidth="827" pageHeight="1169" math="0" shadow="0">
            <root>
                <mxCell id="0"/>
                <mxCell id="1" parent="0"/>
                <mxCell id="guWJe3HH57Yfrju_Ihq2-1" value="" style="shape=image;verticalLabelPosition=bottom;labelBackgroundColor=default;verticalAlign=top;aspect=fixed;imageAspect=0;image=data:image/png,iVBORw0KGgoAAAANSUhEUgAAA+gAAAGaCAYAAACc1mkHAAAAGXRFWHRTb2Z0d2FyZQBBZG9iZSBJbWFnZVJlYWR5ccllPAAAA2hpVFh0WE1MOmNvbS5hZG9iZS54bXAAAAAAADw/eHBhY2tldCBiZWdpbj0i77u/IiBpZD0iVzVNME1wQ2VoaUh6cmVTek5UY3prYzlkIj8+IDx4OnhtcG1ldGEgeG1sbnM6eD0iYWRvYmU6bnM6bWV0YS8iIHg6eG1wdGs9IkFkb2JlIFhNUCBDb3JlIDUuMy1jMDExIDY2LjE0NTY2MSwgMjAxMi8wMi8wNi0xNDo1NjoyNyAgICAgICAgIj4gPHJkZjpSREYgeG1sbnM6cmRmPSJodHRwOi8vd3d3LnczLm9yZy8xOTk5LzAyLzIyLXJkZi1zeW50YXgtbnMjIj4gPHJkZjpEZXNjcmlwdGlvbiByZGY6YWJvdXQ9IiIgeG1sbnM6eG1wTU09Imh0dHA6Ly9ucy5hZG9iZS5jb20veGFwLzEuMC9tbS8iIHhtbG5zOnN0UmVmPSJodHRwOi8vbnMuYWRvYmUuY29tL3hhcC8xLjAvc1R5cGUvUmVzb3VyY2VSZWYjIiB4bWxuczp4bXA9Imh0dHA6Ly9ucy5hZG9iZS5jb20veGFwLzEuMC8iIHhtcE1NOk9yaWdpbmFsRG9jdW1lbnRJRD0ieG1wLmRpZDpGQTdGMTE3NDA3MjA2ODExQjM0QkRCMTI3QTg3OTlBMCIgeG1wTU06RG9jdW1lbnRJRD0ieG1wLmRpZDpDQjg3OEJGRTM4M0YxMUUzQTZEMUI0MDIyQjJEMDFGNSIgeG1wTU06SW5zdGFuY2VJRD0ieG1wLmlpZDpDQjg3OEJGRDM4M0YxMUUzQTZEMUI0MDIyQjJEMDFGNSIgeG1wOkNyZWF0b3JUb29sPSJBZG9iZSBQaG90b3Nob3AgQ1M2IChNYWNpbnRvc2gpIj4gPHhtcE1NOkRlcml2ZWRGcm9tIHN0UmVmOmluc3RhbmNlSUQ9InhtcC5paWQ6RDY1NjNCMTEzNDIwNjgxMTgwODNGMTQ4QTZCNTMyNkQiIHN0UmVmOmRvY3VtZW50SUQ9InhtcC5kaWQ6RkE3RjExNzQwNzIwNjgxMUIzNEJEQjEyN0E4Nzk5QTAiLz4gPC9yZGY6RGVzY3JpcHRpb24+IDwvcmRmOlJERj4gPC94OnhtcG1ldGE+IDw/eHBhY2tldCBlbmQ9InIiPz4OgPucAAAu90lEQVR42uzdCZgdVZk38IohgUCAlqZlh7DvO8qmgiCgILK4MKIo4oLjOA6ozKjo5+7ngqLgjDrgKCiyysinA4gMBMK+yg6yhR3sdGjCkkAI+d7jLZyekKW7c2931anf73nepxoe6K56z7l17//WNmbu3LkFAAAAMLrGCOgAAAAgoAMAAAACOgAAAAjoAAAAgIAOAAAAAjoAAAAgoAMAAICADgAAAAjoAAAAIKADAAAAAjoAAAAI6AAAAICADgAAAAI6AAAAIKADAACAgA4AAAAI6AAAACCgAwAAAAI6AAAACOgAAACAgA4AAAACOgAAACCgAwAAgIAOAAAACOgAAAAgoAMAAAACOgAAAAjoAAAAgIAOAAAAAjoAAAAgoAMAAICADgAAAAjoAAAAIKADAAAAAjoAAAAI6AAAAICADgAAAAI6AAAAIKADAACAgA4AAAAI6AAAACCgAwAAAAI6AAAACOgAAACAgA4AAAACOgAAACCgAwAAgIAOAAAACOgAAAAgoAMAAAACOgAAAAjoAAAAgIAOAAAAAjoAAAAgoAMAAICADgAAAAjoAAAAIKADAAAAAjoAAAAI6AAAAICADgAAAAI6AAAAIKADAACAgK4LAAAAIKADAAAAAjoAAAAI6AAAAICADgAAAAI6AAAAIKADAACAgA4AAAAI6AAAACCgAwAAAAI6AAAACOgAAACAgA4AAAACOgAAACCgAwAAgIAOAAAACOgAAAAgoAMAAAACOgAAAAjoAAAAgIAOAAAAAjoAAAAgoA+3IWPGaMJi6OnqHheLlaNWL2vV9K+juqNWGFBLRS0TtVzUklFLL+JXz456bsA/PxM1q1w+Xf78bPnzjKjpUX1R08qfX/7nh3v7+2YaKXJg/w0AIKAL6KQgvlYstojaIGr9staLWiO1seKr3x/1WNRDA5b3Rt1XLh+NEO+FgYAOAICALqBXLoyvHYsdo7aP2rKsrow3eVYZ1O+Iui3qlnJ5TwT3F80IBHQAAAR0AX2kAvlGsdgr6vVRO0etYmb8LbjfFHV91NXl8o4I7S9pDQI6AAACuoDejkA+MRZvKUN5qjXMhEF7MuqyqEujLom6IQL7HG1BQAcAQEAX0AcbypePxd5R7yyXSxn9tkg3o/tj1PlR50ZY/4uWIKADACCgC+jzhvJXxWKPqMOi9o8ab8Q7Kp36fkXUmVG/ibD+iJYgoAMAIKA3OKBHME+nrH8k6tDC6eujlqWiLoz6ZQrsEdZnaQkCOgAAAnpDAnoE8+1icWTUQVFjjW5lpNPgfx51XAT1B7UDKrG/fHMs9otatgar2xt1Wuw/rjdyfx27SUXrC+hJNVjd54vW/UpOd78SMnwtjovFe6N2KupxlubDUSfHa/HPRm90yaMCevYBPXaQ6YZvn43axYhWWvpwdkrU1+LN4R7tgFHbZ349FkfXbLXTJTSHxb7jpIaPXQoCf4iaWLNV/33Ufp4CQmbhPN1/Z7earXo6o/Ht8Vr8o1EU0AV0Ab0TO8ddU9grWo9Ho15B/fioL8UbxAztgBHdb24Si9tquvrPRK0S+41nGjx+N8di85qu/sExdqd6FZLJa/HwWPykpqt/f9S68XoUigT0SniVFmSxU9w26oL48WLhvJbS5QdHRN0a47iOdsCIqvM+Mx013rLB733L1jicJ2/w8iMjb6zxuq8dtaohRECnHR9OVohK31ZeW7Tuzk69pRv4HacNMKKWrvn6j2vw2I0196AylrEvhfZYQgtqGczTFysfjfpm1Kt1JCuvz2ieplOHt4laP2qDonXzrXTEb8mop4vW6bkPRd0VdXvU1b39fTNNAQAABHTqEnpS2El3AN9ZN7L0QI3nZvr2Od2g8O+ido9aaYi/4vn4HVfF8pyoUyOsP246AAAgoFPF8JPuXvfxqO8UTovL2ZQazs0VY/HpqA9HrbgYvyodWd+lrO/G7z0vlt+IoH6VaQEAQBO4Br0eAWiVWKTHP/xIOM/eZTWalxOj0hdGU4vWY/1WbOOvT9eWvi3qyvgbk6O2MjUAABDQGe0QlO6KeWPROmWY/F1ak3l5YCzuiDqq6PyNYdIR9evib/4wahlTBAAAAZ2RDkBjoj4VP15UDP1aXurp/t7+vkcrPi+XKp8c8Juo1UfwT6cj6p+Muib+/qamCgAAAjojFYLSaeynRX2vqP9jZBi8KRWflz2xuDzq8FFcjU3KkH6A6QIAgIBOp0NQOlp+cdS7dUNAr9C8XCcWVxatx6aNtvQF1lmxTh82ZQAAENDpVAhaLxZXRL1ONxrpsorOy9WK1pdG61Zs33VCrNuhpg0AAAI67Q5Bmxet04fX0Y1G6u3t77uzgvNy+VicH7VmRft2YqzjPqYPAAACOu0KQdsXrSOUr9GNxppSwXk5Jha/iNqswn1L92j4dazruqYQAAACOosbgraLxQVR3bohoFdMumv6/jXo3XJRZ8RraZxpBACAgM5ww3k6rf28MmDQbJdVbG5OisX/rVH/0s3rjjKNAAAQ0BlOAFo7Fn+IWlE3Gu/ZqBsrtk7HRU2oWR+/EK+rtUwnAAAEdIYSzlcsw/kqukG4vLe/b06F5ucbY7FvDfuYvlD4iukEAICAzmDDz/hY/DZqfd2gVLXrzz9f416+rzw9HwAABHQW6cSonbWBASpz/XmE2y1isVeNe5nu6n6kKQUAgIDOosLPEbE4RCcYYHbUNRVan/dn0NOD3dEdAAABnYWF83Rd73d1gnlc39vf91xF5mjaH7w3g56mezzsZWoBACCgM7/gkwLDqVFL6AbzuLRC65IeVbZyJn3d29QCAEBAZ95wPiYWJ0etqhvMR5VuELdrRn3dzdQCAEBAZ15/H/VWbWA+5kZdUaH1yenmhRv2dHWvYIoBAFAnTrnuoAgIG8biGJ1gAW7r7e+bXqH12Tiz/m5SVOgO+QP2C+l+FOkU/DpcTvBS1KNR58ZcvcJLFgBAQK9rOE9nJ/wsaoJusABTKjRf075g3cz6u0HVAnr0edtYXFzU7+ylz8W6bxUh/RYvWwCAznGKe+d8vPC8cxauSjeI6y7y+8JulQqu04413e++yv4MAEBAr6Weru50Q7hv6gSLUKWjuxMz7G8Vt6nOX4Is5SULACCg19H3o5bVBhZiam9/38MVWp8c56vLSwAAENCbrKere9dYHKQTLMKUiq3PrAx7/KJpBgCAgN7ccJ76eaxOMAhVu7v4Mxn2+BnTDAAAAb25Do3aShsYhEsrtj59Gfa41zQDAEBAb6Ceru7xsfiyTjAI06LuqlSS7e+bGYtHMuvzvaYaAAB14jno7XNY1Bra0BHpWuJny59nD/h5XhPLOZ1ueFblL58ui0A8t4Lr9eeo1TKaN3d56QAAIKA3THn0/PM6MWQvRN1dBsOpUQ9FpTubTy8rnXY9PcLsM8Mcl65YLBO1/IBaMWrlcrl61JpRa5XBdOwIbfeUio7HdVFvymRuTSvnFAAACOgN89HC0fNFmV0GwMujboi6MYXzCN9zOvUH43f3xyLVIk/djjC/RBnSU1hfN2qLqM2jNotaqSEB/aKoozKZb5dU9CwFAAAQ0Dslgt2SsThaJ+brzqjzos5Nwby8zrmSYt3SafQPlHXpPGPcE4sto3aI2jlqx6J1NH440un5N1a0DenO8umshvEZzL0LvfwAABDQm+fgonXKNC33R50SdXqE3ltz2KDYjt4y8F1YBvZ0ffvGUbtF7Vkulx7kr7u1/DKgitv5TGzbOfHju2o+ZKm/Z3kpAgAgoDfPEVpQpFOJfxv1kxRiI+i9lPPGltt3W1nHl/cgeH3UvlEHFK3T5BfkPyq+eb/MIKCfG2M0zcsSAAABvUEimKUbam3R4BakI5UnR30nAlFj75gd255OC7+orCNjXmwdy/3LsL75gP/0h1EnVHxz0iUJ6fFk69Z4SH5k7wQAgIDePE0+en521GcjnN5tGrwisKdrzFN9KcL62rHcNOquOvQqnX4f6/zdonU2RB1dHdvwR7MQAAABvUEixKQjjPs2cNPTkfKPRQiabBYMKvCma/Lvr9lq/zzqn6PWqWHLv2zWAQBQV6/SgmE7PGpMg7Y3XXf9jagthfO8lafs/2MNV/3sWPfzjSAAAAJ6g/R0dY+NxSEN2uT0HPE3Rfj5QtTzZkAjQnp6NN4ZNVrl9Lx7N2wEAEBAb6A9iuY8Wi09E3yrCGyXGvbG+VjU1Jqs60dijj5kyAAAENCb59CGbGd6JNgeHlnVTDHuT8bioKiZFV/VY2NdPfccAAABvWl6urq7itYjtHL37Qg9HyqvR6a5If2aWLy7aN2DoIpSMD/KSAEAIKA3UzqiuGTm2/jVCGafNdSUIf33sXh/BUN6uk7+vbF+c4wSAAACejO9K/PtS6cLf8kwM09IPyUW+xXVOd395Kj9neEBAICA3lA9Xd0rxGKXjDfx11GfNtIsIKSnI+lviLpvFFcjHS3/XNShsT6zjQoAAAJ6c+0TtUSm23ZV1Acj9Mw1zCwkpF8fi22iThuFPz81atdYh2+Zp6NiOS0AABDQq+SATLfriah3Ol2YQYb0p6LeEz++JereEfiTaV5+M2qT+LuXGQHvFwAAPnA1XE9X94QykOQmHYl8TwSfR4wyQwzqf0ihOeqwDgX1WVHHRa0ff+voqJm6DgCAgE6yV9SEDLfruAg+FxtehhnSX4j6efy4YdRbo04tg/XiuDbqk1FrxO/+p6gHdRoAgCZYQgsGLcej53dFeZwa7Qjq6eZt56fq6epeKpY7Ru0etWXUxlGTosbO53/ti7oj6vaoKVEXxu96XEcBABDQWZjdM9ymwyMMzTK0tDmspzl1cVl/E8G9KxbLlkH96VTuewAAAAL6kESwWDMW62W2WadHOLrE6DKCwb0/Fv06AQAA8+ca9MHZLbPteS7qM4YVAABAQK+bN2e2Pcf39vc9bFgBAAAE9LrJ6Qj6s1HHGFIAAAABvVZ6urrT46NWyWiTftTb3zfNyAIAAAjodbN9RtuS7ph9rCEFAACoHndxb1ZAP623v+8JQwoAAKOrp6t7xbSISsuVorqjJhStg6jLDfhP50Y9Vf6cLldNn+d7o/qi/lI+KQcBvTFel9G2/NBwAgDAiIXwJWOxSdQWZa0btU7U2lET2/Q3nonFfVH3Rt0cdWvU9RHc7zcCAnqOL6gtM9mca+NFeoNRBQCAjuWHSbHYKer1UTtGbR41tsN/duKALwAOGLAu6Sj75VH/nSqywB1GSECvu62jxmWyLScZTgAAaGsgXzoWe0btUS7Xq9LqRe1fVlrXe2JxTtTpEdavNXoCeh29NpPtmB11muFkGG86yxad/9Z3cb0QbzLPGa2OWyrmQ9co/e0XY4yfMQQAVOTz0fJl6D2wDOVL1WTV05cHn04V23BnLH8RdWK8x/YZVQG9LrbNZDvO9cJjiG886U3nB1Fr1WR9b4rFP8Q8v9zodcy/lDVaY3xVLD4WY3yToYAFvk7GxOLQMjgsX4NVnhU1OeqH8dqeWcN+bxWLTxata4nHVHx1003Ezoz6dfR6rlfLsMY7HbDYO+r9UW+rUShfkI2ivhX15di2U9LPMTfuMdICetVtkcl2/KehZAhvQPvUcM6ke0VcEOu+ZdXeXGKd0nVhry/rQDNs2HaI+mP0c2NfOMIC/Tjq8Jqt815R+8Zre9d4bc+u0XvlbrE4v6jXpZD7RW1TtI6gMvixXq18XX04apUMNzF90fChqMNiW8+I5RfjtXi3kR89noO+4Bdj6s1GGWzKS1G/N6IMwXdrut7pGrCPVmDfsULUflHHRKXru9JRi/Oijo7a2PRavPZGvUcbYL77ns1rGM5ftlMNX9vHFPW8T9GnYq6s7xUzqNfU1lG/jh+nptCaaTgfKJ0FclDUbbHd3x/Fy9oazxH0BZtUtJ5DWHeXOdrEEN6MJtY8RK4zCj1bORZvLGuXqE2L6p/qWPd9M/BKW2ew/ifr94hIl3A6Qrrg9/XtY/G5onXGQROlL56OjDo4evGJyBFnmRUCelVslsl2/M5Q0qB9QsfXv3x8yhvKMJ6WG5g25ihUQN3PivTF5shZSgvm+/6ezpxNZxG+TTf+aqWoM6MvZ8fyIxHUp2uJDzqjbZNMtmOyoYTFfsMeGMjX1BUAyEq6Wdo7i+o/uWY0pPvnvDY+Dx0UIf1K7RDQBfTF82TUDYYShhTIVy7fpF8O5CvpCgBk7SAtWKg1oqaUp7z/RDsEdAF9+C6NF9FLhhIGHc7Ts0x/EzVRNwAA/iadXfDj+Ky0YSw/ExljjpZ0hru4L9ikHAK6YYRBh/N0Td6vhHMAgAU6Iurk8rnwCOgj9kE9fUDvzmBTrjaaMGjp2bA92gAAsFAHR50dmWm8VgjoI2VSBtuQTm3/k6GEQfMmAwAwOG+P+pUj6QK6gD54t/X29z1rKAEAgA54V9QPtKG93CQu34B+vWEEyN6JPV3dzzR02x21ARh9n4j3oQd6+/uO0QoBXUBfuFsMI0D21tUCAEbZtyOk3xgh/b+1YvE5xT3fgH6nYQQAAEYgU54RIX1NrRDQO2WNDLbhdsMIAACMgBWK1uPX5EsBvSNWqvn6z4x6wDACAAAjZJeoT2mDgN4Jr6n5+t/d29831zACAAAj6Bs9Xd0baYOA3jYxoZaJxYSab4aj5wAAwEgbH/Vv2iCgt9PKGWzDg4YRAAAYBW/q6er+O20Q0NulJ4NtcAQdAAAYLd+LkD5BG4bOc9AF9NFrdOtF+4moXaOWMfUW6vmom6OO7e3ve1Q7AACosFWj/iHqGK0Q0BdXDqe4P1KDcJ6uT7koagdTbtD2jDokeve6COkuYwAAoMo+G59bT4jPrU9pxeA5xf2VujPYhmk1WMdDhfNhSY8A/KI2AABQg1z1SW0Q0BfXxAy2obcG67idqTZs22oBAAA18I+uRRfQmx7QX+zt75teg/Ucb6p53QIAkLV0f69DtMEH/cXRVfP1n2YIAQCAivhUT1f3GG0Q0Ier7kfQ+wwhAABQERsWrac2IaA3MqA/awgBAIAKOUwLBHQBHQAAYPS9o6eru0sbBPQmBvQZhhAAAKiQdCf3g7RBQB+Oun+z87QhBAAAKuYALRDQm8gp7gAAQNXs3tPVvYI2COhDtXzN13+WIQQAACpmiaj9tGHRTeJ/84w+AABgsJ6Muj3qnqiHoh6N6i9rZvnfpAOj3WWtGrV51GZR6zWsV2+P+rkpI6ADAAAsrrlRt0RdHnVZ1JW9/X33D/eX9XR1rxGLvaP2j9qryP9g4W6xzUtEz140lQT0pnCTOBie57WgFvq0AIBR+Izw31HnRP0uwuVj7frF8bvSEfefporgum4s/znqQ1FjM+3lclHbF60vOJgP16C/Ut2vQZ9jCGFYboh6Qhsq7zwtAGCEXBn1kajXRJDeJ+rf2xnO5xPW7406PH7cMurqjPv6ZlNLQAdY1Jti+nb8fYWzUKoqnVJ4dIzTdVoBQAelJyL9W9TG8Z6zU9SJUTNG+DPJbbHYOerbAnrzOMUd4H/eEC/s6epeP358W9RqRfu/xNyhaF1fVkeXRE0epb+dbrJzYYzPrWYpAB2SLqH6XtRP4v3myQp8JklnxX42PpekG8/9tMjrwOq2rkMX0I0pMNg3xHSa+8868bvjzeiIGgf0ydGbL5shAGQmHTFPR6qPjfe5Zyr4ueTE+PyQbhz37xn1fELUVlHOipsPp7jnZ6IWAADAoLwjQvDXqhjOB4T0E2Lxrcz6vr2pJ6ADAAAMVJenuHwhakpGfd/R1BPQAQAAaqe8Jv3QqFmZbNKWRlVAH6znar7+EwwhAABkF9Lvi8U3M9mcjXq6uscZVQF9MGbXfP2XNoQAAJClY6Mez2A70o2tNzScAnoTLKsFAACQn/Jmdt/PZHM2M6IC+mDU/Xl87uIOAAD5Snd1fyaD7djEUArog1H3ye4UdwAAyFRvf19/LE7PYFPWM5oCehM4xR0AAPJ2UgbbMMkwCuiD8WzN17/bEAIAQNYuj3qs5tuwjmEU0AdjhoAOAABUVW9/30uxOKfmm7FST1e3R0QL6Iv0VM3Xf3xMdDeKAwCAvF2QwTZMMowCeu4BPVnJMAIAQNYujppb821Y2TAK6IsyI4NtcJo7AABkrLyb++013wwHFuexhBa8Qg5H0FczjACN8O2oOxu67emxov9qCgANd1XUpjVe/9cYQgF9UXI4gr66YQRohPN7+/smN3HDe7q6uwR0gOJPNV9/p7jPwynur5TDEfQ1DSMAAGTvlpqvf48hFNAXZXoG27CGYQQAgOzV/Rp0984S0BfpLwI6AABQdb39fb2xeLrGm+Dx0AL6Ij2SwTZsWIN1nGaqAQDAYru/xuu+rOET0Bfl8Qy2obunq3uFiq/jGaYaAAA0Or84gi6gL1xvf186svtCBpuyUcX7fE0s/j5qllkHAADD/2hd43V3BH0eHrM2f+lbqLrfCX2DqCsqHtJ/0tPVfWb8uH3U+BH+8/9euGskAAD191iN173L8Anog53kdQ/om9ZhJSOk98Xi3JH+uz1d3T8wzQEAyIB7O2XEKe7z92gG27CNYQQAgOw9UeN1H2f4BPTByOFO7lsbRgAAyF5/jdd9acMnoA/GPRlsw6t7urrXNpQAAAACuoA++rYzlAAAkLV+LRDQc/fnTLZjZ0MJQKaW1wIABPRmmBo1J4PteKOhBCBTY7QA4K+e0wIBPWu9/X2zY/FABpuyZU9XtyMMAACQrxe0QEBvgrszGd/XG0oAAAABvc5yuQ79rYYSAABAQK+z2zPZjr0NJQAAgIBeZzdksh1r93R1b2w4AQBApquY2YZPQB+sW4o87uSe7Gc4AQAgS8vVeN3dgV5AH5ze/r6Zsbgzk805yIgCAAAVM0sLBPShyOU09616uro3MpwAAICALqDX1Z8y2pb3GE4AAMjOMjVe95mGT0Afiusz2pbDerq6xxpSAADIypI1XvfnDZ+APhTpFPeXMtmW1QuPXAMAgNzU+SZxzxo+AX3Qevv7no7FjRlt0uFGFQAAsjKhxus+w/AJ6EM1OaNt2dsz0QEAICt1PsVdQBfQGx3Qx0T9iyEFAIBsdNV43Z8yfAL6UF0RNTej7Tm4p6t7TcMKAABZ6K7xujuCLqAPTW9/3/RY3JzRJo2L+pKRBQAAAX2UOYIuoA/L5My259Ceru5NDSsAAAjoo2ia4RPQh+PCDMf9O4YVAAAEdAFdQK+bi6Kez2yb0h3dDzS0AABQayvVeN2fMHwC+pD19vc9F4uLM9y04yKkL2eEAQCgfuKz/BKxWKXGm+AIuoA+bL/PcJtWizrG0AIAQC2tHjVWQBfQm+g/M92ujzjVHQAAamlSjdd9dlSvIRTQh6W3v+/RWFyd6eadGCF9klEGAAABfYQ8EhlrriEU0BfHmZlu16ujzomQPtEQAwCjYJwWwLCsX+N1f9jwCeiL6/SoXL/l2SLqlxHSxxpmAGCELaMFMCxbCegCemP19velSTQl403cP+qnEdLHGG0AAKi8rWu87g8aPgG9HX6V+fZ9KOoHQjoAMIKW1gIYmvi8np5/XudHrN1vFAX0dkinuT+X+TZ+smjdOM7p7gDASOjSAhiy19Z8/e82hAL6Yuvt75sRi7MasKmHRf3GjeMAgBHwai2AIduz5ut/jyEU0NvlhIZs535RV0VIX9eQQ+O5gRPQSWtoATQqoL8Q9ZAhFNDbore/77JY3NyQzd006sYI6e838tBoK2kB0Ml9THzWWEobYHDi9bJmLDas8SbcHZnqJSMpoLfTvzZoW5eNOil2BOmU99UMPTTS2loAdNimWgCD9o6ar//thlBAb7d0N/e+hm3zgVF3REj/TNQEUwAaZRs3jgQ6bCstgEGr+9mttxhCAb2tevv70p3cf9zATU9H078bdVd8WP9o1JJmAzRCegTSjtoAlTUzg23Y1TDCosXn752K+n+hJaAL6B1xfNSshm57upnLT6Omxk7iC1GrmA6wSE/VfP3fZQihsp7PYBv2jM8TPpvCov1zBttwk2EU0Nuut7/vL2VIbbKVo74W9VC8qf4+6pCo5c0OmK+5NV//Q+P1vZxhhEqakcE2vKao/2OjoKPifTidzbZfzTcjHbCYajTnbwktWGzfjvp41LiG9yFdm7pPWbNj53F5LP8YNTnqht7+vlE70yDWJY3NBlGbR21XtE6hW9PUZRRMr/n6p3D++ajPGkoQ0DskfaY6v+IBaWnTjVGaeym7/SiDTbk6ssFcIyqgd0RMrsfixZKOon9CN/5mXBmCdy3/OQX2O2OZ6o5yeV9qX9QT0cNnh7mTSmFhmTI0rFi0HgPVU7S+gV+rDOHpztOTzHUE9LY5Ml57Z8Xr9jrDCQJ6B+ybjhDGPubKigakPQpnT+Zm7xjXK2LOvVCDdf1y1DYZ9Pwa005A77RvRH2wDIvMP7BvXtb83uzS0fVpUXOK1jX98x5t7xrw81JlnydqKzX0ZAbbMD7qrHjdvj4+zDxsSKEycnqyzAmxj9luNM++m89nlY2L1lmT+5pq2Tkqav8Y4/8TyzOq+mzuWL90H5ijM+n5VabdgrkGvQ3ihfx4LI7ViWFLoXv1onXUe8OoLeeptQbUSsI5NTY9k+1Ir8XJ8WFhHUMKlfkskgL6C5lszqZlSB9TgVC0WdQvi9Ydp4XzfK0fdWrUrTHeH6jaU4pifdKjjk/JpNfp1ParTTkBfSR8J+oJbQAWIn2ZNzuTbVk36rr40HCAYYVK7WNy8b6oE2MfM34UwtCrot6Sbn5bBvO0LmNNr0ZIZ0r8IurBGP+vRK07ysF8bNQX48ezinzud3Vzb3/fNFNNQO+4mGhPF62bJwEsaD+RvjV+MKNNenXU2fHh4XdRWxthGHWPZrY9h0VdGvuXzUcoDK0f9c1yP31e0brxLc2U7meUTnm/J+bElVGfGOlHCpfPOk/3Yvhq1JiMejvZ9Fo416C31y+iDo96nVYAC/BA0Tr6nJO3pYoPExfHMp0Kek5vf990Qw0j7p6oHTLbpu2jboz9y8mxPD72LTe2MQAtVfYr3fgtPbZqU1OI+dihrONjzqQzKi6MuiBqynBvdLyQOZku49w76qNRu2fazwtNKQF9xKSbSsQL62Px47WFU6GA+UtPMNgt0217U1lpX5g+RF9RtE4PTU9ueCzq0dhPPreADyXpaHx6CkN3uUxHKlYu/zk9qeGRqJ/F/3+fKQQLDeg5Sp+p0s14P1g+FSYd3U6Pc70p7VMHc1Ov+P9WKFqPXE33utmqaB1MSWf+TDBtGIKXb3p8ZPlel55OlJ5q8vJTiqaW73W9g5iTae6tX9Zm5WeD9IzznB/d/GLUpaaRgD7SIT19y3t8/HiEbgDzcWsDtjFdPrVtWfN+IEmLpwb8qxS+B3vq3j/F/79X7GcvN41gvu5twDZuVNaR5T/Pif3CX2KZqn+e/zY9BWb5ovWF35KmBx14r9u0mM+ZFzEn55TvdU+X/yot07+bUM7JrobOycnxHj7D1BHQR0N6BEI65XM9rQDmcbMW/PXDyXCkRyym5w9vpoVg/1IaWwbwVQw/FZuXK5TF//i9Fiyam8R1QHkKZ7qxyVzdAOZxqxYslk17urp7tAHmK51m+4I2ABV1jhYI6KMZ0qfE4hidAObZN6Tr0qbqxGJZRgtgvvuX9BjH23QCqKAbYh/l84+APuq+EHWjNgDzmKIFQIdcpQVABf1aCwT0Udfb35dOMzuo+J8bRAAkl2kBLDZPS5k/d0gGqiZd9nuqNgjoVQnpdxet69EBXnaRFsBiW1YLBHSgHp97IhM9qg0CepVC+lmx+I5OAOU+IT2r+C6dADqwf0kfgm/XCaBCfqoFAnoVfT7qXG0ASr/TAsD+Bcjc41G/1QYBvXJ6+/vmxOLgwjOQgRZvVoCADuTuhPIJEwjolQzpT8Vin6hHdAMa74qoe7QB6IArox7UBmCUzYr6sTYI6FUP6Q/H4i1R03QDGr0vSHc0PUkngA7sX16KxSk6AYyyX8T+6DFtENDr8MZ5a9E6kj5DN6DRUkCfow1AB5ysBcAoSp9vvq0NAnqdQvo1sdhTSIdG7wceisUZOgF0YP9yZyz+qBPAKElHz6dqg4BetzfPq4V0aLzva8GQvaQFMCjHawEwCp6L+qI2COh1Dum7FK5Jh6buA64rPIJxqHypCYPzX1F/0gZghH3PtecCet0/oKc3z52i7tMNaKTPRc3VBqDNny/S2SZf0QlgBD1QuPZcQM/kTfTuWOwQdbVuQONe/zfH4pc6AXTAOVHXaAMwQv4+Ptc8qw0Cei4f0ntjsWvh0SjQRJ+Jmq4NQJs/W6Szcz5ZOEsH6LzTYp9znjYI6Lm9kc6Kel/8+OmoF3UEGvPaT1/QHaUTQAf2L+nsvBN1Auig9GSaj2uDgJ7zm2m6s/Oboh7RDebhKGu+fl60TkcFaLd0ls6D2gB0QLrfxXsjvzypFQJ67iH9slhsGfVb3WCAn2lBtq/5dArqYVEP6wbQ5v1LevrBBwqPKQTa7/Oxj5miDQJ6U95Q+6IOKD+0P6UjjfZE1LtjPrhHQd6v+XSGxIFRM3UDaPP+ZXIsjtYJoI1OiX2Lu7YL6I18U02nvm4UdbZuNE66F8EPojaMeXCmdjTi9X5tLN6vE0AHpA/S3kvI3b1RP9aGjrsy6sPaIKA3+UP741HviB9TPaYjjXBB1BYx7kdGOYOiWa/3swo3WwHav29Jl9IcEnWJboyom8tiZNwdcz29hx4a9Zx2dMT1UW9NN7jWCgHdm2t/XzqKvkHU16O8KPKUnlm7e4z1XlF3aEdjX+vp2/9/0gmgzfuW52OxX+H56CMhXft/RNS2UZO1Y8TcW871k2KxQ9RtWtJWt5bh3MEjAZ0Bb67PRH0xfly/8Nz0nKRH4bw9vZnE+F6kHcQ8OC4WH4qaoxtAG/ct6YP1noUj6Z2S9tnppq4bRK9/GJUuV7tHW0bMfQPm+i2x2C7qGO+lbXF51BvKx8MioDOfN9iHy+emb1N4PFOdXVy0volMwfx35SmI8PLr/D9isW/hRpFA+0P6W6PO0I22Smc6bh79/XDUEwP+/d1aM2LunWeuz4o6Kn7cPuoG7Rm29GSpPaOX/VohoLPoN9kbo/aPH7eKOj1KwKu+2VG/ito6xm63qPO1hIW8xs8rWkcAbtENoI37lvTEiL+L+nLhEWyL68Ko16b7BS3g8rQ/a9GIuX0B8z1dN/26qI+lf9SmQUu54ktRB0YPXdMvoDPEN9qbotIb7SZF6+6Vz+pK5TwYlS5PWDPG6pCoP1Vo3ep+6tezmb++0+mR6dv/Hxa+hAPat2+ZG/WV+PHNhZvQDse5UTtHD/eIum4h/93Uwg3LRkK6P9N9C5nvc6J+WrQuE/2Wz8qLlM4CSWd5ftUZngI6i/dme2d598pVi9bNSVz3NLpeKFqnBe0TtXaMzdfTXfkrOG+eLur9/O0ZDXhtz4xKr+ndotxAEGjn/iVdbrVp1M91Y5HSWXAnR20Vfdsn6opB9DedoXC71nXc7SmED2I8nor6XPy4btH64tuNl18pXf6yafTpD1ohoNO+N9sZ6eYkReuu77tG/UcTQkyFpDfs9EXJKjEOB0SdW75BV9nkGvf75ga9ttM4bRn1maJ516a38zVU96NZsxu8f637h+lKHrWLfcuTUYcVrS8B/1Qwr3Q08WtF6yy4D6QzF4f4/1ehp89nPp+vHeKcf6L84nvNqK9G9Znmf71fQvri6aAo/RDQ6dAbbjp97ZKodDfolYvW9Wa/K3xb2G5zy1CebkSybvQ7nfL246jpNdqGrxf1vA4xHfn/bcNe17Ojvhc/Tio/MDbhy7dp6YvHNv6+KUV9LxdIZ7zcVDRX+gBZ59OxL634/iUdTU+PBvtAMc8Ntxr63p7uA/KOqDWiN/9nMc6Cu6QC23J1B37v5AqN138Nc873RqXrrNcoWteoN/Fmcn3lZ9jN0kElH+tHx5i5c11K8L8aMmZMo7a3p6t7mVjsVbSeh5ruEv1qs2BYwTC9Mf2/FBCreOr6MOZF+hCS7mHQU5NVTt/cfzB6f2aTJ2KM23Kx+HDUJ6LWznQzj45x/mab+5aOmHyxZn1IX6IdVj7jt8lzPr1v/SZqXM1WPT115cAanFH1cp+XiMU7oz4V9doGTbF0VtavU8VYPdSmXi4Vi8uK1pcfo+GrZQht9xwZV36Jsfsoj9lJsX2HtnG70jilg1sHRy2f8VxPX3amx7r+KD3KeaT/uDwqoAvoC94JjS1ad4neo9zB7hi1pFnxyv1I0TpF7YKyLo+d2fMZzocJResZuenNabmKrmbqe7or7jkxBtNMzb+NXTo7arfyQ0UKMMtk8JpLpyz+IuonnbhJTfQs3RwrfVG5bA36ke48fFp5N2Lzvat741gcUrTuuVJ1aZ81OeqMwVwjW9F+pztgpy8C351pYEmh/JxyjG7tUA8nll92vHme99cUjF4cxq9MX1Iv6nKXJ6POim36rw7OjfRFTnr0705R40d43NLlShdF/aZD7xFLlp+J0rx/e4U/Fw1VOpPn36LOTmfljdqbvDwqoAvog94ZLR2LHcpKO9t09+gVG9iKdIQ83ZX1yhTG0zKdBmWGUJPXcfqiZe8yqL8laqWarPoDRetU0PTYovN8AQOV27ekwJJufJoe8fq2or5n4KX3+HREOx39TWfB3W90GcTcf2PROgM1hfbNa7YJ6UuoU4vWF71Tq7BC8qiALqAv3k5pvaL1rPV0c6otyuVaGW1i+vY6fWN+S7kDuybqhtiBvWj0yeD1m3Zw6Q7NO5WVzpLZoCKvu3RWytXla+7Kdp1OCozIviWdgZdOfU9HhHcpWl/sT6zo6qYjrensk3Tk8MJyf/O8UWQx5v8qReustfSe+rryc3KVLrtJNzZMX0Kdnyrm+8NV66E8KqAL6O3fMaVTQtcra4OyJkWtXtb4iq1yCtvpw//UovWczPRt+W1F62ZLUz3jkYa9fleIxWbl63bjAa/hVTvwATvdLPHustKjH28u6z6vO8hqv5Ius9mkaF0itUW5j0mPskpf6C8xgquS9jm3l5XOhEtfAt5W18sLqM38T0fYty5rw7I2Kud/J4PG3PLzbfpMe0v5ufaqmO/3Vb1n8qiALqCP/I5qpTKovyaqu2jdRX7F8ufl5qkU9scOWA4mIKRHTKVvv2eWP6fTz/sG1F/K5aNlKH/YEXEY1Gt36TKop9dwT/l6XLZcvnxde3rdvvxEkHTDq3SH9ReK1jWR6bWXvrlPN595ND1zVleh0fuU9L6+WtH6En+d8ud0avwK89TL7/1pPzNuwM+zy/3Ly9dqzygrvb8/Xu5rUqW7zt/u8VBUbP4vVc79lcrPwi9Xen9duqzx5XLcgDn/8iPsnivnfnqCx/Ty8+4T5dxPB5vSQaYX6tgbeVRABwAAAAEdAAAAENABAABAQAcAAAAEdAAAABDQAQAAAAEdAAAABHQAAABAQAcAAAABHQAAABDQAQAAQEAHAAAABHQAAAAQ0AEAAAABHQAAAAR0AAAAQEAHAAAAAR0AAAAQ0AEAAEBABwAAAAR0AAAAENABAAAAAR0AAAAEdAAAAEBABwAAAAEdAAAAENABAABAQAcAAAAEdAAAABDQAQAAAAEdAAAABHQAAABAQAcAAAABHQAAABDQAQAAQEAHAAAABHQAAAAQ0AEAAAABHQAAAAR0AAAAQEAHAAAAAR0AAAAQ0AEAAEBABwAAAAR0AAAAENABAAAAAR0AAAAEdAAAAEBABwAAAAEdAAAAENABAABAQAcAAAAEdAAAABDQAQAAAAEdAAAABHQAAABAQAcAAAABXUAHAAAAAR0AAAAQ0AEAAEBABwAAAAR0AAAAENABAAAAAR0AAAAEdAAAAEBABwAAAAEdAAAAENABAABAQAcAAAAEdAAAABDQAQAAAAEdAAAABHQAAABAQAcAAAABHQAAABDQAQAAQEAHAAAABHQAAAAQ0AEAAAABHQAAAAR0AAAAQEAHAAAAAR0AAAAQ0AEAAEBABwAAAAR0AAAAENABAAAAAR0AAAAEdAAAAEBABwAAAAEdAAAAENABAAAgD/9fgAEAKcxisFjVfn0AAAAASUVORK5CYII=;" parent="1" vertex="1">
                    <mxGeometry x="-52.63" y="219.64" width="171.6" height="70.36" as="geometry"/>
                </mxCell>
                <mxCell id="guWJe3HH57Yfrju_Ihq2-3" value="" style="shape=image;verticalLabelPosition=bottom;labelBackgroundColor=default;verticalAlign=top;aspect=fixed;imageAspect=0;image=data:image/jpeg,/9j/4QAYRXhpZgAASUkqAAgAAAAAAAAAAAAAAP/sABFEdWNreQABAAQAAABQAAD/4QMtaHR0cDovL25zLmFkb2JlLmNvbS94YXAvMS4wLwA8P3hwYWNrZXQgYmVnaW49Iu+7vyIgaWQ9Ilc1TTBNcENlaGlIenJlU3pOVGN6a2M5ZCI/PiA8eDp4bXBtZXRhIHhtbG5zOng9ImFkb2JlOm5zOm1ldGEvIiB4OnhtcHRrPSJBZG9iZSBYTVAgQ29yZSA1LjMtYzAxMSA2Ni4xNDU2NjEsIDIwMTIvMDIvMDYtMTQ6NTY6MjcgICAgICAgICI+IDxyZGY6UkRGIHhtbG5zOnJkZj0iaHR0cDovL3d3dy53My5vcmcvMTk5OS8wMi8yMi1yZGYtc3ludGF4LW5zIyI+IDxyZGY6RGVzY3JpcHRpb24gcmRmOmFib3V0PSIiIHhtbG5zOnhtcE1NPSJodHRwOi8vbnMuYWRvYmUuY29tL3hhcC8xLjAvbW0vIiB4bWxuczpzdFJlZj0iaHR0cDovL25zLmFkb2JlLmNvbS94YXAvMS4wL3NUeXBlL1Jlc291cmNlUmVmIyIgeG1sbnM6eG1wPSJodHRwOi8vbnMuYWRvYmUuY29tL3hhcC8xLjAvIiB4bXBNTTpEb2N1bWVudElEPSJ4bXAuZGlkOjg2RjFGMkRGOTk1RjExRTI5QTE1QkMxMDQ2QTg5MDREIiB4bXBNTTpJbnN0YW5jZUlEPSJ4bXAuaWlkOjg2RjFGMkRFOTk1RjExRTI5QTE1QkMxMDQ2QTg5MDREIiB4bXA6Q3JlYXRvclRvb2w9IkFkb2JlIFBob3Rvc2hvcCBDUzYgKE1hY2ludG9zaCkiPiA8eG1wTU06RGVyaXZlZEZyb20gc3RSZWY6aW5zdGFuY2VJRD0ieG1wLmRpZDo2Qzc1NDc1ODBEMjE2ODExODA4M0YxNDhBNkI1MzI2RCIgc3RSZWY6ZG9jdW1lbnRJRD0ieG1wLmRpZDo2Qzc1NDc1ODBEMjE2ODExODA4M0YxNDhBNkI1MzI2RCIvPiA8L3JkZjpEZXNjcmlwdGlvbj4gPC9yZGY6UkRGPiA8L3g6eG1wbWV0YT4gPD94cGFja2V0IGVuZD0iciI/Pv/uAA5BZG9iZQBkwAAAAAH/2wCEAAICAgICAgICAgIDAgICAwQDAgIDBAUEBAQEBAUGBQUFBQUFBgYHBwgHBwYJCQoKCQkMDAwMDAwMDAwMDAwMDAwBAwMDBQQFCQYGCQ0LCQsNDw4ODg4PDwwMDAwMDw8MDAwMDAwPDAwMDAwMDAwMDAwMDAwMDAwMDAwMDAwMDAwMDP/AABEIApkDIAMBEQACEQEDEQH/xADXAAEAAQQDAQEAAAAAAAAAAAAACQYHCAoDBAUCAQEBAAIDAQEAAAAAAAAAAAAAAAEFAwQGAgcQAAEDAwIDAwYFChALBgUDBQABAgMEBQYRByESCDETCUFRYXEiFIGRoTIVsUJScrIjM3O1OMFigpKiUzR0tDV1FjZ2FxjRwkNjg5OzJDd3GaPTRCWVV9LDVGSk8OGExEVVZScRAQABAgMDCQYFAwIHAQEAAAABAgMRBAUhMRJBUXGBkbHRMgZhocEiQhPw4VIzFHIjNIIV8WKiskNTFiSS/9oADAMBAAIRAxEAPwCfwAAAAAAAAAAAAAAAAAAAAAAAAAAAAAAAAAAAAAAAAAAAAAAAAAAAAAAAAAAAAAAAAAAAAAAAAAAAAAAAAAAAAAAAAAAAAAAAAAAAAAAAAAAAAAAAAAAAAAAAAAAAAAAAAAAAAAAAAAAAAAAAAAAFgN/+pjavpqstkvO5lwrYUyOomprFbLbTLVVVS+nY18ytZzMajWI9urnORNXInlAw0f4ufTU2VY0xDceRiLp37bZaeRfTot3R3yAwVlYfFL6T7w9jbhd8lxVHLosl0sssiN9K/R76xfiQGDJbCuq3pv3CfDDim9GK1tZUae722qr2W+rkVfIymre4mVfQjQMgGPbI1r2OR7HojmPauqKi8UVFQD6AAAAAAAAAAAAAAAAAAAAAAAAAAAAAAAAAAAAAAAAAB8veyNjpJHIxjEVz3uXREROKqqr2aAY+5r1YdNu3r5oMr3pxWjq6fVKi3Ulcy41cap2o+moe/lavoVoGNd+8UvpPs73tt92ybKmsVUbJa7LLGjvSn0g+jX40QCjGeLn01OlSNcP3HjYq6LO62WnlT06Jd1d8gTgzL2A6mNq+pWy3u87Z3CtmTG6iGmvtsuVMtLVUzqhjnwq5nM9qtejHaOa5U1aqeQIZAAAAAAAAAAAAAAAAAAAAAAAAAAAAAAAAAAAAAAAAAAAAAAAAAAAAAAAAAAAAAAAA1lvE73aduJ1J3DFaKqWaw7T0MWP0rGrrGtfJpU3GRE8jkke2B34pAlHSAAAXh246gd69opYX7c7nZBi1PC7mbaqerfJb3L26yUM/eUz/ANVGoEkG0ni5biWV1Lbt5cFt2b0DdGTZDYl+i7kjfLI+ndz00zv0rEhT0gwSs7LdZvTzvutLRYbndPb8lqtGtwy/IltunOv+TiilcsdQ797ySBDKUAAAAAAAAAAAAAAAAAAAAAAAAAAAAAAAAAAAABixvT1ndPGxC1VDmOd09xyal1R2GWBEuV050/ycscTkjp3fviSMCKbdvxctxb26qt2zeDW7B7e7VkOQ3xfpS5KnkkZA3kpoXfpXpMnpCcEcG4+/+9W7ksr9xtzcgymCZ3MtqqKt8dvauuusdDD3dMz9TGgFnwAACRbwxN2nbd9SduxWtqe5sO7FBLj9UxztI0r40Wpt8ip5XLIx0DfxqgbNIQAAAAAAAAAAAAAAAAAAAAAAAAAAAAAAAAAAAAAAAAAAAAAAAAAAAAAAAAAAAACmM1yq3YLh2V5reHctqxGz115uK66feKGB9RIiKvlVrFRANMPJshueXZJkGV3qb3m85Ncqu63ao/bKmtmdPM7j53vVQl4YAAAAAfqKrVRUVUVF1RU7UUDObYjxCOoXZJaO1z39dysMp+Vi4vk8klS+KJOHLSV+q1EOicGornxt/awJuOnzr+2G37dQ2VLuu3meVXKxMOyGSOLv5XcOShreENRqvBrfYkX9rCGcAAAAAAAAAAAAAAAAAAAAAAAAAAAAAAAAAwd6g+v/AGG2FWtsqXf+0XPKVXRrh2PSslSCVvDlrq32oafReDm+3In7WBCPvv4g/UJvc6ttcOQLtvhdTzMTFcYkkpnSRLw5auu1Som1Tg5EcyN37WgSwbVVVVVV1VeKqoH4AAAAAHuYzkFzxLJMfyqyze7XjGblS3W1VHH2KmjmbPC7hp2PYigbnmE5Vbs6w3E81tC81qy+z0N5ty6833mugZURoqp5Ua9EUIVOAAAAAAAAAAAAAAAAAAAAAAAAAAAAAAAAAAAAAAAAAAAAAAAAAAAAAAAAAAAAMCPErzx2EdJ+ZUkE/cV2e19uxijei6KraiX3qpaieXmpqWVq+hQNXcJAAAAAAAAAEgPTh4ie9exi0GP5FVP3T28p+WP+b95nctdRwpw0obgqPkYjU0RI5UkjRE0a1naBPnsF1UbN9R1q9729yRqX2nhSW74TcuWmu9GnDVX0/M5JGIqoneROezjpza8AhkWAAAAAAAAAAUzdM1w2x8303ltms/J8/wB+r6en008/ePaBRFZ1A7DW7X6Q3twGh5fne8ZJa4tPXz1KAU3N1X9MkDla/f8AwByp+15BQSJ8bJnIB0H9YPS5GqI7fvCl1+xu0DvuXKBzs6uel+T5u/uCppx9q9UjfupEA9qk6menGu0Sk3827lc7sj/nPakf+tWpR3yAVdbd2tqryqJaNzMUuqu+alHeaGfX/VzOArmmq6StiSajqoquF3ZLC9sjV+FqqgHYAAAAAAAAxz396qdm+nC0rV7g5G11+qIlltGE23lqbvWduisp+ZqRsVUX75K5jPJzKvACAzqP8RLevfN1fYMdq37WbeVHNF/N6zTuSuq4V4aV9wajJHo5NUWONGRqi6Oa/tCUf4AAAAAAAAABtEeGrnTs16TsLpZ5u/rcEr7jjNW9V1VEp5veqZq+bkpqqJqehAhnuAAAAAAAAAAAAAAAAAAAAAAAAAAAAAAAAAAAAAAAAAAAAAAAAAAAAAAAAAAAAIUPGKy10dp2RwSGXVlZV3i/XCHXsWmjp6Wldp6e/mT4AmEF4AAAAAAAAAAA9axX694xd7ff8bu9ZYb5apkntl4t876app5W9j4pYla5q+lFAmg6XPFQngW3YV1LRLUQ+zBR7q2+D74xOxFulHC32k88sDdezWJy6vBgmxsGQWLKrNbsixm8Ud/sN3hbUWu8W+ZlRTVETux8csaua5PUoQ9KoqKekglqaqeOmpoGq+eolcjGManFXOc5URETzqBjbnPWR0wbdrLHku9WNrVQapLb7TUOvNSxyfWvhtjal7V9DkQDETMvFt2BsqzQYhiWW5rUs17uodBTWyjf5tJJ5nzp8MATgxbyvxhdx6xZG4Ps/jmPtXVI33uuq7s5E86pTpbk1/8A1xBgxzyXxM+rrIFkSizi2YnDJ86CzWWh4J5myVkVVInrR+oFir71bdTmR86XPfjNkZJr3kNFeKmgjdr5Fjo3wt09GgFnrzmmY5E578gyy8318nz3XGvqKpXetZXu1ApkAAAAAAADt0VfX22ZKm3Vs9BUN+bPTyOienqcxUUC6Vk3/wB9sbVn0BvPnFnZHpyw0uQXGOPh5FjbPyqnoVAL3474gvV7jXdtpt4625wM05oLvQ264c6J5FkqaV8vxPRQMhsV8W7qCtPdxZRiOG5dTs07yZKart9U/wA/3yGpdEnwQgwZOYd4w2B1ixx5/s7fbB2JLVWG4U11Rf03d1LLeqJ6OZfhBgy1wjxEekrN3QwM3NZilfNp/uWS0dTbkbr9lVOjdSp/rghlFFuhtrPjFwzam3Axyrw61QrUXLKae6Uk1vgiT6+SpjkdG1PNq4CG/qj8VCondccK6aolpqf2oKzdW4QffH+RVtdHM32E80s7de3SNq6PCcEL98vt6ya7V9/yO7Vl+vl1mdUXO8XCd9TU1Eru18ssiuc5V86qB5QAAAAAAAAAAAnS8HXLHS2fe/BZptGUVZZ77b4Ne1aqOopalyJ6Pd4UX1glNaEAAAAAAAAAAAAAAAAAAAAAAAAAAAAAAAAAAAAAAAAAAAAAAAAAAAAAAAAAAABrneLffnXDqKxOyMfrBj2DUSOj809XXV0r1+GNIwmEWIAAAAAAAAAAAAAL57TdS2+Wx1DeLZtduJcMXtl8avv9sayCrpuddNZooKuKaOKVUTRZI2tfpw14IBR2cbtbobmVDqncHcHIcyerudkd3uNRVRRr/moZHrHGieRGtRALegAAAAAAAAAAAAAAAAAAAAAfSOciORHKiPTR6IvamuvH4UA+QAAAAAAAAAAAAASn+EffVt/UTl1kfJyw5Bg1b3cevzp6SvoZWfFGsgJbGAQAAAAAAAAAAAAAAAAAAAAAAAAAAAAAAAAAAAAAAAAAAAAAAAAAAAAAAAAAAAGsD4nNc6r6vc3p3O1S12mxUzE8yOt0M+nxzKEo/gAAAAAAAAAAAAAAAAAAAAAAAAAAAAAAAAAAAAAAAAAAAAAAAAAAAABIF4Yte6j6vMKp0XRLpaL7Sv8AU23zVH1YQNn0IAAAAAAAAAAAAAAAAAAAAAAAAAAAAAAAAAAAAAAAAAAAAAAAAAAAAAAAAAAADVt8SlHp1kbp8zeVq02PrGvnT6EoePx6oEsEgAAAAAAAAAAAAAAAAAAAAAAAAAAAAAAAAAAAAAAAAAAAAAAAAAAAABnZ4a6PXrI2qVq6NbT5AsiedPoOuT6qoBtJhAAAAAAAAAAAAAAAAAAAAAAAAAAAAAAAAAAAAAAAAAAAAAAAAAAAAAAAAAAAAax3ih219D1bZJVOTRt5sFkrI186NpUptfjgUJR4gAAAAAAAAAAAAAAAAAAAAAAAAAAAAAAAAAAAAAAAAAAAAAAAAAAAACQ3wvba6u6tsZqkYrks1hvdY9fsUdSrTa/HPoBs5BAAAAAAAAAAAAAAAAAAAAAAAAAAAAAAAAAAAAAAAAAAAAAAAAAAAAAAAAAAAAa9Xi9446i3s23ylsashv8AhiUDn6cHTW2vqXuXXz8lWxF+AJhEqAAAAAAAAAAAAAAAAAAAAAAAAAAAAAAAAAAAAAAAAAAAAAAAAAAAAAJavCExx1bvbuRlLmc0NgwxaBHacGzXKvpnsXXz8lI9PjBLYVCAAAAAAAAAAAAAAAAAAAAAAAAAAAAAAAAAAAAAAAAAAAAAAAAAAAAAAAAAAAAiG8X7CnXPana7PoYu8fiOS1NpqXInFkF5pu8V6r5kkoGN9bkCYa/IAAAAAAAAAAAAAAAAAAAAAAAAAAAAAAAAAAAAAAAAAAAAAAAAAAAAA2BfCBwl9s2q3Rz6aJY35dklNaaZ7k4vgs1N3nO1fsVkr3t9bVBKXoIAAAAAAAAAAAAAAAAAAAAAAAAAAAAAAAAAAAAAAAAAAAAAAAAAAAAAAAAAAADGnrC2zfu302bs4bS061N1fZX3WwxNTWR9faXNr6eOPzOldB3fqcoGosEgAAAAAAAAAAAAAAAAAAAAAAAAAAAAAAAAAAAAAAAAAAAAAAAAAAABtGeHBk23N16XMHx3BbxHXXXE2zxZ5bZESOrpbrW1E1VL3seqqsb+de5f2OY3Tg5rmtIZ5gAAAAAAAAAAAAAAAAAAAAAAAAAAAAAAAAAAAAAAAAAAAAAAAAAAAAAAAAAAAC0W+G9eEbAbeXncXO63uLdb291bbZErferjWvaqw0dKxVTmkkVq+hrUc92jWqqBp85PdaS/ZJkN8oLRDj9BebnV11FYaZyvhooaiZ8rKaNztFc2JrkYirxVECXhgAAAAAAAAAAAAAAAAAAAAAAAAAAAAAAAAAAAAAAAAAAAAAAAAAAAF7Ngd+s56ddxLZuBhFVq+FUgv9hle5KS6UDnIstLUNTXgumrXaasciOTsA2u9k95sK3727se5GC1vvFrurO7raCRU95t9bGid/R1TEVeWSJV9Tmq17dWuaqkLsAAAAAAAAAAAAAAAAAAAAAAAAAAAAAAAAAAAAAAAAAAAAAAAAAAAAAAAAAAPFyPIrHiFgvOU5Lc4LNj+P0c1febrUu5YqengYr5JHL6ETsTivYnEDVQ6wuqXIOp/cqe8uWe27f446Wj2/xl66dzTOcnPVztRVatRU8qOf8AYojY0VUbqpLEkAAAAAAAAAAAAAAAAAAAAAAAAAAAAAAAAAAAAAAAAAAAAAAAAAAAAAAMyei3qqu/THuXDV1009btllkkVJn9jZq/liRdI7hTs/bqbmVdE+ezmZ2q1zQ2pbRd7Zf7VbL7ZK+C6We80sNbarlTPSSGop6hiSRSxvTg5r2uRUVPIEPRAAAAAAAAAAAAAAAAAAAAAAAAAAAAAAAAAAAAAAAAAAAAAAAAAAAAAAAAAgN8UTqsdkt9f044Ncl/m/jNQyfc2up3+zWXONUfFbtW8FjpV0fInll0RURYuJKHIAAAAAAAAAAAAAAAAAAAAAAAAAAAAAAAAAAAAAAAAAAAAAAAAAAAAAAAACcHwseqZ71f005vcebRs9ftTXVD+OjeaartWq+ZOaeFPxjdfmNBKb4IAAAAAAAAAAAAAAAAAAAAAAAAAAAAAAAAAAAAAAAAAAAAAAAAAAAAAAAxS6yuoan6cNkr9ltHNEuaXtfoXAKKTR3NcqhjtKhzF11ZTRo6V2qaKrWsXTnQDU3ra2suVbV3G4VUtdX180lTXVs71klmmlcr5JJHuVVc5zlVVVe1Ql1QAAAAAAAAAAAAAAAAAAAAAAAAAAAAAAAAAAAAAAAAAAAAAAAAAAAAAAAAPaxzIbziV/suUY7cJbVfsdrYLjZrlCukkFTTSJJFI30tc1F4gbeHTbvbaOoTZzENzLakcFZc6f3bJrXGuvuV2ptGVlPoqqqNR/ts14rG5jvKEL6gAAAAAAAAAAAAAAAAAAAAAAAAAAAAAAAAAAAAAAAAAAAAAAAAAAAAABq++Ixv67ejf26WOz1y1GEbU99jtgax2sU1ax//AJnVt8i95MxIkci6OZExydoSwCAAAAAAAAAAAAAAAAAAAAAAAAAAAAAAAAAAAAAAAAAAAAAAAAAAAAAAAAAAAJV/Cr34fg27Nz2bvdaseNbqx97ZGSO0jgvtFGro9NeDfeYEdGvlc9sTQS2KAgAAAAAAAAAAAAAAAAAAAAAAAAAAAAAAAAAAAAAAAAAAAAAAAAAAAAMZ+r7eZdiOn3P87pKhIMidSJaMP46OW63Fe4p5GovasCK6dU8rY1A1GnvfI90kjle96q573LqqqvFVVV7dQl8gAAAAAAAAAAAAAAAAAAAAAAAAAAAAAAAAAAAAAAAAAAAAAAAAAAAAAAAAAAHs47f7rimQWPKLDVuoL3jlwprnZ61nzoaqklbNDIn2r2ooG5BtFuLbN3NsMF3KtHK2izKz01yWnavN3E8jESop1XyrDMj419LVCFxgAAAAAAAAAAAAAAAAAAAAAAAAAAAAAAAAAAAAAAAAAAAAAAAAAAACBzxe91X12U7a7M0FVrSWCilynIoGLq11XWufS0TXp5HRRRyuT0ShMIYwAAAAAAAAAAAAAAAAAAAAAAAAAAAAAAAAAAAAAAAAAAAAAAAAAAAAAAAAAAAAA2EvCP3SfkO0ub7VV1QslXt1eGXCzxuX5ttvSPesbE8qMqoZnu/GICUtoQAAAAAAAAAAAAAAAAAAAAAAAAAAAAAAAAAAAAAAAAAAAAAAAAAAANQ3q53EXdPqS3fzGOf3mgnyCot1mlRdWuoLVpb6VzU8iPip2v8AWqhLHIAAAAAAAAAAAAAAAAAAAAAAAAAAAAAAAAAAAAAAAAAAAAAAAAAAAAAAAAAAAAAJEfDA3CfhfVLZLDLN3du3Js9xx+qa5fYSaOP6QpnafZLJSd237dfOBs3BAAAAAAAAAAAAAAAAAAAAAAAAAAAAAAAAAAAAAAAAAAAAAAAAAABbjeHMv7O9p9ys7RyNkxDGLrd6b9NNSUkksTU18rntRE9YGmS5znuc97le96q5znLqqqvaqqEvkAAAAAAAAAAAAAAAAAAAAAAAAAAAAAAAAAAAAAAAAAAAAAAAAAAAAAAAAAAAAALj7PZjJt7uxtrnLJe5TEsmtV1nfroiw01VHJK13ocxHNX0KBucdvFOKKEAAAAAAAAAAAAAAAAAAAAAAAAAAAAAAAAAAAAAAAAAAAAAAAAAAGD/AIjGSvxvpC3TWGTu6q/fRdmgXXTVtXcadJ0+GBsiAasASAAAAAAAAAAAAAAAO0Csrft1uDdomzWrBchucL+LJaS2VczV9SsiVDHN6iN9UdrLTYuVbqZnql6rNnt2pHcqbY5W1dNfbs9axPjdEiHn+Ra/VHbD3/Fvfoq7Jdx2x+8DGq5dtciVE7UbQTOX4kaqkfybX6o7U/w736J7HRXaDdlFVv8AZhliq1dF0stcqfGkJP8AItfqjthH8W9+irslwS7VboQIqz7b5TCidqvs9a1PlhJ+/b/VHbDzOWux9M9kqWuNivlnXS7Wauta66aVdPLBx/0jWnuKondLHVRVTvjB5R6eQAAAAAAAAAAAAAHfoLVc7pJ3Vst1VcZU7Y6WF8zviYiqeZqiN71FMzuhVsO1m51SiOp9ucoqGr2OjtFa9F+KJTxN+3H1R2wyRl7s/TPZLtM2e3ae5GJtjlbVX7Oz1rE+N0SIR/Itfqjth6/i3v0VdkvWi2E3ll5eXbe+JzcE56ZWfHzKmh5/lWv1Q9fwr36JcdRsTvHTNc6Tba/ORuuvdUb5l4eZI0cqiM1an6oJyd6PonseRJtNupExZJds8riYnFXvs1c1E+FYT19+3+qO2Hictdj6KuyVFV1vr7XUOpLlQ1Fuq2cX0tTE+GRNfOx6IqGWJidzDNMxsl0yUAAAAAAAAAAAAAAAG5jsnkTsv2b2nyqSTvpckw6x3OeRV1VZKqghlfr6eZy6hC5wAAAAAAAAAAAAAAAAAAAAAAAAAAAAAAAAAAAAAAAAAAAAAAAAAEXHi23V9D02Yxb438rr1n1uhmZ9lFDb7jOvxPYwENccJAAAAAAAAAAAB7Fhx6+5Rc4LNjloq73dKnXuaCiidNIqJ2uVGoujW9quXgicVU81VxTGMzhD3RRVXOFMYyzMwPokym5tgrdwL/BjFO7lc+y29G1laqaqjmPl1SCJdNFRWrKnnQrbup0xsojFbWNHrq21zh7N8/jtZW4p0s7L4x7u5MVXJK6HVErb3M+sWTVfr6dOSmX0feTQuZ67Xy4dH4xWVrTbFHJj0/jBkLj+37LPTpS4vhsVmo1VVSC3UDKSHj28ImMaatVyat84t2i3TR5YiOhVceEZTJxbaXp9vJE37p6Hjih7wdhMAyn/APx7E9Hfxf8AxDigwfi4DlSdlua70JPD+i9BxQYOB+EZSzttL1+1kid9R6jigwdSTFsjj+dZqtdPsY1f9zqTjA6Mlou0H4W2VcOn2cMjfqtGKHk1VFDMix1tIyVF7Y540d8jkJiZhE0xO9SFdtvt3c5EluWBY5cZU7JKq1UkzvjfEpki9cjdVPaxTl7U76Y7IeLU7LbRVTVbLtnjLUX9ptlNCvxxMap6jM3Y+qe14nJ2Z+iOxSlZ0x7FVz+8n2/pmO81PV11M39bBURoZIz16Pq7mOdOy8/T758XQf0pbCuT2cGdH6W3S5/41Up6/n3v1e6Hn/bMv+n3z4ug/pH2Neurcaq4vQ25Vn+NKpP+4Xuf3PP+12Oae11V6P8AZJV1+iLkno+kJ/8ACT/uN7njsR/tVjmntc7OkTY5mnNj9bLp281xquP62RCP9wvc/uT/ALVY5p7Xfj6UNh2IiOwqSb0vudyT7mpaR/Pvc/uh6jTMv+n3y7cPS3sNTyNljwCNXN7EkuFylb8LZKpzV+Iic9en6vdHgmNNy8fT758VV0mx2z1EiJDtrjz0Ts7+hiqF+OZrzHOauz9UssZKzH0Q9qm2t2yo5Wz0e3OL0k7PmzQ2iijen6psKKeZv3J+qe2XuMtajdRHZCsKS20NGjY6CggpUT5rKeJrPiRqIY5qmd8skURG6Hsx2y5z/grfVTa9nJE931EPOL078eL5FLpy2WrTX7OJzPukQYwl3WYRlMnzbS9PtpIm/dPQjigwdhuAZSqcaBjPQs0X6DlHFBg+/wCz3J//AKSL1d8z/COKDBxPwLKmcUtqP+1mi/Reg4oMHl1mHX7upIauwz1ED00li7tJmOTzKjeZFJipExjvWLyjp92kv6LDe9t7ZRzcyyLLRU7rXOr111c59IsDncV19pVNmjN3ad1U9/e1bmRs176Y6tncxczboctk7Jarb3LZqGo4uZaL41JoXOc7XRtVAxr42tTs1ikVfKpu2tUn647Fde0aN9urqnxYSZ7tZnm2lY2lzDHqi2xTPVlHc26TUdQvFU7qojVzFVUTXkVUeifOahZ2r9F2PllT3stcszhXGHct8ZmAAAAAAAAAAAAG2d0MXRbx0lbG1bn94sNgWh5u3hQ1U9IifAkWgQyxAAAAAAAAAAAAAAAAAAAAAAAAAAAAAAAAAAAAAAAAAAAAAAAAAAiC8YOoVu1G0tLzezNltRKrfOsVDI1F+DvAmGv6AAAAAAAAAAAMjtjunTI93KiK7Vr5MfwaCVW1V8czWWqVi6Piomu4OdqnKr19li6/OcnIunms5TZ2b6vxvb+TyFWYnGdlPP4Jctq9lbNilqZZsDx2G1W/2UrrrJqslQ9uvt1FQ5FfK7Vy6JxRuujUa3gUF6/VcnGqXTWMvRZjCiMGRdr22tNKjX3KWS5TeWNFWKJF9TV5l+P4DBNTPgrmjtlut7UbQ0MFKnZrExrVX1qiar8J5xHeAAAAAAAA+XNa5NHNRyeZU1QDpSWu2TfhrdSy69vPCx31UGI6MmMY7L86y0afaRNZ9yiE4yOlJhGLSfOtLE+1klb9y9BxSYOo7b7F3dlFIz7WaT9FyjikwcC7c42vYypb6pf8KE8UmD4/s3xzz1Sf6VP/AIRxSYPpNuMbT62pX/S//sOKTBzM29xhvbSyyfbTP/QVCOKTB2mYLisfZakcvndLM76rxxSYO7HimORfNs1Kun2bOf7rUYyO9HZ7RD+BtdHFp9hBG36jSMR32RxxppGxsaeZqIifIB9gAAAAAAAcU0ENQxYp4WTxu7Y5Go5q/AuqAUjcsDx64I50dMtvmXslpl5U/WLq3T1IhMVSYLQZdtfM+31tFcLfTZPYatisraSWFsrHx9uksD0cipw14a+cyUXJicY2S8V0RVGExjCLHfTpGms0VVle1ME9dbYmukuOGqrpqmBE4q+je5VfK3Ttjdq9PrVfrytusrqHF8tzfzqDO6Xw/Na3c3gwNLVSgAAAAAAAAABtN+G7Os3RptE1V5lp35BEq8fJfrg5E+JwQzkAAAAAAAAAAAAAAAAAAAAAAAAAAAAAAAAAAAAAAAAAAAAAAAAAAh58YZirtps9J9a3Jq5qrr5XUeqcPgCYQDAAAAAAAAAAGVXTl08VO6VezJ8oilo9v7bNyuaiujluszF408Lk0VsTV4SyJx+sZ7XM6PQzmc+1HDT5u5ZZDIzfniq8se9Nvgm2lHTUNAtXQx220UcLIrVYoGJDG2GNERjeRiIjGIiIiNT6nbz1dczPtdRTTFMYRuXujijhjZFDG2KKNOWONiI1rUTyIicEMb0+wAAAAAAAAAAAAAAAAAAAAAAAAAAAAAAAAAAAAFv8pwalu7ZK22tZSXPi5zU4RzL5nJ5HL5/j856irAwRN9UfTE+vfds/wW1rS5FSq+bLcViZp75p7UlVTMTsnTtexPwvzm/fNe9uMjncMKK93JKj1HT+LG5bjbyx8UaJdOfAAAAAAAAAG0f4ajeXo52xXVV56u/rovk/86rU4fEEM8AAAAAAAAAAAAAAAAAAAAAAAAAAAAAAAAAAAAAAAAAAAAAAAAAAIiPGBp1dtBtVVaezDmEsSu8yy2+dyJ/2YTDX3AAAAAAAAAXv2H2drt4MvZb3ulo8Xs/JU5TdI09pkLlXkgiVUVqSzK1Ubr2Ijn6O5eVdXNZiLNOPLO5uZLKTmK8OSN6fLbDbe2WS12tzLbFb7TbYY4rBZmN0jjiYmjHqi9vnTXivzlOZuXJqnGd7raKIoiIjZEL4mN7AAADkihlnkZDBE+aWRdGRMRXOVfQicSaaZqnCN6KqopjGZwhWlDt/fqtqPnSGgavHlmdq/T7ViO+VULC3pl2rbOEdKtu6vZo2RjPQ9N+2lejdY7lTuf8AYua9qfGmv1DLOkV8lUMEa3Ry0ypi6YnfLS10tRSd9Tt+dUwL3jETzrpxRPWhqXsldtbZjZzw3rGoWb2yJwnmnYps1G4AAAAAAAAAAAAAAAAAAAAAAVLbMSvl1a2WCk7mnfxbUTr3bVTzonFyp6UQ27ORu3dsRhHPLSv6hZs7JnGeaNqpmbaV6t1fcqdr/sWte5PjXT6htxpFf6oaU63RyUy8uuwC/UjVfC2GvYnHSF2j9PtXo35NTDc0y7TtjCehntatZr2TjHSoyWKWCR8U0boZY10fG9Fa5F8yovFDQmmaZwnesqaoqjGJxhxkJAAFF5dicN/p1qKZrYrrA37zL2JKifWP/QXyeomJwJhCZ1c7BLi1dV7lYxQOp7TWVPJmNnYzRKKrkdypUsROyOZ66PRfmyKmmqP0Zf6fmuOOCrfyOc1PJcE/cp3Tv9jBQtFMAAAAAAAAbTHhtxd30abSP007+XIX6+fS/wBwZ/ihDOcAAAAAAAAAAAAAAAAAAAAAAAAAAAAAAAAAAAAAAAAAAAAAAAAACK7xdKPvunLCqxrdXUW4lAjl8zJbVdGr+yRoTDXRAAAAAAAA9C1Wuvvl0t1mtVM6tud2qYqO3UjNEdLPO9GRsRVVETVyonFdDzVVFMYzueqaZqmIjfKffpp2NtmBYla7GjG1EFvVKm/12nC4XORrVlcmqN9huiNaipryI1F1XVTl81mJu1zV2dDsMplosW4pjr6WZSIiIiImiJ2IarafoAAB6lotFZeq1lFRs1c7jLKvzY2eVzlM1ixVeq4aWDMZimxRxVf8V/LHj1vsUCMpo0fUOTSesentvX9BPQh0uXytFiNm/ncnms5XmJxq3ckPdNlqgAC3OU4TDWskr7RE2Ctbq6WlbwZL5+VOxHfIpVZzT4rjio2Tzc65yGpzRMUXJxp5+b8lmXNcxzmParXNVUc1U0VFTtRUKCYwdJE4vwAAAAAAAAAAAAAAAAAAfTWue5rGNV73qjWNRNVVV4IiIIjEmcNsrz4thMFCyOvu0TZ652jo6Z3FkPm1TsV3yJ8pf5PT4ojir2zzczms/qc3Jmi3OFPPz/kuIWqnAAHg3zHbffoFZUxpHUtTSCsYntsXya+dPQprZnK0X427+dt5XOV5efl3csLB3a01dmrZKKsZo9vGORPmvYvY5q+ZTmb9iqzVw1Osy+Ypv0cVLzDEzAAC0m6ODUGR2i4zS0MdbBVUslLfbe9NWVNLIxWSI5E7dGqqL6PUe7dc0zjDzXTFUTE7pa8G9O2NXtPnt0xmRXzWqTStxuukVFdPQTOd3auVET22K10b+CauaqonKqHU5a/F6iKuXl6XH5vLzYuTTycnQtObDVAAAAAAAbWHh6U/u3RzstGqac1Jdpf9beq+T/GCGZ4AAAAAAAAAAAAAAAAAAAAAAAAAAAAAAAAAAAAAAAAAAAAAAAAAEdXik2pbj0m3qrRvMliySy1zl+xR8zqTX/8AI0A1lQkAAAAAABnv0L7US5RlldnlRTpJFZZFtOOq7i336ePmqZuDtfvFO9E0VNF7zVOLSq1O/wANMURy7+hc6Rl+Kqbk8myOn8d6c22W+ntVDTW+lbyw0zEai+Vy9quX0qvFSgmXRu8AAAfTGPkeyONqvkkcjWMTiqqq6IiCIxnCCZiIxlkRjNhisNuZCqItZOiPrZU8r9Pmovmb2J8flOqyeWixRhyzvcdns1OYuY8kblRm003RuV0ttmoai53i4U1qt1I3nqq+slZBDG3zvkkVrUT1qRVVFMYzsh7t26rlUU0xMzPJG1YK5dV+w9sqnUj82SskjdyySUdDWTxJ6pWQqxyelqqadWoWInzd64o9O56uMft4dMxHxXEwrd3bbcR3dYfl9Bd6tGq9bbzOgq+VOKu92nbHLonlXl0M9rMW7vlnFpZrTczlf3aJiOffHbGxcczNFaTcDHmxql9pGaNkcjbgxqcEcvBsnw9i+nQpNTyuH9ynr8XQaRnMf7VXV4LWlMvQAAAAAAAAAAAAAAAAAupt/jzX/wDntXHqjVVluY5OGqcHSfB2J8PoLnTMrj/cq6vFRavnMP7VPX4Lsl259bDNd59r9vJXUuW5lQ2yvaiK61sV9TVtRU1RXU9O2SRqL5Fc1EMF3M27Xmlv5XS8zmoxt0TMc+6O2cIUPaeqvYi8VTKOLOGUM0juWN9fSVdLEvk1WaWFI2p9s5DFTn7NU4cTbuens9RGP28eiYn3Y4r+0VdRXOkp6+3VkFwoatiSUtbTSNlikYvY5j2KrXIvnRTbiYmMYU9dFVE4VRhMc7tEvKm8osMd9tz4mtRK2nRX0Uq/ZeVqr5ndnympnMtF+jDljc3cjm5y9zH6Z3/j2MeHsdG90b2qx7FVr2rwVFTgqKctMYbHYRMTGMPkAB+KiKioqaovagEaHXRswy9YTV3+2UutdiCS3m1vTtWi0T6Qp9VciIjGNSVOCr7CNT5yllp1/grwndOzwVmqZf7lrijfTt6uVC6dE5YAAAAAABtr9EVF9H9J+xcHLy95jUVTp++ZZJ9fh7wIZUAAAAAAAAAAAAAAAAAAAAAAAAAAAAAAAAAAAAAAAAAAAAAAAAAAYg9e9iXIukTe2hazndS2mmubdO1Poyvpq1yp6mwr8AGp8EgAAAAAANiXpJ2zbt/tdjVLU0yw3CGiata16N50rKr/AHis1VvzuSR/dtX7Fuhyucu/cuTLsslZ+1app5cPeytNVtAAABXu39qStur66VvNDbGo5mvYsr9UZ8SIq/EWWmWeO5xTup71Vq+Y4LXBG+ruXwOicuo7Ps5sG3GK3XLsjqFht1sj1bEzRZaiZ3COCFqqnM97uCebtXREVTHeu02qZqq3NrJ5S5mrsW6I2z7vbKFvdvefMd373JcL9WOprPBI5bLjUD190pGdiezw55FT50jk1XyaN0anM5jM13pxndzPqOm6XZyNHDRHzctXLP5exaM1lk7FJV1VBUwVtDUy0VZSyNlpauB7o5Y3tXVrmPaqK1UXsVFJiZicYeaqYqjCYxiUpPS71LVGdPh2+z2qa7LIolWw3t2jfpKONuropexO/a1FVFT57UXX2k9q+yGd+58le/k9v5uA9QaFGW/vWY+Tlj9P5d3dmxV0sNbTT0k7eeGpjdHI30OTTh6SyroiumaZ3S5a3XNFUVRvhjLX0clvraqim/CUsro3L5+VdEVPX2nIXLc26ppnkdvauRcoiqOWHUPD2AAAAAAAAAAAAAAAdy30UlxrqWhi/CVUrY0XzIq8V+BOJ7tW5uVRTHKx3rkW6Jqnkhk1S00NHTQUsDeSGnY2OJvoamiHX0URRTFMbocTcrmuqap3ywL6o+pusxqrrNt9uq73e9RJ3eUZLCvt0iuT9y0zk7JdPnv+s+a329VbVZ/PTRPBRv5Zdd6f0GLsRfvx8v008/tn2c0cvRvjNmmmqJZaiolfPPO9ZJppHK573uXVznOXVVVV4qqlJM4u7iIiMIcZCV7dmd9Mu2dvMUtuqJLljFTKi3rF5nr3EzV0R0kWuqRSonY9O3gjkcnA2stmqrE7N3MqtU0i1nqPmjCvkq5evnhNBiGWWPOcbtOVY5VpW2i8QJNTS9jmr2PjkbqvK9jkVrk8iop01u5TcpiqndL5dmctXl7k264wqhUh7YFjc/tSUN2bWxN5YLm1Xrp2JK3RH/Hqi/Cc7qdngucUbqu91Gk5j7lrhnfT3cihCtWoAApDOLHFfserad8LZ5IGOliic1HI9ERUexUXtRzVVNCaZwlExjDWX3Ow9+A7gZbiLmvSKy3GWOgWRUc91JJpLSvcqcNXwvY5fWddZufcoirncVmLX2rlVPNKhDKwgAAAAAbiPTRa/oXp12Jtit5ZKXAMcSdv+ddbYHSfs1UIXuAAAAAAAAAAAAAAAAAAAAAAAAAAAAAAAAAAAAAAAAAAAAAAAAAAttvLjK5ntDuniLWd5Jk+I3q1QsRNV7yroZoWaelHORUA0yQkAAAAAC4G1OPNyvcvBcelpUrKW5XujZcKVeKPpWStfUoqfimuMN+vgt1T7GfLW+O7TTzzDZ8sdvS12i30CJo6CFqS+mR3tPX4XKpyMzi7V6wAAAAv1gdClJj8Eqt0krnvnf59NeVvyN1+E6XTbfBZiefa5TVbvHfmOSNiszfVqO7emar3/wB/7Bslb7k+ixXEeefIaqFUXWobF3lU9qLwV8bFbAzVF5Xq7yKpTZmZzN+LUTsjf+Pc7XS4jTchVm6oxrq3dHJ4z7MGRf8AdW2L+hvob+ZEend8n0p7zU++8+n4Tvu815teOmnL+l04G7/As4YcKk/+hz3Hxfc6sIw7MEU+8+20u0+4V6w73p1dRU3d1NornoiPlpKhvPGr0TROZvFjtERFVqqiaFBmbH2bk0voel56M7l6buGE7pj2wtYa6wd62XKvs1xoLva6qShuVsqI6qgrIl0fFNE5Hse1fOioinqmqaZxje8XLdNymaaoxiYwlO/tRnlNuXt9jWZQIyOa60qJcqZnZDWQqsVRGmvHRJGry69rdF8p1eXu/doirnfItRyc5TMVWp5J2dHJ7lK7i0KU95hrGt0bXwor1874/ZX9jylJqtvhuRVzx3LrR7vFamnmnv8AxKgCsWwAAAAAAAAAAAAAABcHbmhSe71FY5uraCFeRfM+X2U/Yo4tNKt8VyauaO/8SqNZu8NqKeee78Q9HfHcVu122mQ5VE5v0q2NKLH4n6Kj66p1ZEui8FSPjIqeVrVLjNXvs25q5eTpVek5L+ZmabfJvnojf4daJ/Yramq3y3Cmtd0uk9NbqeKW7ZRdkVH1MjFka1Wsc/mRZJZJPnORdPadoumi8/lMvOYuYTOzfL6Jq+oxp2X4qYjHdTHJ/wAIZ25j0U7ZXDHamnw736wZJBC51ur5qqSohmmanstqY5OZEa5eCrHy6dui6cq2tzTLc0/LslyOV9VZmm5E3cKqeWMMOz80UVRTzUlRPS1EaxVFNI6KeJe1r2KrXIvqVCgmMH0SmqKoxjc4SEs6+iTc+a0ZTX7ZXKpVbVk7H1tiY9eEVwp2c0jG+ZJoWqq+ljdO1S20u/w1cE7p3dLkfVeQiu1F+mNtOyf6Z8J70oxeuAUVntClXYJZkbrJQSMmavl5VXkd8jtfgK/UrfFZmebas9Ju8F+I54wWHObdUAAAECPX5hzcZ3oguNPStgpMgtUbnTJ2yz00j2cftYHQN19B0Wl18VrDmlzOsW+G7E88fj4MGyyVIAAAAPprXPc1jGq571RGtTiqqvYiAbrmJWZMdxXGcfTTSxWmit6adn+6wMi/xQhUIAAAAAAAAAAAAAAAAAAAAAAAAAAAAAAAAAAAAAAAAAAAAAAAAAADTM3ow923+725+ELF3MeK5TdrZTN00RYKerkZC5qeZ0aNcnoUJWzAAAAADKLowty3PqU20hViPiinrpahq/YNoKhF+VUNLUJwsVdXe39MjHMU9fdLYwOYdaAAAADJ+1wJS2230yJp3FNEz9axEU7CzTw0UxzRDh79fHcqq55l83a5U9mtVzu9WulLaqSasqV7PvcDFkd8jT3VVwxM8zzbom5VFMb5nDtQk7V7v1eDbuxblXaGS5MudXVvyaGPTvZIrg5zp3R8yoiua5yPRFVNVTTVNdTl8vmZt3eOevrfVdQ02MxlPsU7MIjh/wBO7wSq/wB5PZD6G+nP7Q7b7t3fee5/fPfezXl905O+5vJpyl//ADbOGPFD57/sed4+D7c4+7t3Imd79yk3Y3GvWXQUz6K2SpFSWWll07xlJTt5WLJoqojnrq9URV0V2mq6anP5q/8AeuTVyPouk5H+Fl6bczjO+emfxgtKayyAJMOgzJ5KixZ1h00iqy11lNdaBirr7NWx0MyN8yIsDF9bi80m5jTVT1uE9X5fCu3djliYnq2x3yy43LgR1tt1TpxhqVj19EjFVfuCdXp+Smfb+O5T6LXhcqp547v+KzZQujAAAAAAAAAAAAAAALzbawI2119Tp7U1T3fwRsRU+V6l9pNOFuqeeXN61Xjcpp5o75/JhP165RItTgWFxSKkTIqm9V0WvBznr7tTO0/So2ZPhMerXPLT1r/0hl9ly70Ux3z8GMvTxu/Fs5na3u40ktdYLvSOt18gg0WZkTntkZNEjlRHOY5icFVNWqqduho5PM/YrxndO9fa1ps5+xwUzhVE4x4JAMx6ytpLTjtTW4nc58pyGWFyW20No6qnYyZU9laiSojiajGr87kVyr5POW9zUrUU40zjLjcr6YzddyIuRw08s4xPZhiiOqqmetqqmsqXrLU1cr5qiVe1z5HK5y/CqnPTOM4vpFNMUxERuhwEJVJhuRVGI5ZjeUUquSewXKmr2tb2uSCVr3M9TmorVTzKZLVfBVFXNLBmrEX7VVufqiY7WwTFLHPFHPC9JIpmNfFInY5rk1RU9aHXxtfGpjCcJdO7QJVWu406pr31NKxPWrF0+UxX6eK3VHslly9fBcpnmmGMRyDtwAAAiI8T22ObX7TXZjUSJ8V2gmdpxWRfdFbx+1YXWkT5o6PiotbjyT0/BFIXSgAAAABcjZvH3ZZu7tbi7Y+9XI8uslsVmmqKlVXQxLr6NHcQNzcIAAAAAAAAAAAAAAAAAAAAAAAAAAAAAAAAAAAAAAAAAAAAAAAAAAAGsN4m+COw7quya6Rw9zQ7g2m2ZHSIiezzLD7hUaL53TUb3r9t6glHyAAAAAGYnQZK1nU5gsTk195pbuxvoVttqJdf2BoalH9iervWOlz/APop6+5sHHNOrAAAD6anM5rfslRPjEE7IZVnaOCWr3xq30Wzm5s8a8rlxu4wo7zd9A+JfujXzU4WquiVhpNPFm7Uf80d6CI5R9dAAAABmz0J1T490snotdIqnFp5XJ53RVtIjfkkUtNKn+5Mez4w5X1dTjlaJ/547pSP7hN1x/X7GpiVPicn6Jvap+z1w5DR5/v9UrFnOOpAAAAAAAAAAAAAAAL7bfN0x1i/ZVEqr8ifoHR6XH9nrly2rz/f6oRgdbNW+o3obC5dW0FgoII08yK+abT45FK7VJxvdUO19K04ZPHnqn4QxEK50gAAAAJ+9tKt9ftxgFdIvNJWY3ap3u86yUcTlX5TrrE426Z9kdz45n6eHMXI5qqu+VaqiORUXsVNFMrVYpqmiqnmOLd6AAAEVnigSsbYtoINE7yevvD0Xy8sUVKn/wAwuNI31dSk1uflo6ZRAF454AAAAGZnh94ouW9XO0FM6LvKWy1tXfKt+mqMS2UU9TC5f9OyNPWoG1mEAAAAAAAAAAAAAAAAAAAAAAAAAAAAAAAAAAAAAAAAAAAAAAAAAAACGjxf9uHV2HbVbrUkCq/HrnVY3eZWpqqw3GNKmlc/zNjkpZERfPJ6UCYQLgAAAABlF0XV7bd1ObU1DnI1JKyupdV89VbaqnRPhWQ08/GNir8cre06cMxT+OSWxgcu64AAACLoqKnanYBlVG9JGMkb817UcnqVNTs4nGMXBzGE4Lcby2+S6bS7lUMTVfNNjVzWFidrnspnva1PWrUQw5mMbVUeyW7pdfBmrUz+qO9Awcm+vgAAAAzj6ELfJLuNl91RqrFRY4tK93kR1TV072/JApa6TH9yZ9nxcn6vrwy9FPPVj2RPikR3FkRlhjb5ZauNqfA17v0Dc1WcLXX4uU0eMb09E/BY85104AAAAAAAAAAAAAABfLbuRH4+5qf5Kqkavwo136J0WlzjZ65cvrEYX+qPijO637e+k3hoatWr3d0x2jmY/wAmsc1RCqfByJ8ZoapGF3qdl6Ur4spMc1U90Sw6K10wAAAANgXAre+04LhdqlarZbZYrdSSNXtR0NLGxUX4UOvsxw0Ux7IfG85Xx366ueqZ96qJpEiillXsjY5y/Amp7qnCMWvTGMxDFY4x3gAAARH+KJWI6p2VoEXjFFkFQ9PRI63Nb9wpdaRHnno+Kh1ufJHT8ETpdKEAAAAEunhB4Utz3c3Mz2WLnp8RxiG1QvVODKm8VTXtci+fuqGRPUoJbBYQAAAAAAAAAAAAAAAAAAAAAAAAAAAAAAAAAAAAAAAAB4VflGM2rm+lMitlt5fne9VcMOnr53oBR9ZvXs3b+b6Q3awyh5fne8X63RaevnnQCmanqe6baRVSff8A26a5vBzG5PanuT1tbUqoHhT9YPS5T695v3hTtP2q7U8v+zc4DzJetfpRiXR++uLLx09ipc/7ligdV3XJ0mNVWrvnjyqnmWoVPjSHQD5/vy9Jf/vlj3/5P/cgczOt/pOkRFbvpjaaronNJM37qJAPRg6yuleo07vfnD26/ttwZF/tOUCyXVNuz0zb4dPm5+AUW++AVF3uVnfW41E+/wBvje6525W1tExvPM1U7yWFsa6eRyp6ANYUJAAAABdfYm+Nxvenai9yP7uCgyy0Pq3r5IHVcbJv+zc4wZinitVR7JbGVq4btM+2Gz2ck7QAAAAGSmPVSVljtVRrzK6mY16/pmJyO+VFOtytfHapn2OLzlHBeqj2vTqaeGrp56SpjSWnqo3RTxL2OY9Fa5q+tFM0xi16appnGN8NfvNcZqsNy7JMVrUclRYLjUUSucmnO2KRWskT0Pbo5PQpyN2iaKppnkl9kyt+L9qm5H1REqYMbYAAACU7oXxGS14HkuX1ESskyu5Mp6Jyp86ltzXMR6L5lllkb+pL/SreFE1c89z596tzPHfptR9Mbemr8ohkfuZVIkdqo0Xi50kz2+bREa1flUxavXspp62jolG2qrohaYpF+AAAAAAAAAAAAAAAXb2zqkWG6UarxY+OZjfPzIrXL+xQu9Ir2VU9bn9bo201dMMUOvDEZKmyYVm9PFzJaqqe03N6JqvJVNSWBV8yNdE9NfO5D1q1vGKa+bYtfSGZwrrtTyxEx1bJ747EZ5Ru7AAACv8AavEZM73Fw7FGRLLFd7nAyuanHSkjXval36mFjlM2Xt/cuRTzy09QzMZbL13OaJw6eT3p8uw618eeJklUlHYbrOq8qpTvYxf00icjflca+br4LVU+xtZKjjvUR7e7axtOTdmAAAEKfiaXZJ91sCsiO1+jMV98cnmWsrahmnr0p0L7Saf7cz7XOa1V/cpj2fFGyWymAAAABPh4Y+ZbK7SbD3y7Zxu1hOJZRnWSVFZNarvfrdQ1sdDQxspaZslPPOyRNZGzPbqnFrkVOHFQkJqOrXphpde839wN2nb3N9opv9nI4IePL1pdKkOvPvvia6IqryVnP2faNUDov64ukyNUR2+eOLr9i6d33MSgfH9+XpL/APfLHv8A8n/uQPtnXF0mPXRu+eOovb7Tp2p8awoB3YutPpTl05d9sUTVNfbq+T7pqAetB1cdL9Rp3e/uCt1/bb3SRf7SRoHv0vUn07V2num/W3dQq/WMye1K74W+86oBVFFu3tTc1RLdubidwVexKa9UMv3EygVjQ3i03NNbbdKS4IqaotNPHLw/UOUD0QAAAAAAAAAAAAAAAAAAA8e85DYMcpVrshvlvsNEmutZcamKliTTt9uZzW/KBjzlXWj0rYb3qXnfPF53w695FaKl15eip2py2xlUuvo01Ax6v/in9L9sl93sLMwzipe7kpo7PZkj7x3k0S4T0jv2OvoAp5PEI3Vyb/hh0TbkZXTy8ILlWNqaWBEXsc90Fuqo/wDtU9YSf25eJZli64n0qYriVLJ/4jI7gx0kaL2LyPulE9V/0S+oIfv82/FYyni/P9r9tmP+c2OCKoexF+xR1vuSKvrd8ID+63155F/SvrbWzd5+F+gLa9umvby9wlu/QAJ4eu6d245n1xboZFzfhGRS1lOzj2o1s11qkRPgA/f+lZtNc/ay7eHdDJnrxkSS50TWuXy6pNQ1C/sgYvdoPCq6VqPl94iy666dvvV4a3X1+708IFYUfhodHlNy99tvXXDTt94v93br6+5q4gKmpvD06OqRESLZakeidnfXa8zr8Ky17gPdp+hbpJpvwex1gdp+2uqpf9pO4D04+i3pUiTRuxGKLwRPbo+fs+2coHc/uddLScP7BcM/9Mh/wAP7nfS1/wCwuGf+lw/4AOKTo16V5OLthsPThp7NvYz7nQDzp+iHpOqE0k2LxtuvD71HNF/s5WgeNP0B9IFRr3myVrbr+1Vtzi/2dW0DX162Niabp96gMqw+yUL6HC7uyK/YJE575EZba3X7w18jnPclPOyWFFc5XKjEVy6qEsTAAAABywzS080VRBIsU0D2yQytXRWuaurVRfOioQmNjaiwXJoM0wnEMvplasGUWahusaN7E97gZNy+jRXaKhx9yjgqmnml3FqvjoirnjFVZ4ewAAAvPtxcEmttTbnO9uil540/zcvH5HIvxl/pV3GiaOae9zes2eG5FfPHvhcYtVMjX629pp4a+i3as1Kr6SsZFb8uSNNe7mYiMpal2nke1EiVV4IrWJ2uKTVMvt+5HW7r0pqMTTOWqnbG2n4x8e1HsU7swABVWE4des+ymzYlYIFnuV5qGwxuVFVkTO2SaRU7GRsRXOXzIZLVublUUxvlr5vM0Za1Vcr3RH4jrTx4fi9swnF7DidnYrbdYKOKkp3KiI5/IntSP0+ue7VzvSqnWW7cW6YpjdD5DmcxVmLtVyrfVOK0ebXBK/IKpGO5oqJEpo1+01V37JVOb1C79y9PNGz8dbp9Ms/bsRzzt/HUpI0m+AAAAAAAAAAAAAAAVfg9wSgv9M17uWKuatM9V879FZ+yREN7TrvBej27Ffqln7lieeNv46lydxcJt+4uE5FhlzVGU98pHRRVGmqwztVJIJkTyrHI1rtPLpodDetRdommeVzmSzVWVvU3aeSe2OWOuED+TY5d8Qv92xm/UrqK72WpfS11O7s5mLwc1eHM1yaOa7sVqoqdpyldE0VTTO+H12xfov24uUTjExjDwzwzAACSfok2mnoqe47sXqlWJ9xifbsSjkTRe45v95qkRfI9zUjYvmR/kVC70vL4Y3J6nDeq9RiqYy1E7ttXTyR8Z6khRcOLW33HuCQ2+ktzHe3WS95In6SLz+typ8RU6tdwoijn+C50azxXJr5o71mihdIAAAGvf13ZG3IOpXNIY395T45TW20QOReGsVJHNKn6mWZ6fAdNp1PDZj24uU1Svivz7MIYem8rgAAA7lut9bdrhQ2q2076y43OoipKCkjTV8s0z0ZGxqedzlREA2fcN8N7pRs2M45Q5HtdFkOS0VspIchvkt4vKJWV0cLG1FR3TK5kTEkkRzuVjGtTXRERAhXdP0F9IlLp3WyFndp+3VFfN/tKlwHsxdFHSlDpybE4sui6+3TOf929QO6zo46WWJo3YbDVTt9q2xOX411A+v7nfS1/7C4Z/wClw/4APl/Rx0svTlXYbDUT9LbYmr8aIigdKXop6UpdefYnFk5u3kpnM+LlemgHkT9B3SNUa95shZW6/tU1dF/s6loHgVXh1dG1XqsmzUUTl8sF7vsOnwR3BqfIBS9d4Y/SFVovcYPdbZr2LTX24u0/180oFHV3hQ9L1VxpK/OLO7XVj6O707lavo94opgYvO/6XuH2v+h/UHupjfL+C/8AMqd/L5v3PBShL8/uF7/2Xjh/XruLb44/wNBcG11VF6NUS8NYn+rUIF6ePEZxzjiXWHZL5ycGMyG2NVHIn2SzW+4rxAa+K1ivHl2s3L7ryfe4O80/9K7fgCX5/ea8QLEv6c9F1LkSRfhlxW4q7m07eRKae7L9UIfn/Urq8X47udKW6G3bWfuh6Ui1CMTyqi10FsRU+ICvsa8TzpJv6xtuGV3rEHy6IjLzZat2ir5HOoG1jU9eunpAyOxXqj6c817puN724bW1E2ndUEt2pqSqdr5qapfFL+xAvlS1VLWwRVVFUxVdLMnNDUwvbJG9PO1zVVFT1Ac4AAAAAAAEdW4nSn1R7oZ3l1fcOsS94Pt1cbrUz41iuN00sM8FulkV0NJLJSz29F7ti8nM7vFVE9pXKqgeLZfCy2E96S6Z/lmdbm3iTT3upu11ZDHIqcf/AA8LZ019MygxZD4r0RdKGHd2tp2OxurdFpyvvUUt6VVTyr9JyVQGQ1gw/EsVi7jF8XtGNwacvc2uigo2aeblgYxAKiAAAAAAAAAAAAAAAAAOlVXO20OvvtwpqPTt7+Vkf3SoBFN4ouBYVuVtBbdwLDktjqM22rqnSuooq+mWpq7PXOZHVxMjSTme6KRI5kTyNSTRNXBMNeYAAAAAJ8/D/wA+Zl+wFusU86SXPb64VNmqGOXV60z3e90r1T7HkmWNv4tTm9St8F3Hn2uq0q7x2cOWNjN8r1kAAAFQ4vd/oW8U9S9dKaX7zVp/m36cf1K6KbWTv/ZuRPJulqZ7L/ftTTG/fHSyLRUciOaqOa5NUVOKKinVONdC7Wq2322V9mvFFFcbXc4H01fQzN5o5YpE5XNcnpRSKqYqjCdz3buVW6oqpnCY2xKJ3e3pNy7Ba2svWDUVTlmGSOdIyGnas1woWrx5JompzSMb5JGIvD56N7V5/NafVbnGjbT74fRdK9R2sxTFF6Ypr/6Z6J5OjsYhPY+J745GOjkjcrZI3IqOaqcFRUXsVCudLE4q3wfbXN9x7iy24fj1Xd3q9GT1jWKylg1+umqHaRsRE48V1XyIqmW1YruzhTGLUzees5Wniu1RHfPRG9LbsB0/WfZi1S1dTLFeM2u0SMvF6a1e7ij1R3u1LzIjkjRyIrnKiK9URVRERrU6DKZOLEY76pfONZ1mvP1YRsojdHxn29y9+RXdlltVTWKqd8qd3SMX66V3zfi7V9CGXNX4s25q5eTpV2Ty837kU8nL0Mb3Oc9znuVXOcqq5y9qqvaqnJzOLs4jB+AAAAAAAAAAAAAAAAPpj3Rua9jla9io5jk7UVOKKgicCYxjCWSOP3Zl6tVNWtVO9VOSqYn1srfnJ8PanoU6zK34vW4q5eXpcXm8vNi5NPJydDHrqG6crbvDRsvdmlhs+eW2Hu6WvkRUgrYm8WwVKtRVTT6x6Iqt7FRU7MOcyUX4xjZUttF1urIzwVbbc8nLHtj4wiczHAcywC4vteYY9WWOqa5WxvnjXuZtProZm6xyJ6WOU5+5ZrtzhVGD6Llc5ZzNPFaqiY/G+N8KUhhmqJY4KeJ888zkZFDG1XPc5eCI1qaqqqY4jFsTMRGMs0djOkbJMsrqLIdyaGfGsShc2ZtlnRYq+4ImioxY+DoI1+uc7R6p81OPOlnldOqrnir2R75cvq3qS3ZpmixMVV8/00+M+7n5kqdFR0luo6W30FNHR0NDCyCjpIWoyOKKNqNYxjU0REaiIiIhfRERGEPntVU1TNUzjMuw5zWtVzlRrWpq5y8ERE7VUmZweYjFjnk13+mrvU1bVVadn3qkT/Ns7F/VLqvwnKZy/wDeuTVycnQ7LI5f7FqKeXfPSp81m2AAOKeeGlgmqaiVsNPTsdLPM9dGsYxOZznKvYiImqiIxJnBqzbj5XJnW4GbZnIrtcpvlfdGNd2sZVVD5GM4+RrXI1PUdhao4KIp5ocReufcrmrnlRZkYgAAAzZ8P3CcayzqVw+8ZnerXZMZ27R+U1U11qoKSOerola2ghjdO9qOelS+OXlTX2WOA2fKXOsJrdPcsxsdXr2dzcKaT7mRQhUVPV0tW3mpamKpana6J7Xp8bVUDsAAAAAAAAAAAAAAAAAFAZNtRtdmiSJmG2+L5V32veOu9ooq1V18us8T119IGOGVeH10i5Z3r6naGjstVJry1VjrK628ir9jDT1DYPjjUCxlV4X+F49US3DZnfTcfaW4yO52SUte2eKN3kVqUyUE3D0zKvpBiv8AdOey3UZtRlN8/tU6iZ958FltS01gt9dSrFWxVyzxOSplkm7+X2YmPaie8ORebVUVURUDMMAAAAAAAAAAAAAAAAAonJdy9uMMR65huBjeKJHxk+mLrR0PLp5/eJWaAY/5F129JGLrI24732OsdHqnLaI6u7ar5mut8FQ1fXroBY69eKn0w2+b3ax0uaZnUPXlgZaLOxnO7yaJXVNK79jr6AnB4X/UXzfIP+GnRlufmbJPwM0sFRTMVF7Fc6loK5qJ8IH7/eW8QbJuOHdF9HY+8/BfzjuXJy69nN7xU2z9AIEunitZNx/m5tZt53nkWSOfu9fVVXPs+EB/Y14nl+/j3qiwjHKeTj7vZ7bC97NfJzfQkDtf9IoSf3NOsK+cck69cltnN+EbZaGrj+Bqw3Gi0+IIfv8A06s4uf8ASzrR3UyHm/C/71Us5v8AX3CpAf8ASu2puH9Jd5t077r89HXShajvX31DOE4u/S+E/wBL1Pp31wzivXyrPdqVNfX3VDGEYqkpfC76SqfTvscyCu07e/vdSmv+q7sCCnq36fq/pw3pyPBe7mkxard9K4Hc5dXe8Wmpc7umq9fnSQOR0Mi+VzFdpo5AljKAAAAM9PD43UZg28kuG3Gp7mybnUrbc3mXRjbpTK6Whcv26OkhRPK6RpW6nZ47fFG+nuWuk3/t3eGd1XfyJ3jnXTgAAAAvBguTtmijsldJpPEmlBK5fnsT/Jqvnb5PR6i903OYx9urfyeDndVyPDP3aI2Tv8VzS3UgB4dfjON3WdKm54/bbjUpppUVVJDM/h2e09iqeZopnfEMtF+5RGFNUxHsmXrU9PT0sMdPSwR01PEnLFBE1GManmRrUREPURgxzVNU4zvfU0sUEUk00jYoomq6SRy6I1E7VVSKqopjGdxTTNU4RvY/5XkLr9X6xKraCl1bSRrw117Xqnnd9Q5jO5r79ezyxu8XXZDJ/wAejb5p3+CljTbwAAAAAFOZZlFsw2wXDIbu9yUlAxFSJmiySyOXlZGxF01c5y6fKvAMtq1N2qKYYUXXqYz2rrnzWynt1qoUd95ou5Wd3L5Ekkeqar6Wo31E4LqjTLURtxmWQW0G88O4bp7PdqSK2ZJSRd+jIVXuKmJFRHOjRyq5rmqqatVV4cUXt0hX5zJfZ2xthfgNAAAAAAABVeJ5E6w1335Vdb6rRtWxOPLp2SInnTy+g3clmvsV7fLO/wAWhqGT/kUbPNG7wX+iljmjZNC9skUrUdHI1dUci8UVFOmiYmMY3OSqpmmcJ3uOqpKWtgfTVtNFV00iaSU8zGyMcnpa5FRRMRO8pqmmcYnCXm27HMetErp7TYbdbJnao6akpYYXLr26rG1qkRRTTuiGSu/crjCqqZ6ZmXtHpiALYZ3k7Yo5LJQSazSJpcJWr8xv7Wi+dfL6OBT6lnMI+3Tv5fBeaVkZmfu17uTxWhKN0IAAAYv9Yu4jNuOn7Oq6KdIbrktP/NuyJro501zR0UqtXyOZTpLIn2pt5G19y9HNG3saWoXvt2ap5Z2drXNOpcgAAAACejpG8ObaDL9iMUzPe3GrhccyzZH3qkZFcauh9ztdQjfcYVjgkY1VfE1JlVzeb75y/WgX/qfC06T59e6tGTUWv7TepV0/1rJAhTtT4TnTNI5H0l/3AtUifNkpLtQ8yepZrdIDF1/+l3hNv44xv9upYnN/Br9JUz+XzfgaenAf9Prdy2/0V66t0bEjfwbJJa6dnqVsV3p0VAH90zrgsf8ARvrlrrqrPwf01bpXa/bd9NXfohJ/Zt4p1g40W/u3GY08f4OnrqGGCVfWrLHF8soH5/PTxVca9mfaTbLcCFn4SWnqoqeVyJ5W892ok1/UL6ggXq462sX/AKZ9DFzvaR/hVxqvnlVfS1KaC56+pAH/AFMqbHuO5vTBungiR/uhVoUlRnn/AHa239np0CVaY94ofSVeuT6RyO/4kr+1LtZKmTl9f0d778gQvxjfWR0tZXyJad9cSidJp3cd0rm2l6qvYiNuKU66+jQC/VjyjGsmg96xvIrZkNNpze8W2rhq2aL5eaF70A90AAAAAAAAAAAAAAAAAAAAHFPUQUsMtTVTR01PA1XzTyuRjGNTtVznKiIiekDHPN+sDpk28WWPJ96sZjqYNUnoLZVfS9UxU+tfT21tTI1fQrUAxevXikbKz1j7Pthged7sXpf3NBarY2CGTyJxlkWoTVf/ALdQPK/vRdem4Kf/APLujJuIQTfgqzOKySNWtX69WVT7KvZx0RF+EJE2z8T3cL28k3xwnaS2T/hbXYqSOoqo9fsXsoZXcPRVhB/06c5zDjvN1h7j53DNxqLbRyy0kDUXtYxKurro0T1RInoArjGvC86TLFyLc8eyDM3s4q+83qoj5l87ktvuKfIBkBjnSB0v4qjPojYnDnui07ua42yK5ytVPKklek79fTqBfKyYtjONRdxjmO2zH4NNO5ttJDSM083LCxqAe6AAAAAAAAAAYT9dPTDD1JbRVEVkpo/7S8GSa6YHUro11Q5Wp7zbnOXREbVNYiN1VESRsaqqN5tQ1X6qlqaGpqKKtp5KSso5XwVdJMxY5IpY3K17HsciK1zVRUVFTVFCXAAAAdugr6y1V9Fc7dUyUdwt08dVQVkS8skU0LkfHIxfIrXIiopExExhKYmYnGGyz087w2/fDazHs2p3xsuyx+45Xb4//DXSna1KhnL5Gv1SRn6RzfLqcpmrE2bk08nJ0OyymYi/birl5ele412yAAAH61zmOa5rla5qorXIuioqdiooicCYxXVx7cBrWMpL7zLy6NZcWprqn+canH4U+Lyl1ldTwjhudvioc5pGM8Vrs8FzqWspK2NJqOpjqY1+vjcjk+HTsLei5TXGNM4qO5bqtzhVExLsnt4eLdMhtFoa5aysYkqdlMxeeVfRyp2fDohr3s1bteaerlbNjJ3b0/LGzn5Fmcky2svzlgYi0luauraZF4vVOxZF8vq7E+Uoc3nqr+yNlPN4ukyWn0ZfbO2rn8FJGisAAAAAAAGOvU1R1tTt9ST0zXOp6C7wTXBG66JG6OWJrnehHvanrVBCx0yYi7t5YYCkr9efp/o62q3SsMtIju7oI6uor5E7Gw+7vj9r0K97W+tRLS1CYizOPsSOkOcAAAAAAAAKvxvLqyxKlPIi1ducurqdV9pmvasar2ers9RvZTPVWNk7afxuV+d0+nMbY2Vc/ivLbMgtF3Y1aKsY6R3bTPXklT0ci8V+DgX1nNW7vlnq5XN38pdsz80bOfkeybDWdWqraShjWasqY6aNPr5HI3X1a9p4ruU0RjVOD3btVXJwpiZlbDIdwEeySksXM3m1a+4uTRdP821eKetfi8pT5rU8Y4bfb4LzJ6RhPFd7PFaxzlcqucquc5dXOXiqqvlUpl9EYPwAAAAQleIzu2zKdxLNtfaapJbVt7Cs967t2rX3ata1ysXTgvcQcqJ5nPe1ewv9LscNE1zy9zm9XzHHXFEbo70cRaqcAAAMu+ijp2qOoze6x4/XUj5MExhWXvcGrRFRnuMD05KTm+zq5NIkRF15ed6fMUDbAiiigijhhjbDDC1GRRMRGta1qaI1qJwRETgiIEOQAAAAAAAAAAorIdttust5/wCdeA45k3e6959LWqkrebXt17+J+oFh8k6HOkzK+8W57G49SLJrqtnbPZtNfsUtstMifABYS++Ff011s/vuL3LNMBr4lV9JPZ7u2RI3eT92wVEmieh6L6QYvC/uL9ReF+3tP1v5nRQQ/uSw5DHU1dK3Ts1Va2WJPTpTAfP0d4qm3XGnvW22+tND+CgnZDRzvYnYjl7uypzaf5xfWoSL1s9Ue3+jN5eifJG0sX7tyHFJp6ulj07V5Y4KyLTza1KAVjinih9L18mSjyarybbavY7u6mnyCzyyJHJ2K1XW11aqJr5XNb6dAhlvg/UDsfuV3LMF3XxbJKqfTu7ZS3OnSt49nNSPe2duvpYgF3wAAAAAAAAAABjju/1adP2xdbPZ9xtxKS2ZHBEyZ2L0kU9fceWVvPHzQUscix87V1asitRU466AYiTeIzk24k0tB009MOb7oqrlibkVxidR0ETkXTnf7qyrby6/tk0Xp0XgB8fQ3ii7vcblkGDdOVkqfw1HQtirK9Il7OVzEujkfpxXSeJfV2BLnp/DRhzKaKu6gepDcPd2rRySvpEqVpKVHdvIiVklxdyp2JyKz0adgGRmD9CXShgPdPtmzlnvVXHorq3I1mvbnuT65Y7g+aFq/aMRAhlHZrBYscomW7HrLQWG3x/g6C3U0VLC3Thwjia1qfEB6wAAAAAAAAAAAAAAAAAAgx8TPo4kpqm5dSe2dqV9JUr3u7VhpWcYpV0RLxGxv1r+yp07F0lX50jkJQnAAAADLLpE6h5thtwkS8TSSbfZasVHl1M3V3u6tVUgr42pxV0CuXmRPnMVyaK7l00s7lfv0bPNG7wb+n5v+PXt8s7/ABbC9HWUlxo6W4UFTFW0NdCyooqyB6SRSxStR7JI3tVUc1zVRUVF4ocxMYbJdbExMYw7IAAAAAfcckkTkfFI6N6dj2KqL8aExMxuRNMTsl2n3K4yN5JK+pez7F0r1T4lU9zdrnfVPa8RZtxtimOyHSMbIAAAAAAAAAOpX0FHdKKqt1wpo6yhrY3Q1VLKnMx7HporVQPVNU0zjG9jNdelrG6mtfPasjrbVRPdze4yRMqeRF+tZIrmLonk5kVfSoxWVGqVxG2ImV5cC23xrbuimprJDJLVVfL7/dKlUdPNy9iKqIiNamvBrU+NeIad/M13pxq7FfhrgAAAAAAAAAB3WXK4xt5GV9Sxn2LZXonxIpki7XG6qe1jmzbnfTHY6skkkrlfK90j17XuVVX41PEzM73uIiNkPghIAAAALL7+7w2nY7bK/ZxcFjmuETPdMYtb10WsuczV7iLTVF5U0V79OxjXL2mfLWJvVxTHX0NfNZiLFuap6ulrT3m8XLILvdL9eat9fd71VzV10rpV1fNUVD1klkd6XOcqnV00xTGEbocbVVNUzM75eaenkAAelZ7RdMgu1ssVkoJ7rebzVQ0NqtlMxZJqipqHpHFFGxOLnPc5ERANrro16arf0zbQ2/G6hkNRneRrHddw7tFo5JK5zNG0sb/LDStXu2eRV55NE51QIZZgAAAAAAAAAAAAAAAAACjcr262/wA8hWmzfBrBmECt5e6vVtpa9ETzJ7xG/T4AMR848ODpLzXvpYtvp8Lr5teavxq4VFHy6/Y00rp6VunohAs+vQLvPtr9/wCnfq+zDGKem/ceK5Ir6ygXT5veLDIlPw7P3G4Jfn8+fE62h4ZVtphvUJY6X903ewSR01fIiftccLqN+qp5qFwHrWLxOtu7VcIrBvrtRnOxmQu/DwXOgkq6aPTg5VXu6erXRfNSqEM59r95trd6bRVXza7NbdmVuoXxx3B1G57ZaZ8qK6NtRBK2OWJXIiqiPYmui+YC5wAAAAAALV37Y7Z7KszZuFlO2uPZLmcdJDRQ367UMVbLHDTue6JGNna9jXNV66Oa1HeTXREAufBBDTQxU9NCynp4GoyGCNqMYxrU0RrWpoiIieRAOUAAAAAAAAAAAAAAAAAAAAAABwVVLTVtNUUVbTxVdHVxPhq6SZiSRSxSIrXsexyKjmuRVRUVNFQDW869uhuu2LvFbujtnbpa3Zy91PNW0ESOkkxyqmdwgl7VWle5dIZF+av3t/HkdISjKAAAAEk/Rb1fs2/fQ7T7n3FUwipl7vFslndqlolkd+AncvZTPcuqO/ySrx9hdWVOfyPH89G/ljn/ADXOnah9v+3X5eSeb8k1Eckc0bJYntlilaj4pWKjmua5NUVFTgqKhQujfYAAAAAAAAAAAAAAAC3LN1cKkzB2DNubvpxsq0+ixu7hahqarCkvZzp2ebXhrrwDZ/i3Pt8eGxcYNYAAUZmme43gNDTV2RVT4W1sqxUdPCxZJZHNTVytankai8VVfN5VQM9nL13pwpVBZrxbsgtdDerTUpV264xJNSVCIqczV4cUVEVFRU0VF7FDHXRNFU0zvh6YeAAAAAAAAAAAAAAADzLzebVjtpuN9vlwgtVntFPJV3O5VL0ZFDDE1XPe9y9iIiE00zVOEb0VVRTGM7oa8XVX1E1+/wDnzquiWakwPGlkpcNtUmrXOY5U72smb5JZ+VF0+tajW9qKq9Pk8rFij2zvclns3OYr2eWN3ixdNxogAABP54bnRbLg9HQ9QO6dp7rL7tTc+3ON1ceklro52aLXzscmraidjtI29scaqq+0/RgTBhAAAAAAAAAAAAAAAAAAAAAAAA8a+47j+UW+W0ZNYrfkVpn/AA9sudLFV07/ACe1FM17F+FAKX2/2p242pprxRbb4Za8Lor/AFv0jdqG0wJTwS1PdtiR6RN9liI1iIjWIjU82qqBcEAAAAAAAAAAAAAAAAAAAAAAAAAAAAAAAAAOjdLXbb3ba+z3mgp7rabpTyUtytlXG2aCoglarJIpY3orXNc1VRUVNFQDXe63PD1vO0E113R2aoKm/wC1TlfVXvHWc09djyL7T3eV81I3yP4ujT8Jq1O8UlFeAAAAM+elvrYvu0KUOD7he85Nts1WxUFS1e8r7M1V4dxzL99gTyxKurU/Brw5HVuc0+LvzU7Ku9a5HUps/LXtp98JtMSzDF88sNDk+HXykyGw3FvNSXKjej2KvlY5ODmPb2OY5Ec1eCoinP10VUThVGEukt3KblPFTOMKlPL2AAAAAAAAAAAAAAwE35w+44bnLMxtXPBQXypbX0lbH/4e4MVHyNVfIquTvG69uq/YqSv8hei7b4J3xs6mUe126tm3CtcLFmio8mpo0S6Wdy8rnOantSwIvFzF7eHFvYvkVYVeaytVmf8Al512A1HlXm92nHrdUXW918Ntt9MmstTM7lT0Nana5y+RERVXyB7ooqrnCmMZR7Z7ld33nzuhorJSSLS8/uOOW93ajHLq+aXTVGq7TmcvY1qJ5tSXQ5e1TlbczV0yz+xTH6bFccs2O0jueG00rIFl007x6cZJFTyc71V3wkOfu3JuVzVPKqAMYAAAAAAAAAAAAADxshyKxYnZbjkeS3WmsljtMKz3G6VciRwxRp5VcvlVeCInFV0RNVU9U0zVOERjLzXXFEY1ThEIJurTq8um+NdLh+HuqLPtbbp0c2J+sdReJo3atqKpv1sbVTWOJez57/a5UZ0OSyUWY4qvN3OYz+oTfnhp2U97B8sVYAAAE2fQL4fk9RNZd8d+LI6ClhdHXYBt1XR6OmcntRV9yhemqMRdHRQuTVy6OenLo1wTmBAAAAAAAAAAAAAAAAAAAAAAAAAAAAAAAAAAAAAAAAAAAAAAAAAAAAAAAAAAAAAAH45rXtcx7Uc1yKjmqmqKi9qKgEP3V74ZdozR903F6eKekxvKpeepu+27lbT2y4P4uc+3vXRlLK79rXSFy9ixceYlA9kuM5Fht8uWM5XZK3HchtEywXOzXGF9PUQSJ5HxyIipqnFF8qcU4AeGAAAXX2o3r3H2Vvf01gOQy23vnNW52eX79b61rextTTOXldw1RHJo9uvsuaYL2XovRhVDYsZm5YnGifBL9sp4gG2GfspLPuIjNs8pfyxrU1L1fZqh/ZqyrVNYNeK6TIjU7O8cpSZjTa6NtO2Pev8ALarbubK/ln3M9aWqpa6mgrKKpirKOqY2WmqoHtkjkY5NWuY9qqjkVOxUUrZjBaxOO2HYAAAAAAAAAAAADxr/AGC05PaauyXujZXW6tbyywu4Kipxa9jk4tc1eKKnYHu3cqt1cVO9hLmPTzmONVrrjhkr79b4n95SrC9Ia+DTimrdWo9U8ixrqv2KEruzqFuuMK9k+5TjM136tDfcH1WRxOb7PJVUT5Zf180Lnr8YZfs5arb8va/Kbb3eTcqtinvFNc3R68LjfXyQQxNXtVjJfa09EbFBOYsWI2YdTLzbHaOx7c0zqhr/AKUyGqZyVt4e3l5WrxWKBvHkbr28dXeXyIkKjNZuq/PNHMu2GmAAAAAAAAAAAAAAxr3w6qtqdjKaopb3dkv2XozWkwq1vbLWK5U1atS7VWUzF4cZF5lTi1r+w2svk7l7dGEc7TzOet2N84zzR+NiEXffqV3H39uqS5LWpa8Yo5VksuGULnNoqftRr5NdFnl0XjI/zryIxq8p0GWylFiNm/nc1ms5czE/Nu5mPZtNQAAe1juOX/Lr3bcaxazVmQZBeJm09rs1vhfUVM8ruxscbEVy8OK+ZOK8AJ++jLw3rTtnJatzt96WkyLcCHkqrDhGrai3WWVPabLUOTVlTUsXTTTWONeLed3K9oS1BAAAAAAAAAAAAAAAAAAAAAAAAAAAAAAAAAAAAAAAAAAAAAAAAAAAAAAAAAAAAAAAAAAx33+6W9n+pCze4bh4636apYVisuaW7lp7vQ66qiR1HK5HsRVVe7la9mvHl14gQDdRvh3b27GPrr7j9FJunt7BzSJkdlgetbSRJx1r7e1XyR6JqqvjWSNE4uc3sCWAIAAAAu/tnvzu1tDM12BZrXWmh5+eaxyOSpt0iqvtK6knR8Wq+VzWo7zKYL2Wt3fNDYs5q7Z8k4dyQ/bfxM4VbTUO7GAuY9NGzZDjMiOaq9mrqGqeip51Vs6+hvkKu7pP6J7fFb2da5LlPXHh+bOjA+qDYbcfuY8b3JtLK+fRGWe5yLbatXr9Y2GsSJZFT/N8yekr7mUu299M96ztZ2zc8tUdy/bXNc1HNVHNcmrXJxRUXyoazafoAAAAAAAAAAAAAAAAAAAAAAAAAAebdbxaLFRTXO+XSjs1tp01nuFdPHTwMT9NJK5rU+FSaaZqnCEVVRTGMzgw93I69NhMEbUUtmvFRuJeYdWsorBHz0vP5Oeul5IVavniWT1G9a027XvjCPar72qWbe6eKfZ4o4N3OvXefcdlVa8bqI9sscn5mLS2aRzrhJGvkluDkbIi+mFsXp1LWxptu3tnbPt8FPmNUu3NlPyx7N/awklmlqJZZ55XzTzPWSaaRyue9zl1c5zl1VVVeKqpvq1xkoAAGanTf0Jb2dREtFd6e2OwTbudWvlz29wvZHNEvatvpl5JKtVTXRW8seqaLI1QNhLp16Tdoemmz+74RZvf8orIUivmeXNGzXSr7Fcxr0RGwRKqJpFEjW8EV3M5OYIZMgAAAAAAAAAAAAAAAAAAAAAAAAAAAAAAAAAAAAAAAAAAAAAAAAAAAAAAAAAAAAAAAAAAAAAws376Cun7fl1Zd63HlwbNqrmeuZY02OlmmlXjzVlNyrBUar85zmJIqcEkQCGje3wzOoXa11Zc8QoYd4MWg5nsrcfY5l0ZGnYs1rerpVcvmp3TBKPa4W+vtNbU226UNRbbjRSLFWUFVE+GaJ7e1kkb0RzVTzKgHTAAAAFxsO3e3R2/ViYXuBfscgjXVKGjrpm0q/bUyuWJ3wtUxV2KK/NTEs1vMXLflqmGT2K+IV1EY+kcd2rrHmkTNEX6XtzYpOVPM+3upOPpci+nU069Ms1bsY/HtbtGrX6d+E9MeGDITHfE/ciMiy3aRHO4d7W2i66J6dKeenX/AGprVaR+mr3NujW/1Udkr2WPxHthLkjG3S25Vjsq/hHVNDBPEi+h1NUyuVP1CGvVpV2N2EtmnWLM74mF2LT1q9Mt4Rnc7o0tHI7tir6G4UitXzK6amaz4nGGrIX4+nubFOpZefq71xrb1B7FXZG+47w4bI5/zYZL1RQyL/o5ZWu+QxTlrsfTPYyxm7M7q47YVvQ5xhVzRq23MLJcEf8ANWmuFNLr6uSRTHNuqN8SyxdondMdqpYpYpmJJDI2WN3zXsVHIvwoeHtyAAAAAAAAAAHFLPDTt555mQsTtfI5Gp8agxU1W51hFt5vpHMbHQcvzvebhTRaevnkQ9xbqndEvE3aI3zHaom49QWxVqR3v28OGxvZ86Fl6opZE/0ccrnfIZIy12fpnsYpzdmN9cdsLc3brV6ZLOj0m3RpqyRvzYqChuFXzL5kdDTOZ8bjLTkL8/T3MVWpZen6u9aO++JBsPbUe20WrKsjmT8E6Cigp4V9bqipjeifqFM1OlXZ3zENerWLMbomVi8l8T64vbJFh201PSuTXuq683N86L5uanp4YdP9abNGkR9VXZDVr1qfpp7ZY25f159R2VJJFS5PQ4dSy6o+msFDFEui+aep95nbp52yIbVGm2aeTHpadzVL9fLh0MWclzHLczrfpHLsnuuUV/HSrutZNVyJr5Gume5UT0IblFumiMKYiGjXcqrnGqZnpU2e3gAAfTWue5rGNV73qjWtamqqq9iIgGbWyfh+9R+9C0dwZii7fYnUq1y5RlaPoUdGvHmp6NWrVTat4tVI0Yv2adoEzWwPhu7DbNOo73k1Iu7maU/K9t2v8DPo6nlb9dS2xFfEnHRUWZ0rkXi1zQhIO1rWNaxjUYxiI1rWpoiInYiIB9AAAAAAAAAAAAAAAAAAAAAAAAAAAAAAAAAAAAAAAAAAAAAAAAAAAAAAAAARTdc3iCXzYLLX7R7WWOhrc2p6GCryPJ7ux01Nb0q2d5BDT0zXM72VY1bIrnryNRWpyvVV5SUROQdcvVlktTJVV2+GQUbpFVUhtKwWuJqL5GsoYoE0QDpWjrX6rrJM2ej31yiZ7XcyNr6hlwZr6WVjJmqnoVAModuvFh6hcYlghz20Y9ubbW6e8yS0/wBEXB6J28k9EiU7dfTTOBglE2M8Rjp53mmo7LcbvLtfmFWrY47Fkzo4qaeVeHLTXFq9w/VVRGpIsb3LwaxQhnsio5Ec1Uc1yatcnFFRQP0AAAAAAAABaTdDYbZ3eek903O27s2WubH3UFxqYO7r4WL9bDXQrHUxJ6GSIBGhup4Q+CXZam4bP7i3HEKl+r4sfyCJLnRar2Rx1MXczxNTzvSZQnFHVuV4dvVXtus8/wDZ/wDz8tUGul1xCdLnz6fY0fLHW9n+YAwzvFkvWO181qyC0VtjulMulRbbhTyU1RGv6eKVrXJ8KAeWAAAAAAAAA5YZ56d3PBM+B/2cblavxpoRgmJwe3BlmVUqIlNk11p0TsSKtnZp+teh54KZ5IeouVRyy9WPcncWFOWLPsjib5mXWranySkfao5o7Hr71f6p7XcZu1urHrybm5WzXt5b1XJr8UxH2bf6Y7IT/Iufqntl9/2vbs/+6GW/+t1//fD7Fv8ATHZB/Iufqntk/te3Z/8AdDLf/W6//vh9i3+mOyD+Rc/VPbL5fu3us9ER+5uWPROxHXquX6sw+xb/AEx2QfyLn6p7ZdaTc7cqXXvdwsmk5u3mu1YuunrlJ+zR+mOxH37n6p7ZdOTP87l173Nb9JzfO5rlVLr8cg+1RzR2I+7Xzz2vNmyXI6nX3i/3KfXt7yqmd9Vynrgp5kTXVPLLx5JJJXK+V7pHr2ucqqvxqS8vglAAAAAAADnpaWpraiGko6eWrqqh6Mp6aFjpJHuXsa1jUVVVfMgGV22/Q11SbnrBLZdp7rY7ZNoq3rJUbZadGO7JGtrVjmkb6Yo3gSG7W+D+1Fpq7efdTn00WoxzD4NE8+n0jXM19ColL6nAxSabR9KHT/sh7vUbf7bWyivVOiaZTXtdcLrzeVzauqWSSLm8qRKxv6UIZEgAAAAAAAAAAAAAAAAAAAAAAAAAAAAAAAAAAAAAAAAAAAAAAAAAAAAAAAAAAACITxH+ivJd06pm+u1FvkvWXWy3x0ebYfA3mqbjS0qL3NXRtTjJPEz2HRpxexG8ic7eV5LX/mhlp5ZYJ4nwTwPdHNDI1WvY9q6Oa5q6KioqaKigcYFyNoIcBqNzMNp90HvZgU9wazI3se+NEic1yM7x8ao9sfecveK1UVGc2iopmy8UTcjj8vK1s5N2LNU2vPhsZ9dXXT5sHjG1sW5W2dXQY/cYqmliordQ3FaykvENRI2N3cNkll9uNq95zRrpytdzIqqipa6hlLNFvjo2T073PaPqOauXvtXcZjbvjCafxuWz6W+v7dfp7qLfjl8qZ9xNq43MilxS4TK6qt8PYrrXVP1WLlTikTtYl7ERirzpSOqbG2z+8+3m+2GUWdbb36O9Wep+91dOukdXQ1KIivpqyBVV0UrdexeCpo5quaqOUhdMAAAAAAAAAAAUxlOE4ZnFCtszTErNl1uVFT3C9UFPXw8e3RlQx7fkAw8znw4OkzNlmmi2/nwuvn15q/GbhUUfLr9jTSunpW6eiEDETMvB3x2bvZdvt6bjbdNVhoMhtcNbzeZHVNJLScvrSFfUE4sW8s8KHqZsSySY/XYjm0CarDHQ3KWkqFT9Myvgp42r6pF9YGOWTdEPVhiayJdNjMkq+715ls0UV5RdPN9GSVOvwAWGyDb3PsTc9uU4PkGNOj/CNutsqqNW6efv42aAUeAAAAAAAAAAAAAAAAAAKwsG3ufZWrExfB8gyRZNO7S1WyqrFdr2adxG/UC+mN9E/VdlSsS17FZRTd5pyrd6dlnTj51uT6bT4QMh8V8Kjqjv3duvf808JjXRZW3S6uqZWp5dG26GrYq/q0T0gxZN4f4OtM3ups+3tklTh31tx+0JHp5+Wrqp36/DADFlphPhj9J+IrDLcsYvGfVcOitqMiusyt5k8qwUCUcLk9DmKgQzHwrarbLbeFKfANvsew1nLyPdZ7bTUcj0/wA5JFG171Xyq5VVQK+AAAAAAAAAAAAAAAAAAAAAAAAAAAAAAAAAAAAAAAAAAAAAAAAAAAAAAAAAAAAAAAAAYGb59F2xvVHUZNeKq3rg+4dFWSUzM6sTGMlqFa1Ea+4Uy6RVSK5F9peWTRERJEQ2Mxl5tRTPPGLSyecjMTciPpqw/HXig66iuhzfDp0Wqu95tDcvwGJy93ntia+aliYq6N99hVO9pV4oiq9O71XlbI5TXbzDgABJn0l9LOzu8m01wyfLJ7jX5HLdaq3y+41nu621IWsWNGxo1zXPe16P1kRyaKiInBdbnIZG1et8VW/Hscvq+rZjK34oowinCJ2xvWrbkG6Hh+9Qk6YdfVutslhp6uW3VGrKS/WWZ70bFWQtVUbIxzHsR7eLHormeyqotfm8vNi5w9i60/Oxm7MXIjCd0x7Wx1sNvpg/UNt3atxMGq1dS1f3i82aZzfe7ZXMaizUlS1OxzdUVF7HtVr28FQ1m6vMAAAAAAAAAAAAAAAAi069/Eax3pop6vbPbL3LLN8q2BPemSaTW/G4pm6smrmtX75UuaqOip9eCKkkujORkoavuZ5/mm4eTXbMs1yWvyPJr5O6oud2q5VWR7nLwRrW6NYxqcGsYiNamjWoiIiAU2lfXN+bWzp6pHf4QOVtyuqroyvq1XzNlk/QUDtMq8hd8yevd6lkUDstmypfm/SK+nlk/wAAHMjsuXsSv+FHfogcifzwX/6z4Ql+8uY//d/GgH7y5j56v40/wgfKtzBP/rPjCHC5+Wt7Ur/ga5fqIB1ZK7Io9e9nro9O3m52gdRbxdl7blU/61yfogfC3W6L23KqX/TP/wAIHGtwr3dtbUL65Hf4QMgenLqf3M6Zs6p8ywqpprpSTKxmQ4nd40qbfcYGrryva7V0UjfrJola9vZqrFcxwba3S11WbZdWGAMzHA6taG821IoM1ware1bhZqyRqqjJUTTvIZOVywztTlkRF4NkbJGwMmgAAAAAAAAAAAAAAAAAAAAAAAAAAAAAAAAAAAAAAAAAAAAAAAAAAAAAAAAAAAAAAAAAAAAAebeK9trtVwuLtP8Ac6d8jUXyuRPZT4V0Qy2Lf3K4p55YM1e+zaqr5omVjtrLo6G/1VFK9VS6wuXj2uliVXov61XF9q1rG1FUfTPun8Q5D07mOHMTRP1R74292K/80MNTDLT1ETJ6edjo54JGo5j2OTRzXNXVFRUXRUU5x2yGjrM8NO13mmu253Tjao7VfYUfVX7aynRGUlaie0+S0t4JDL2r3HzHdkfI5Ea8lBFU01RR1FRR1lPJS1dLI+GqpZmKySORiq17HsciK1zVRUVFTgBcna7eTcXZy61F2wDIZLQ+ua2O50L2MnpKprNVak0EqOYqt1XlciI5uq6KmqmaxmK7M40Tg1c1krWapwuRjh2w8/cvc/Mt3Momy/Obm253iSCOkiWOJkMUNPErlZFFGxERrUVzl86qqqqqqkXr9d6riqna9ZXK28tRwW4whfTpE6l8j6XN06G/PbVT4NkfcUe4OOaL/vNArtWVULHaJ39PzK+NfKnMzVGvVTFubGOLa2sV8tGTWW0ZHYLhDdbHfqOC4We507uaKopqliSRSsXyo5rkVAh6oAAAAAAAAAAAAAI8PEH6w6vpqwGnxfb9YanejcGnlZjMkqNkistCi93Ldp43IqOc12rKdjkVrpEVzkcyJ7HBqyVWO1l6uVfe8mvlXebzdqmWtu1xmkdLPUVM71kllmnlV75Hve5XOcvFVXVQnB3ocassOmlGki/ZSOc75FXT5APRjt9BDp3VFBHp5WxtT9ADtoiNTRqIieZAP0AAAAAAAAAA4JaWmnTSenimRe3nYjvqoB49TjFmqNf917hy/XwuVvycW/IBTVbhUzEV9BVJKnkhlTld8Dk4L8SAwUhVUVVQyd1VwPgf5EcnBfSi9i/AELubCb77g9OO5dj3P24ua0V3tTu6uNtlVy0V0oJHNWegrYmqneQyo1P0zXI2RitkY1yBuT9O+/eEdSm1OO7q4LUaUN2YsF5s0j2vqbVc4Wt96oKnRE0fErkVF0TnY5kjfZe0C94AAAAAAAAAAAAAAAAAAAAAAAAAAAAAAAAAAAAAAAAAAAAAAAAAAAAAAAAAAAAAAAAAAAAWy3TuPutghoGu0kuc7Wub544vbd+y5S10i1xXZq5o7/xLn/UV/gy8UctU+6NvfgsZZLgtqu9uuKKqJSVDHyaeVmvtp8LdUL+/b+5bqp54chlL/wBm9TXzTH5sv0VHIjmqitcmqKnYqKcW+nxOL9Ah68R7oogy+13bqC2qtCR5haIXVW5GO0jNPpWjibq+4Qsan7ohamsqJ+EYnN89v3wlAKBdLZGuxq27vbb12YxwSYzTZDQvu/vSI6BsffNRJJkdwVjHaOci8NEUzZaaYu0zVuxaueprqsVxR5sJwTv9Q+z+Lbwba5BbbrQ063q22+orMUv/ACtSejqoo1kj5Ze3unq1GyN10Vq+dGqnU5vL03rcxO/klwGm52vLXomJ2TO2OeFlvCv6o2ywTdNWbXNEmg764bVVlQ/57F5pay1oq+Vq808SebvU14MQ5B9JlNuEAAAAAAAAAAAApDP84x7bTCsoz7K6v3LHcSt09yus6aK5Y4Gq7kjaqpzPkXRjG/XOVETtA1Ct8t4sn343Pync3K5Xe+36pX6PtyPV0VBQR6tpaOHs9mKPRNdE5ncz19pyhK0gAAAAAAAAAAAAAAAAAA4Kmmp6uJ0NTC2aJ3axya/CnmUC298xeShR9VQ809InGSNeL408/pQDOfw2urGfps3uorHktz7jaXdOans+axzORIaCqVysobqiuVqM7h7+WZddO5c9VRzmM0Ibc4AAAAAAAAAAAAAAAAAAAAAAAAAAAAAAAAAAAAAAAAAAAAAAAAAAAAAAAAAAAAAAAAAAAAWh3at1TPR2u4xMdJBQuljqtOPIkvJyuXzJq3RV9Rc6PdiKqqZ3zhh1OY9S2KqqKLkbqcYnrw8FkKamnrKiGlponTVFQ9GQxNTVXOXgiF9VVFMTM7ocjbt1XKoppjGZZi0kK09LTQOdzOgiZGrvOrWomvyHFV1cVUy+pW6eGmKeaHYPL2/FRFRUVNUXgqKBrLeIp0ss2G3ObmuIW5Kba7cyeaptdPCzSG13RPvlVQIicGsdr3sKcPZVzGppEqhKOoC/dD1O75W/BJ9uKfPatcWnpHW9IZYoJaqOke3kdBHVvjWdrOX2URH+ynBuiG1GdvRRwcWxX1aXlqrv3Zo+bHHr6NyzFkvd2xq82rIbBcJ7Te7HVw11oulM5WTU9TTvSSKWNydjmuaioaqwbUfRl1YWHqe27iqKqWntu5+LwxU+e44xUbzP05WV9KzXVYJ1TXT/ACb9WL9a5xDMgAAAAAAAAAAAQveLhvdJbrHhWwdmq+SbIlTJ82Yx2irR08jordTv07WyTsklVF7FijXyhMIIQAAAAAAAAAAAAAAAAAAAAALa5PYUpHLcKNmlM9fv8Sdkbl8qehfkA2y/DV3/AJt++l/FZb3XrW5ttrIuHZbLK5FmmWhjY6hqn6uV7u+pHxI57vnytl8yhDP4AAAAAAAAAAAAAAAAAAAAAAAAAAAAAAAAAAAAAAAAAAAAAAAAAAAAAAAAAAAAAAAAAAAfLmte1zHtR7HIqOaqaoqL2oqCJwRMROyXQpLPaaCR01FbKWkmfrzSwwsY5dfJq1EUy13rlcYVVTMdLDbytq1ONFERPsiIeiYmcAAWV6hNlrD1AbS5btjfUZC6803e2K6ubzOoLnBq+jqm6cfYk4PRPnMVzOxygaheW4rfcHyfIMOyegfbMhxivqLZeaCTtiqKaRY5ERexU1TVFTgqaKnBQlTwEoPh0Y7t7fWbkyXuzW28ZhRPovdG3CCKofFbpGyI90DZUdprImkitT7BF7ULvR6KKuLGImfg5b1Jcu0cHDMxTt3c66PUrgU3Tldcf6oNglhwTJceuMVJlVmoo0Zba2mrF5NZKVvKzlkeiRysRER3Mj05Xt5lnVMnTTT9yiMOd50HU7lyv7NycdmyeXoSadKfWBt51QY011tljx3cW1U7X5XgVRKizRKmjXVNG5dFnp1cvByJqzVGvRqq3mo3VMuQAAAAAAAAADUW6wtzZN2+pHdjLm1K1NsZeprRj7kXVn0faf8AcqdzE8iSNh71U87lXyhLGkAAAAAAAAAAAAAAAAAAAAAD4ljjmjfFK1HxyNVr2L2Ki8FQCSDwfNx5sA6kcx2hrKpWWbdnHX1FpgVNe9uliV9XTrr5NKOSs5tO1UTzIENmIAAAAAAAAAAAAAAAAAAAAAAAAAAAAAAAAAAAAAAAAAAAAAAAAAAAAAAAAAAAAAAAAAAAAAAAAAAQb+K502LFPbepPFLf96n93s258ULfmvTSK33F+n2SaUz1XypD53KEwhIArDBM9yzbTJaHLsKvEtkvlBqkdTHo5kkbvnxTRuRWSMdpxa5FTy9qIpktXarVXFTOEsOYy9F+iaK4xiV8t4urndTezFKTDcmhs1qssU8dVXx2immhfWSw692s7pp5/Zaq83KzlTm4r2Jps5jULl+nhqww9jQyWj2MrXx04zPt5PdCwOI3vK8byO037CLjcbTlNpmSos9xtL5GVcMjfro3Re12aoqdipqi8DSiJnctJmIjGU2PTh4q1E9lHh/Uxa5LXcoFSn/tKtVM5YXqnDmuVuibzxO4e0+na5FX/JMRNQb0v+G51hm4dkp8kwXKbXl1iqkTurpaqqOqi101VjljcvK5PK12jk7FRAKrAAAAAC1W5e+O0Wz1E6u3M3DsuINRneRUVZUtWtmb2/eKKPnqJf8ARxuAiS6jvF5tttpHY507Yi+5XK5VCULc7yeN0NPEyRFa6ajt8UjZXuTVFY6Z7OVU9qJyAQhuc5zlc5Vc5y6ucvFVVe1VUJfgAAAAAAAAABOR4ePRjsfuVsqm6u6WLNzm9ZJda6ktdHV1FRFS0NHRSe76NigkjR8kkjXuV79dE5UajfaVwYe+Ij0z4V06bn40u3MM1uw7PbXLXUlgmmkqPcKqklSKojilmc+R0Tmvjc3nc5yKrk1000CPkAAAAAAAAAAvR00ZLJg/UrsHmkNV7h9DZvaaa51iLpy2y51DaC4Iunk92nfr6NQNxcIAAAAAAAAAAAAAAAAAAAAAAAAAAAAAAAAAAAAAAAAAAAAAAAAAAAAAAAAAAAAAAAAAAAAAAAAACnstxWwZzjF/w7KbdHdsdyahnt15t0vzZaeoYrHpqnFq6Lqjk4ouipxQDUi6mtgMj6b92L7t7eklq7W1y1uH5A9vK25WqZy9xOmiac7dFjlanzZGuROGiqSx+AASjeHHmGC26fNsSuDqS355ep4Kmz1VRyslrqKONUfSwPdxV0T0WRWIurkdzIi8i6Xej3KI4qZ80uV9S2btUU1xjNEb/ZPOyX61NpMEyzaLK85udFSWvLsOo0rbTkzWtjnl5Htb7nM9NFlbKjuRjXL7L1RW+VF3dSy9Fdqap3xy/BV6HnLtu/TbiZmmqcJj4oTsOzzNtvbq2+YJlt4w68NRE+kbNWzUUrmouvI90L2q5vna7VF8qHLu+Sd7UdZ3iG09hpb1TYXNuzjaxo+jr7zjkiunhRPnQTW5aKSfXyP9vVfOZ6MrdqjGKZmOhqXM9l7dXDVXTE9Kv6Xxf86s881vy7YG3PudG90VdSwXeqtr45G8HNdFUUdS5iovaiqYZiYnCW1TMVRjE4w79T4yVc6NUpOnmCCXRNHzZS6Vuvl9ltpjX5SE4PHuniWdXOS2Z95wLp7oqCwyMV7cg+h71d4mM+zZURvgg4edWqnoMkWbkxjFM4dEsFWZs01cM10xPNjGLBzcDrq6rdwm1FJed3btZKGTVjrZjzYrI1rV4OYslCyGZyeRUfI7zGNndXpT2atXUHuhc6LOL1VyWyz2995vETJ199uL++jiSNZn8zkarpNZHpq7Tgmiu5k3shlab9zCrdEYqrWM/VlLMVURtmcOh6PX7tntptduHs9jG3eMRY331prbheEinqJ1naszY6dz/eJZF1b3MnHtXXjrommbU7Fu1VTFEYbGroOavZiiuq5Vjt2bmHxVr8AAAPSs1numQ3e12Cx0E10vV7q4aC02ynar5qipqHpHFFG1O1z3uREQDM7q06Qf7rGF7H1V2yKa9ZxuFDeX5nRxpH9H0U1AlA6KCjVG87+T3tzXvc5UeqIrWsTgoYPgAAADZ88MX80PC/5Xvv5QlCGEHjGf0u2M/ki9/wAIpAmEMQAAAAyfyPpYzWy9Ne3/AFN26sjv2HZbPW02RUEEDmT2R8Fxnt9O+Z3O5JYp3wfPRG8j3NYqLzI5QxgAAAAHp2W6T2S8Wm9Uv7ptFZBW0+v2dPI2RvytA3ZqeeKqggqYXc8NRG2WJ/na9Eci/EoQ5gAAAAAAAAAAAAAAAAAAAAAAAAAAAAAAAAAAAAAAAAAAAAAAAAAAAAAAAAAAAAAAAAAAAAAAAAABir1cdL+OdUG2s2OVTobVmth72twDKHt191rHNRHQTK1FctPUI1GyInZo16IrmIgGqrm+EZTtxld8wjNbNPYMnxypdSXa11CaOY9vFHNVNWvY9qo5j2qrXNVHNVUVFCVKAfcckkMkc0MjopYnI+KViq1zXNXVFRU4oqKCYxVbfdws+yi309pyXOMgyK10jkdSW253Oqq6eJzU0RWRTSPa1UTzIZKr1dcYVVTMdLDby9q3ONNMRPsiIUnC9IpYpHRtmbG9rnRP15XIi68q6aLovYY2aWwvtn1SbG53jVur6bNrJiFXHTRtrcXvVXBbZ6N7WojomJO6NkjGdiOj1bpp2didbZz1m5TjxRHsnY+c5rSszZrmJpmr2xGOKMfrsz7a7Ptxcfq9vK2jvdxtltkpssyS36Opqp/eItNG2ZvszOiYjtXtVU0c1qOXl0Sl1S7buXI4NuzbLqdAy96zamLkTETOyJ5OfoYpbbXPGbLuBhd3zOg+lMUtt6oqnIbfyJJ3tJHM10rVjXg9OVOLF+cns+U0LNVNNcTVux2rbM011WqoonCqYnDpbE1q3l2guVjhvds3Jxj6ESFHtqXXOlgbExE4NkZI9jolana1yIqdiodfTmLUxjFUYdL5xXkr9NXDNFWPRKDnq1zHb7Ot7MgyDbhkUlllgp4bhdaePuoa+vjRUnqo2qjdUdq1qu09tWq/jzarzGfuUXLszRu75d3o9m7Zy8U3d/NzRzLGYpl2TYNe6TJMRvlXj18odfdrlRyLHIiOTRzXeRzXJwc1yKi+VDVt3Krc8VM4S371mi7Tw1xjEuhunutnu7+5GP33cK+/T91tNnS3UlV7tTUvLTsdUSo1WUsUTFXnlcuqpr6dEQ93r9d6ca5xliy2UtZamabcYRM48s97yzE2QAAAlZ8KDZmmzTd/I91rzSJUWvamhjZZEkbq1bzdUkjikTXg7uaeOZf0rnRu7UQEr2+Mp+5+nb8Zln1LOCEHIAAAA2fPDF/NDwv+V77+UJQhhB4xn9LtjP5Ivf8ACKQJhDEAAAANoHoZxKxZ70E7d4Vk9E2449lNqyW2Xijd9fBU3u5xv5V48rkRdWuTii6KnFAhrg7s7d3XaXcvONtr0qvuGGXiptjqjTlSeKJ69xUNTyNmiVsjfQ5AlbwAAAAbpe3FS6s28wKsc5XuqsdtcznrxVVfSROVflCFaAAAAAAAAAAAAAAAAAAAAAAAAAAAAAAAAAAAAAAAAAAAAAAAAAAAAAAAAAAAAAAAAAAAAAAAAAAABhP1idGOIdUOOpcKR9PjO69ip3MxjL1Yvdzxpq5KG4IxFc+BzlXlciK6JVVzdUV7HhrLbl7YZ1tBl9zwbcTHqnG8jtbvvtJUN1ZLEqqjJ6eVurJYn6LyvYqtXz6ooSoEAAAAAAAAAApGVNcxp/0tIunxOAq4AAAAbMXhaYVHjPSxbsgWHkqtwshut5klVPaWOmlS2Rt8/KnuTnIn6ZV8oQxj8ZT9z9O34zLPqWcJhByAAAANnzwxfzQ8L/le+/lCUIYQeMZ/S7Yz+SL3/CKQJhDEAAAANqbw6PzNNmfxd9/L9xCEUPiyYFHjnULYc0pYUjp9xcYppq2XTTnr7XI6jl+KnSnQJhFuAAAAN0Daj/hbtr/VWzfwGEIV+AAAAAAAAAAAAAAAAAAAAAAAAAAAAAAAAAAAAAAAAAAAAAAAAAAAAAAAAAAAAAAAAAAAAAAAAAAAACyO+fTztZ1EYuuMblY8yv8Ad0etlyCmVIbnbZXpxkpKnlVW66IrmOR0btE52O0QDX76jfDj3q2Vlr77h9HNuxt7CrpWXezwOW50cScf99t7VfJ7Ka6yQ87NE5ncnzQlHm5rmuVrkVrmro5q8FRU7UVAPwAAAAAAAClZW6ZfTL56FV+VyAVUAAAANubozszbF0rbD0TWIxJ8QoLhonDjcWLWqvwrNqEI3/GU/c/Tt+Myz6lnCYQcgAAADZ88MX80PC/5Xvv5QlCGD3jFuRcw2OZ9c2zXpy+pailRPqBMIZAAAABtTeHR+Zpsz+Lvv5fuIQxA8YrH21GGbJZSjE5rVertanSacdLhTQToir//AAl0CYQMAAAADdA2o/4W7a/1Vs38BhCFfgAAAAAAAAAAAAAAAAAAAAAAAAAAAAAAAAAAAAAAAAAAAAAAAAAAAAAAAAAAAAAAAAAAAAAAAAAAAAAAMXt5ujfp531fU12a4BS0uSVOquzGyL9G3RXr/lJZYERlQ5PJ37JE9AEZ25Hg+XeKSoqtot2qWthVVWmsmW0r6eRiJ2I6voWyteq/vZgTiwxy7w6ernEnyu/sw/nPRx66V9guNFWo/T7GDvmVHxxAWGu/Tn1A2Bz23jZDPLejO2aXHrj3S/ayJArF+BQKQl2z3HhdyTbf5JE/XTlfaqxq6+bRYgPQotnN3bk5GW7avL696rojaax18qqvm0ZAoFybH0fdUeQua237DZpDz6crrjap7a1dfLzVzYE09OoF/MV8L/q0yJ0f0njViwmKTRe+vl5pno1F8rm23356erl1A6XUX4cmUdOe2a7yZVubar3XUdZR2b+a1poJ1ic6tdJrL77PJE7RnLwTuPa17U04hgAAAAANxTpra1nTnsExqaNbtxiqNT0fRFKEIsfGU/c/Tt+Myz6lnCYQcgAAADZ88MX80PC/5Xvv5QlCGDPjFf032S/kO7/wmnCYQ0gAAADam8Oj8zTZn8Xffy/cQhYfxdaeOTpxwmpVPvtPuNb2sd+lktN25k+FUT4gmGuiAAAAN0Daj/hbtr/VWzfwGEIV+AAAAAAAAAAAAAAAAAAAAAAAAAAAAAAAAAAAAAAAAAAAAAAAAAAAAAAAAAAAAAAAAAAAAAAAAAAAAAAAAAAAAAAAAI4PFQ/NSrf61Wb6swGs+EgAABuLdNv5uuwf/LnFvyRShCK/xlP3P07fjMs+pZwmEHIAAAA2fPDF/NDwv+V77+UJQhgz4xX9N9kv5Du/8JpwmENIAAAA2pvDo/M02Z/F338v3EIWP8XH82nEv+Y1s/JV2CYa5IAAAA3QNqP+Fu2v9VbN/AYQhX4AAAAAAAAAAAAAAAAAAAAAAAAAAAAAAAAAAAAAAAAAAAAAAAAAAAAAAAAAAAAAAAAAAAAAAAAAAAAAAAAAAAAAAAAjg8VD81Kt/rVZvqzAaz4SAAAG4t02/m67B/8ALnFvyRShCK/xlP3P07fjMs+pZwmEHIAAAA2ffDF/NDwv+V77+UJQhgx4xX9N9kv5Du/8JpwmENIAAAA2pvDo/M02Z/F338v3EIWP8XH82nEv+Y1s/JV2CYa5IAAAA3QNqP8Ahbtr/VWzfwGEIV+AAAAAAAAAAAAAAAAAAAAAAAAAAAAAAAAAAAAAAAAAAAAAAAAAAAAAAAAAAAAAAAAAAAAAAAAAAAAAAAAAAAAAAAAI4PFQ/NSrf61Wb6swGs+EgAABuLdNv5uuwf8Ay5xb8kUoQiv8ZT9z9O34zLPqWcJhByAAAANoPwyvzP8AAf5Tv35UqAhgl4xX9N9kv5Du/wDCacJhDSAAAANqbw6PzNNmfxd9/L9xCFj/ABcfzacS/wCY1s/JV2CYa5IAAAA3QNqP+Fu2v9VbN/AYQhX4AAAAAAAAAAAAAAAAAAAAAAAAAAAAAAAAAAAAAAAAAAAAAAAAAAAAAAAAAAAAAAAAAAAAAAAAAAAAAAAAAAAAAAAAjg8VD81Kt/rVZvqzAaz4SAAAG4t02/m67B/8ucW/JFKEIr/GU/c/Tt+Myz6lnCYQcgAAADaD8Mr8z/Af5Tv35UqAhgl4xX9N9kv5Du/8JpwmENIAAAA2pvDo/M02Z/F338v3EIWP8XH82nEv+Y1s/JV2CYa5IAAAA3QNqP8Ahbtr/VWzfwGEIV+AAAAAAAAAAAAAAAAAAAAAAAAAAAAAAAAAAAAAAAAAAAAAAAAAAAAAAAAAAAAAAAAAAAAAAAAAAAAAAAAAAAAAAAAI4PFQ/NSrf61Wb6swGs+EgAABuLdNv5uuwf8Ay5xb8kUoQiv8ZT9z9O34zLPqWcJhByAAAANoPwyvzP8AAf5Tv35UqAhgl4xX9N9kv5Du/wDCacJhDSAAAANqbw6PzNNmfxd9/L9xCFj/ABcfzacS/wCY1s/JV2CYa5IAAAA3QNqP+Fu2v9VbN/AYQhX4AAAAAAAAAAAAAAAAAAAAAAAAAAAAAAAAAAAAAAAAAAAAAAAAAAAAAAAAAAAAAAAAAAAAAAAAAAAAAAAAAAAAAAAAjg8VD81Kt/rVZvqzAaz4SAAAG07sPuXkFJsTsrQ00NHHFR4HjkET1je56tjtdO1FVVfprw8x0FjS7VVFNUzO2In8bHGZvX8xRdropinCJmN08k9KNzxUcmu2Rw7HfScrJEpJMk7hrGNYid4lr5uzt+anaaepZW3Y4eDlx+Cz0PULubmv7k7sMNnPiiFKt0AAAAT6dCFZWRdNWHxxVU0UaV930jY9zWprXzeRFOn0yimbETMRy97g9du105uqImYjCOX2MRvEynnnyvapZ5nzK203JGq9yu0+/wAPZqaGsUxFVOEckrb01XVVRXjMzthGIU7pgAAA2LehjM8ktHS1tXRUFx7qkgZeO6gWKJ6JzXmucvFzFXtVfKdBksjZu2aaqqds48s88uN1TVczYzVdFFWFMYbMI5o9i1fiZ5je7/sBjNDcpYpYY87t8zVbGjHczbdc2pxb6HKYNRyVuzbiqnfjh3tvRdUv5q9NFyYmOGZ3e2EExTOnAAADc12hr6Gp2v23ZTVsFQ9uLWdHMjka9UVKKHVFRFXsPdVuqnfEwxUXqK5wpqieiVyjwyAAAAAAAAAAAAAAAAAAAAAAAAAAAAAAAAAAAAAAAAAAAAAAAAAAAAAAAAAAAAAAAAAAAAAAAAAAAAAAAAAAAeRcL/ZbXqlwudPTPb2xOeiyfrE1d8hmt5e5c8tMy1r2ds2fPXEde3s3qKrt08epuZtHFU3FyfNc1ndsX4Xqjv2JvW9Iu1ebCFTe9RZejyxNXuj3+Cj63dq7S6pQW2mpGr2OlV0zk9WnInyG7b0eiPNVM+7xVd31LdnyUxHTt8FJ1mc5VW6pJeJoWr2Np0bDp8MaIvym5RkLFG6mOvarbusZq5vrmOjZ3MAPEIq6qr6fqp9VUy1L/wCcFs9uV7nr2yeVyqa+qUU02NkYbYbug3K683jVMzsnfOKCc5p3IAAAbLWyH/BbaD+pOP8A5OgOyy37VH9Mdz5jnv8AIuf1Vd8o/wDxNPwOy32+Q/UtpVa19HX8HQ+l993/AE/FFKUTrQAAAnr6E/zbcQ/f13/h8x1Ol/sR197gNf8A8urojuYk+JZ/Sraz+Srj/t4TQ1nzU9Erf0x5LnTCMopXUAAABsC9FX5sm2P2l2/LFadXpv8Aj09ffL55rn+ZX1f9sLVeI1/wNxz+u1B+T7iYNY/Zj+r4S2/TX+TP9M98ITzm3cAAABs97dqqYBgyouipj9s0X/8Aixna2vJT0Q+W5n92r+qe9cmkyK/UOnul4q4Wt7I0lcrP1qqqfIeK8tar30x2MlrPX7flrqjrVTR7nZRTaJNLT17U7e/iRF09cSsNSvSrNW7GOifFY2vUGao3zFXTHhgq6h3cp3aNuVnki+ykppEf+wejdP1xp3NGn6au1Z2fU1P/AJKJjonH3Th3qzoM9xW4cqNubaWRf8nVIsWn6p3s/KaNzTr9H049G1a2dZyt368J9uz8veq2KaKeNssErJonfNkY5HNX1KnA05pmJwlZU1RVGMTjDkIegAAAAAAAAAAAAAAAAAAAAAAAAAAAAAAAAAAAAAAAAAAAAAAAAAAAAAAAAAAAAAAAAAAAAAAAAApi7Zjjtm5mVdxjfO3tpYPvsmvmVG6o39UqG3ZyV67up2c87FfmdUy+X2VVbeaNs/jpW3um7czuZlntjY0+tqKteZf9WxURP1ylna0ePrq7PFQ5j1LM7LVHXPhHit9csvyO68yVd1mSN3bBCvdM08ytZy6/CWNrJWbe6mO9SX9TzN7zVzhzRsj3Kb7eKm00QAAAwk8QH83uq/rBbPqyFbq37HXC89Pf5XVKC85h3gAAAbLWyH/BbaD+pOP/AJOgOyy37VH9Mdz5jnv8i5/VV3yj/wDE0/A7Lfb5D9S2lVrX0dfwdD6X33f9PxRSlE60AAAJ6+hP823EP39d/wCHzHU6X+xHX3uA1/8Ay6uiO5iT4ln9KtrP5KuP+3hNDWfNT0St/THkudMIyildQAAAGwL0VfmybY/aXb8sVp1em/49PX3y+ea5/mV9X/bC1XiNf8Dcc/rtQfk+4mDWP2Y/q+Etv01/kz/TPfCE85t3AAAAbPe3n9AMG/q/bP4LGdrZ8lPRD5bmf3aume9WBkYQAAA7dJX11vk72hrJqOTyvhkcxV9fKqaniu3TXGFURLJavV2pxoqmJ9k4K6tu52R0XKyrdDdIk4KkzeV+noezT5UU0LulWa92MLjL+oMzb2VYVR7d/bC4lr3RsFbysr45rVKvar072LX7dia/G1Csu6Tdo8uFXuleZf1Dl7myuJpntjtjwXCpK2kr4knoqqKrhd2SwvR7fjRVK2uiqicKowld27tFyOKiYmPY7J5ZAAAAAAAAAAAAAAAAAAAAAAAAAAAAAAAAAAAAAAAAAAAAAAAAAAAAAAAAAAAAAAAAAAA4pp4aaJ89RKyCGNNZJZHI1rU86quiITTTNU4Rtl5rriiMapwhbO97o2mi54bTE66VCcO+XWOBF9apzO+BNPSWtjSble2v5Y96gzfqG1b2Wo4p7I/P8bVpbxmeQ3vmZVVzoaZ3/g6f71Hp5lRF1d+qVS4sZG1a3Rt55c1mtVzGY2VVYRzRsj8+tSxtq4AAAAAABg54g9QyDYBsT1RHVmTW2GNF8rkZUSaJ8DFKzVp/s9cL307GOa/0z8EG5zLuwAAA2XtlY3Q7N7SxP+dFhlhY71tt0CKdnlv2qP6Y7nzHPTjmLn9VXfKPvxNPwOy32+Q/UtpU619HX8HQ+l993/T8UUpROtAAACevoT/NtxD9/Xf+HzHU6X+xHX3uA1//AC6uiO5iT4ln9KtrP5KuP+3hNDWfNT0St/THkudMIyildQAAAGwL0VfmybY/aXb8sVp1em/49PX3y+ea5/mV9X/bC13iLxufsXYnJ2Q5nQPf6loa9v1XGDWP2Y6Y7pbfpuf/ANM/0z3whLObdwAAAGzHs7eKfINpttLzSqiw3DGLVLyouvK73SNHsX0tcitX0odnl6uK3TPsh8wztE0X66Z5Kp71yDM1gAAAAAAHbo66tt8yVFDVS0kyf5SJ6sX1Lp2oeK7dNcYVRjDJavV2p4qJmJ9i5ll3UudKrIrzTNuMKcFqI9I5k9KonsO+JPWVd/SKKttE4T7l/lPUd2jZdjijnjZPhPuXdsuUWS/tT6OrWum01fSSexM39Qvb601Qpr+UuWfNGzn5HT5TULGaj5KtvNy9ioDWboAAAAAAAAAAAAAAAAAAAAAAAAAAAAAAAAAAAAAAAAAAAAAAAAAAAAAAAAAAAAAAC3GS7j2uzrJS21G3S4N1R3Kv3iNf0z0+cqeZvxoWeV0yu7tq2R71Fn9dtWMabfzVe6OvwWNvOQ3e/Td7cqt0rUXWOnb7MTPtWJw+HtL+xlrdmMKY8XIZrPXszONyrH2ckdTxDO1AAAAAAAAABFf4k+cwe77d7bU8yPqFlnyS7QIvFjWtdSUaqn6bmn+L0lHrN3y0dfh8XV+mbE413Z6I75+CKQonWgADmpqeerqIKSmjWapqpGxU8Le173qjWtT0qq6CIxJmIjGW0VjVobj+OWCwsVFZZLbS0DFb2aU0LYk0/Wnb0U8NMRzQ+VXa+OuaueZlGT4mn4HZb7fIfqW0pda+jr+DqPS++7/p+KKUonWgAABPX0J/m24h+/rv/D5jqdL/AGI6+9wGv/5dXRHcxJ8Sz+lW1n8lXH/bwmhrPmp6JW/pjyXOmEZRSuoAAADYF6KvzZNsftLt+WK06vTf8enr75fPNc/zK+r/ALYeN10WCS+dOeVVEMfey47W226oxO3lZUsgkVPtWTuVfQinnVKOKxPswl70G5wZun2xMe78kCZyz6AAAAE3Hh97jxZTtDU4PUzo677d1z4Y4lXVzrdXvfUU7+PFdJFlZ6Ea3znS6Te47XDy090uG9RZb7d/7kbqo98bJ+DPMtFAAAAAAAAAAPpj3xPbJG90cjF1Y9qqioqeVFQTETslMTMTjG9c/Hdzblb1jpr01bnSJonvCaJUMT1rwf8ADx9JU5nSqK9tGyfd+ToMj6guWsKbvzU8/wBX5/javjarxbr1TJV22qZUxdj+Xg5i+Z7V4tX1lDes12pwqjB12XzVvMU8VucY/G96RibAAAAAAAAAAAAAAAAAAAAAAAAAAAAAAAAAAAAAAAAAAAAAAAAAAAAAAAAAAA6tZW0tvppqytnbTU0DeaWV66IifoqvkRD3RRVXVw0xjMsd27TapmqucIhj5lu4Nbe3S0VtV9DauLXaLpLMn6dU7EX7FPhOjyenU2vmq21e6HE6lrdeYxot/LR756fDtW4LNRAAAAAAAAAABSGd5zje2+KXnM8sr226yWSBZaiRdFfI7sjhibqnPJI5Ua1qdqqY7t2m1TNVW6GbL2K79cUURjMtcvdvcq8bu7g5Hnt6TuZ71Ua0VAjuZtJSRIkdPTtXhr3caIironM7V3apyGYvTermueV9JyeVpy1qm3Tye+eWVtzC2QABlF0e7aT7kb54mySnWWyYfM3I77KrdWIyhe19PG7yL3lR3bdF7W8y+Q3dPs/dvRzRtVWs5qLGWq56tkde/wBzYJOsfPEV3iafgdlvt8h+pbSj1r6Ov4Or9L77v+n4opSidaAAAE9fQn+bbiH7+u/8PmOp0v8AYjr73Aa//l1dEdzEjxLHIuWbWs8rbRcFX1LPF/gK/WfNT0St/THkudMIyymdQAAAGwL0VfmybY/aXb8sVp1em/49PX3y+ea5/mV9X/bDIDM8Xoc2xHJsPufCgye2VVsqn6aqxtVE6PnannbzcyelDbuURXTNM8sK6xdm1cprjfExLWXyjHLriGR3zFr5TrS3fHq6e33GBddElp3qxytVdNWrpqi+VOJxddE0VTTO+H1G1dpu0RXTumMXhHl7AAF9OnbeWt2P3NtGXNbJUWOoRbdlluj4unt87mrIrUXRFfE5rZGcU1VumuiqbOTzM2LkVcnL0NDUslGbszRy746WxHZL3acks9tv9ir4bpZrxTR1dsuEDuaOaGVqOY9q+lF+DynX01RVETG6Xzi5RVbqmmqMJh6hLyAAAAAAAAAAHo2u7XCzVTKy3VLqadvaqfNcn2LmrwVPQpju2aLtPDVGMM+XzNzL18ducJZE4jm9FkjG0s6No7uxur6bX2ZETtdEq9vpTtT09pzWcyFVicY208/i7jTNXozccM7K+bn6PBXRXrgAAAAAAAAAAAAAAAAAAAAAAAAAAAAAAAAAAAAAAAAAAAAAAAAAAAAAAABw1NRBSQTVVTK2Gnp2LJNK7gjWtTVVU9U0zVMRG+Xi5XTbpmqqcIhjHmGXVOTVitYrobVTuX3Ol7NfJ3j/ADuX5Ozz69VksnTl6f8AmnfPwfP9U1OrOV7NlEbo+M+3uUabqrAAAAAAAAAACxO7/UbtXstSTfzqv8dVf0j56TEbcrai4yqqat5okVEhav2cqtb5lVeBq5jOW7EfNO3m5W/k9Nv5qfkjZzzu/PqQn7/dR2bb+XuOe8KlmxW2yOfj+IU0iuggVdU72Z6o3vplauivVEROKNa1FXXm83nK8xO3ZHJDuNP0y3k6fl21Tvn8boY9GosQAB3bbbbheLhRWm1UU1xudynjprfQU7FkmmmlcjWRxsaiq5zlVEREJppmqcI3oqqimJmZwiE/vSnsFFsVt8lPdGRS5zlKx1uXVUao5InNavcUTHJwVsCOXVU7XueqcNNOryGU+xRt807/AAfPNW1D+Xdxjyxsjx62UJuqtFd4mn4HZb7fIfqW0o9a+jr+Dq/S++7/AKfiilKJ1oAAAT29CrXN6bMNVU0R9bd3N9X0hOn1UOp0v9iOvvfP9e/y6uiO6GIXiV/0w2wX/wD01d/CGFfrPnp6Fz6Y/br6Y7kZ5TOnAAADYL6MXMd0z7Xqzs7i5IvrS61iL8p1mnf49PX3y+d63/mV9XdDKA3VWjB68enGrvTZN7sKt7qmuoqdse4FsgYrpJaeBqNjuDWpxVYmIjJf0iNd2NepSapk5q/u09fi6nQNSij+xXOz6fDwRJFC68AAAMxemPq0v+xtQ3Gr/DPke2tZMsk1qY5FqrdJIur56JXqjVRy8XxKqNcvFFa5XK6wyWfqsfLO2nu6FNqmkU5uOKnZXz8/T4pq8A3MwXdGyx37BMko8goHI3v2QP0np3OTVGVEDtJIneh7U9HA6S1eouxjTOLh8xlbuXq4blMxP43K7MrAAAAAAAAAAAHJFLLBLHPBI6KaJyPilYqo5rk4oqKnYRMRMYTuTTVNMxMThMMkcGzBuRUq0lY5rLvSNRZUTgkzE4d41PP9kn+E5jP5L7FXFT5Z93sd5o+qRm6eGvzx745/FX5XLoAAAAAAAAAAAAAAAAAAAAAAAAAAAAAAAAAAAAAAAAAAAAAAAAAAAAAACyW6eQuWSHHaaTRjUbPctPKq8Y419Se0vwF7pOW2fdnoj4uS9RZ6cYsU9NXwj49izBeOVAAAAAAAAAACHnq+6uMzqczv+1+296qMYx7GKiS23+9UD1ira6tiVWVEbZ26Piiieix6MVFcqOVVVqoic9qGoVzXNFE4RG92WjaPbi3F27GMztiJ3RHJ1o3pZZZ5ZJ55XzTTOV800jlc57nLqrnOXiqqvaqlO6aIwcYAABcfbfaXcHdq8Ns2B41VXqZrmpWVyN7ujpWu+vqKl+kcaacdFXVfrUVeBls5eu9OFEYtbM5y1lqeK5Vh3z0Qmi6bOkbF9jo4sjvc0OVbkTRKyS9cn+629r00fFQMenMiqi8rpXJzOTgiMarmr0mT0+mxtnbV3dDidT1ivN/LTso5ufp8GYRYKYAil8TOpas2zFIipzxsyCZ6eXR625rfuVKLWp8nX8HW+l4/cn+n4orijdWAAAGwt0f2WSxdOG11JMzklqqCpuK69qtuFZPVxr+sladbp9PDYp/G+XzrWa+PN3J9uHZEQw48TC1SpU7R3xrVdA+K8UMz9ODXtWkljRV/TI5/xFdrVPknp+C69MV7LlPRPeiwKN1YAAATwdBd4Zc+nPH6Jj0c7HbrdbfKn2Ln1Lq3T4qlFOo0qrGxEc0z4uB9QUcObmeeIn3YfBmWWKlfjmtc1WuRHNcmjmrxRUXyKBGH1IdB7L1U3DNtkoqehuFQrp7pt+9zYaeV68XOt8jtGRKq8e6eqM+xc1NGlJnNL4vmtdng6nTNf4Iii/tjkq8fFFVf8ev2K3WqseS2essN4oXctXbK+F8EzF8mrHoi6L5F7F8hR10TROFUYS6y3cpuU8VMxMex4x5ewAB7mPZLkOJXWmvmL3utsF3pHI6nuNBO+CVuiounMxUVUXTii8F8p6orqonGmcJeLlqi5Tw1xEx7U8PST1BT774JWOv0ccWb4fJDSZMsLUZFUtna5aesYxODO97t6OanBHNVU0aqInU5DN/yKNu+N7gNY06Mndjh8tW74wyuN5UgAAAAAAAAAB37Zcam019LcaN/JPSvR7fMqeVq+hycFMd21TdpmmrdLNl79Vi5FdO+GW9suEF1t9HcaZfvNZE2RieVNe1q+lF4Kcddtzbrmmd8PpeXv037dNyndMYu8Y2YAAAAAAAAAAAAAAAAAAAAAAAAAAAAAAAAAAAAAAAAAAAAAAAAAAAAAGH97rnXK73Kvc7m96qJHt9DeZUanwN0Q7Sxb+3bpp5ofMM3em9errnlmXlmVrgAAAAAAAAABD51H9EW5FRnWU5ztpBTZTYspuFRdp7OtRHTVtHPVyLNOzSd0cb4+dyqxUfqicFbw5loc1pVyu5NVvCcduGOHe7HTtes02qaLuMTTGGOGMTh0bWKy9Le/aP5P7O6rm8/vdDp8fvGhr/7Nm/0T2x4rL/e8n/7I7J8Hs0HSFv3WuakuIwW1jv8rVXKh0T1pFPI75DJToWbn6cOuPFjq1/J0/Xj1T4Ln2HoQ3ArHsdkeXWOxwO+clG2evmanpY5lOzX1PNy16avT56ojoxnwaV31RZjyUVT04R4sj8L6LNp8cfDVZDJcM2rY9FVlbJ7vR8ydipBT8rl9T5HJ6C2y/p7L29teNU+3ZHZHip8z6jzNzZRhTHs2z2z4M2sTuFsxS3UtittlorXZKNOWlorbTx0scSfpYomtZ8iFhVkaIjCjZ7ORS13qq54q5mZ55XSpaunrYWz00qSxu8qeRfMqdqKaNVE0zhKHZPKQCE3xD8vgvm81pxmlmSSPC7DBDWtRdeSsrnuqXt/1LoVOb1e5xXYp5odx6cszRl5qn6p90bO/FgMVToAABUWI4xc81ynHsRs0Xe3TJLhT26hbpqiPqJEYjneZrdeZy+REVT1bomuqKY3yx3rsWqJrq3RGLZxx6yUWM2Cx45bW8lux+301toGL2pDSxNhjTh+lah2tFMU0xEcj5dcuTcqmqd8zj2sUuuXbybOtibtcKCBZ7pgVXFkMDGJq91NC18VYmvmbDK6VftDR1Oz9yzMxvjattBzP2czETuq2eHv2daBk5Z34AAASqeGznUTV3D21qZ0bLIsGR2eBV+doiUlaqJ500g7PT5i80a75qOvx+Dk/U2X8l2Oie+PilXL1yYB0K+5Udti7yql5dfmRpxe71IZLduqucIRM4LE7kY/h+6VElry/ErbeqCNFSmfVwtfVRc3asNQmkkKr/m3NX0m1Om2rkYXI4mWxnLticbdUx+OxhJl3QphFyfLUYdlNyxiR+rm0VYxtxpm+ZrF5oZWp6XPcpV3/Tdqrbbqmnp2x8JX2X9T3adlymKujZPxhYK9dDm7NA57rTdbBfYE/Boyomp5l9bJoUYn69SruenMxT5Zpnrw+C0t+pstV5oqjqx+PwW+q+kzf2lcqfzE95Z5JILjbnovwe8o740NWrQ85H0e+PFt069k5+v3T4OKh6U9+q6qhpkwOWlSV6MWoqKyiZGzX652k6ronoRV9BFOi5uZ8mHXHimrXMnTGPHj1T4Jc+k7p1fsHit3dd7gy5Zdl8lPLfJIEclPBHSpIkEEXMiOdyrK9VcqJrr2JoXWTyUZamYxxmd/N1OS1XUv5tcYRhTTu59vLLLA21UAAAAAAAAAAADILaiudPZKyheuvuFTrH6GSpzafrkcpzmr28LkVc8dztfTd6arFVE/TPun88V0ipdEAAAAAAAAAAAAAAAAAAAAAAAAAAAAAAAAAAAAAAAAAAAAAAAAAAAAADC+WN0MskT00fE5WPT0tXRTuInGMXymqmaZmJ5HGSgAAAAAAAAAAAHh3OwUNya5ysSCpXsqGJoqr+mTyme1mKqPbDzMYrZV9vqbbUOp6lui9rHp81yedFLO3ciuMYeJjB0jIAADv2+41NtnSenfp+2RL816eZUMdy3FcYSROC7FuuEFypmVMC6a8JI17WO8qKVNy3NE4SyROK0W+W+mH7GYlU36/wBVHU3qpie3GcYY9Eqa+oRNGojeKtiauneSKmjU87la1dLNZqmxTjO/kjnb+QyFzN3OGndyzzfjma8GV5PeM0yW+5bkFT73esirZq+4z9jVkmcrlRiarytbro1PIiIhyNyua6pqnfL6NZtU2qIop3RGCnzyyAACVPw/tg6lk8u+WUUSwxJHLRbf00zdFf3iLHU16IvYnLrFGvl1kX7FVvNJyv8A5aurxcn6h1CMPsUT/V8I+M9SVgvXJuGop4KunnpKqFlTS1UboqmnkajmSRvRWua5q8FRUXRUUTGJEzE4w17uqDYa47GbhVdFTU8smEZDJJWYZc11c3uFXV9JI/8AbKdXI1fKreV/12iclnsrNivD6Z3PoulahGbtYz5o3+PWxrNNZgAC5G0m5V32j3CxvPrM3vprJU61lCruVtVSSosdRTuXjpzxuVEXReV2ju1DNl702a4rjka2cytOZtVW6uX3TyS2MMAz7F9zcUtWZYfcmXKzXWNHMciokkMqIneQTsRVVkkaro5q/KminX2rtN2mKqZ2Pm2Yy9eXrmiuMJh7F7vMVpgTREkqpU+8Q/4zvQnym3Yszcn2NeZwWrqamermfPUSLLK/tcv1E8yFrTTFMYQ8OA9AAA9e02apu0qpH96p2L9+qFTgnoTzqYb16Lce1MRiuXb7PQW1qe7wosuntVD/AGnr8Pk+ArLl6qvfL3EYPUMSQAAAAAAAAAAAAL47QxuSmvky/MfLAxq+ljXqv3SFDrM/NRHS670xTPDcn2x8V4ykdSAAAAAAAAAAAAAAAAAAAAAAAAAAAAAAAAAAAAAAAAAAAAAAAAAAAAADF/PrQ605JWqjdKe4OWrpneT74ur0+B+vwaHV6de+5ZjnjY+e6zlZsZmrmq2x17/eos3lUAAAAAAAAAAAAB5d3tkV0pHwORElbq6nl+xd/gXymWzdm3ViiYxWgkjfFI+KRqskjcrXtXtRUXRULiJxjGGN8EgAAstvzvlXbF4FV3mypFLkt/kS2Y9BO3njZM5qvdUvZ5UhaiqiLwVytReClRrOZjL2eL6pnCFrpGQ/l3uGfLG2fDrQpZPlWR5peqzIsrvVXkF7r3c1Vcq2V0sjvM1FXg1rexrW6NanBERDga7lVc41TjL6JatUWqYpoiIiOZ4B5ZAABnN0u9JtXuRebXlG5UE9kwRrmz0NqkRYqm8KiorGJ2Oigd5X8FenBnbzpdZHSLl2n7lcYU++fyc9qut02Mbdqca+fkp/P8TzJu6Kio7bR0lut9LFQ0FBCynoqKBiRxQxRNRrI2MaiI1rWoiIidiF9EREYQ4mqqapxnfLtEoALfbnbZ4ju1iFxw3M6BKu11id5BUs0bUUdQxF7upp5FReSRmq6LpoqatcitVUXFesU3qeGpsZXNXMtciuidvf7JQHb29P+X7MXmpZVNdfcRkncyz5hTRqkErdfYbO3j3Mmn1rl0X61XIc3ntNu5Wcao+WeXx5pd9p+qWs5Ts2VcseHPCwxXrIAAXY2k3qz/Za/wAd8wq8yU8EkjHXewzKr6CvjYvzKiHXRV01RHt0e3X2XIZ8vma7FWNM9XO1M5kbWap4a46J5YTfYtnNLuVjdjzmiRzKXJKOOrip3LqsCuTR8Kr2axuRWLp5UPo2TuU3LNNVO6YxfNM1YqsXardW+Jwe+bTAAAO7bqGW41cVLFwWRfbf9i1O1THcriinGSIxXhpaWGjgjpqdnJFEmjU8q+dV9KlPXVNU4yyOweUgAAAAAAAAAAAAAMocCtDrPjdJHK3kqa1Vq6hq9qLIicqL6mImvpOU1C9929OG6Nj6Fo2VmxlqYnfO2ev8sFZmitQAAAAAAAAAAAAAAAAAAAAAAAAAAAAAAAAAAAAAAAAAAAAAAAAAAAAAUfmmMtyS1LHEiNuNHrLQSLw1XT2o1XzO0+PQ3cjmvsV4z5Z3qvVtPjN2sI80bY8Oti/LFLBLJDNG6KaFysljcmjmuauioqL5UU6uJiYxjc+e1UzTMxOyYcZKAAAAAAAAAAAAALa5dRJBXR1TE0ZWN9r7dmiL8aKhZ5SvGnDmeKoUmbbyAAMG+uXDr3fcMxXJbVSy1tFiVXV/TUULVcsUFYyJEqHIn1rHQ8qr5ObzanN+o8vXXaprp2xTM49fL7nTemcxRbu1UVThNURh1cnvRXHGO3c9NS1NbPHS0dPLV1My8sNPCx0kj18zWtRVVfUTFM1ThCKqopjGdzIbBulbeTN3wyuxx2KWuRU57nflWk0b5206os7tU7Pvei+dC0y2i5m99PDHPOz3b/cqczrmVsfVxTzU7ffu97PnanpG2829lprvftc5yWBUfHVV0TW0UD04o6Gk1eiqi9jpHO87eVTp8loVnL/NV81Xt3dni5bPa/fzGNNPyU+zf1z4MsEVWqitXlVvFqpw00LpRLt2K5fSVAyR6/7xD97qE86p2O+FCpv2+Cr2MkTi9owJAKPyy6LTwNoIXaS1KazKnakfZp+qU3Mpa4p4p5HmqVr66hornR1FvuVHBcKCsjWKroqmNssUrHcFa9j0VrkXzKhYVUxVGExjDzTVNM4xOEwwk3N6JMSyCSoum3VzXD7jJq9bLUo6otr3L5GLqssCKvbpzonY1qHO5z07bufNanhnm5PGPe6XJepLlv5b0cUc/L4T7mDea9O+7+Bvmfd8NrK63xar9L2lq19MrU+vc6FHOjT8Y1pzmY0rM2PNRMxzxtj8dLpstq2Wv+WuInmnZPv+CyrmuY5zXNVrmqqOaqaKip2oqFesXr2DHr5lN1pbJjtqqbzdq16MpqGljWR7lVUTVdODWprxcuiJ2quh7tWqrtUU0RjMsd27RapmquYiI506e0GFVG3e2mH4dWStmrrNQ6XB7F5me8TyPnmaxfK1skjkRfKiH0jIZecvYptzviPfvfMtQzMZi/XcjdM7OjdC5JuNMAAXEw+iSOlmrnJ7dQ7kiX9I3t+NfqFdnK8Zinme6YVkaT0AAAAAAAAAAAAAAuDgGKPvtwbXVcf/AJTQPR0nMnCaROLY086eV3o4eUrtRzn2aOGPNPu9q70XTZzNzjqj5KffPN4skzl3eAAAAAAAAAAAAAAAAAAAAAAAAAAAAAAAAAAAAAAAAAAAAAAAAAAAAAAAALbZvgsd9a65WxrYruxv3xnBG1CJ2Iq+RyeRfgXzpaZDUJs/LX5e5Q6vo8Zn+5b2V/8Ad+ftY8zwTUs0lPUxPgnhcrZYXorXNVPIqKdJTVFUYxthxFdFVEzTVGEw4iXkAAAAAAAAAAAFKZfE19sjk+uinbovoVFRUNvJz8/U81LaFm8AAD8c1rmq1yI5rk0c1eKKi9qKhA77NhNkrpFS3Gv2mxKoraiCN89S60UnM97mJq5+kejlXt1VDnruVs8czwRv5oWFOoZmIwi5Vh0yp2gxPH8UkqKGxWC22NkT3RPjt9JDStVGrp2RNamnAvLNu3TTE0UxHRGDTuXq7k/PVM9M4vUMzGAAKmxSsWnuSQOXSOsarFTyczeLV+qnwmrm6OKjHmTTK6BVsj8VURFVV0RO1QLM3OsWvr6mqVdWyPVI08zE4N+QurVHBTEMUugZAAAdGn26wjMLzTvyTDbHkCw6zSyXK301U7RvZqs0bu1VRDSzlq1NMzVTEz7YiWxazN23sorqjomYV7X4pi2KWN9Pi+NWrG6eWaPvYLXRwUbHaIumrYGMRTVyNumiv5YiNnIi9eruba6pnpnFSBbsAAAAXltESQ2ugjb+0McvrcnMvyqU16ca56WSHomJIAAAAAAAAAAAAFa4lhlbks7ZpEdS2mJ33+sVOL9O1kevavp7E+Q0c5nqbEYRtq5vFa6ZpVebqxnZRG+fhH42MlKGhpbbSQUNFC2Cmp28sUbfInnXzqvaqnL3LlVyqaqpxmXfWbNFqiKKIwiHbPDIAAAAAAAAAAAAAAAAAAAAAAAAAAAAAAAAAAAAAAAAAAAAAAAAAAAAAAAAAUnk2H2vJYuadvu1exukNwjROZPMj04cyehfgVDcyudry87Nscytz+l2s3G3ZVyT487Hq/4rd8clVtdBz0zl0hrotXRP83H61fQp0mXzdu/Hyzt5uVxGd069lJ+eNnPG5ThstEAAAAAAAAAAKYy3+KV/HM/RNrKefqeaty2BaPAAAAXptv8AF1v/AHtF9whS3fPPTLJC3OVQdzd5HomiVEbJE+LlX5WljlasaOh4q3qcNlAAA5qeZ1PUQTt+dDI16fqV1PNUcUTAve1Uc1HNXVHJqi+hSkZXmXqf3a1V0qLo7ulY1fS/2U+qZLFPFXEIncs6XLGAAAFeYXB7NdVKnarYmL6tXO/QNDO1boeqXpZd/FKfj2fUUxZTz9Saty2JaPAAAAXqt38X0P73i+4QpLnmnpZIdw8JAAAAAAAAAADkhhlqJWQQRPmmlXljiYiuc5V8iInFSKqopjGdyaaZqnCIxmV4cX2xkesdbkf3tiaOjtbF9p341ydnqT407ClzeqxHy2u3wdRp3p+Zwrv/AP8APj4L1wwxU8UcEETYYYmo2KJiI1rWp2IiJwQoqqpqnGd7rKaYoiIpjCIchD0AAAAAAAAAAAAAAAAAAAAAAAAAAAAAAAAAAAAAAAAAAAAAAAAAAAAAAAAAAAHHLDFURvhniZNDInLJE9qOa5PMqLwUmKppnGN7zVTFUYTGMLWX/a2grFfUWOZLdOuq+6SaugcvoXi5nyp6C3y+rVU7LkYxz8v5udzvp23c+azPDPNyfl71m7vj14scnJcqGSBqroyfTmid9q9NUX1dpdWczbvR8s497lszkr2WnC5TMe3k7XjGdqgAAAAAAAFMZb/FK/jmfom1lPP1PNW5bAtHgAAAL023+LqD97RfcIUlzzT0skKMzSPSegl8r2PZr9qqL/jG7kp2TDzUok3nkAAAL0WyTvbdQSLxV1PGq+vlTUpbsYVz0skPFy6TktKN/bZ2NX4EV36BmykY19SKty2JaPAAAAXQxKPktKO/bpnu+LRv6BV5uca+p7p3PzLf4p9UzP0RlPP1FW5bAtHgAAAL023+LqD97RfcIUlzzT0skO6eEgAAAAAAAH3HHJK9sUTHSyPXRkbEVzlVfIiJxUiZiIxlNNM1ThG2VxrFtneblyTXNfoikXjyvTmncnoj+t/VL8BWZjVbdvZR80+5e5PQL17bc+SPf2ePYvVY8Xs2PR8tvpUSdU0krJPbmf63eRPQmiFHmM3cvz807ObkdZk9Ps5WPkjbzzvVCazdAAAAAAAAAAAAAAAAAAAAAAAAAAAAAAAAAAAAAAAAAAAAAAAAAAAAAAAAAAAAAAAAPiWKOaN8U0bZYpE0fG9Ec1yeZUXgpMTMTjCKqYqjCYxhb68baY/cuaSjR1oqHcdYPaiVfTGvD9aqFjY1S7b2VfNHt39qkzWgZe7to+SfZu7PDBa+7bbZHbuZ9PCy6wJ2Ppl9vT0xu0XX7XUtrOqWbm+eGfb4uezOg5m1tpjij2b+zwxUJNBPTSOhqIXwTM+fFI1WuT1ouilhTVFUYxOKnroqonCqMJ9riJeQAAAAUvl38Up+PZ9RTaynn6nmrctiWjwAAAF6bb/F1B+94vuEKS55p6WSFI5r2W1Px3+IbmS+rq+LzUoQ33kAAALw2NdbRb/xKFPf88skbni5kv8AuFKnnqE+4cZsn5p6EVLcFk8AAABdbF/4lpvtpPu1KnNfuS907nBlv8Ur+OZ+iesp5+oq3LYFo8AAABem2/xdQfvaL7hCkueaelkh3TwkAAAAAD3LXjV9vKt+j7bNNG7/AMQqckX692jflMF3NWrXmqj4tvL5C/mPJRMxz8nbOxcy0bTOXklvdxRqdq0lImq+pZHp9RvwlVe1jktx1z4L/Lemp33quqPGfBdK049ZrIzlttBHTvVNHT6c0rvW92rvg1Km9mbl7zTj3Oiy2Rs5eP7dMR7eXte0YG2AAAAAAAAAAAAAAAAAAAAAAAAAAAAAAAAAAAAAAAAAAAAAAAAAAAAAAAAAAAAAAAAAAAAAA6Vbbbfco+6r6KGsZ5GzMa/T1KqcPgMlu7XbnGmZhiu2Ld6MK6YnphQdy2ux6r5n0Tp7ZIvYkbu8j19LX6r8TkLC1q12nzYSpr/p7L3NtGNM9se/xUJcNqb7T8zqCpp7ixPmtVVhkX4Hat/ZFhb1e1V5omPf+OxT3/Tl+jyTFXunw96iq7G79bdffbTUwtb2y8ivj/Xt1b8pvW81aueWqFTeyF+z56Jjq2dsbHiGdqAFL5d/FKfj2fUU2sp5+p5q3LYlo8AAABeq3fxfQ/veL7hCkueaelkhSGa//wBs/wBN/wDLNzJfV1fF5qUIb7yAAAF4LF/FFB+KT6qlPf8APLJG54mZ/uGlT/P/AOKpmyXmnoRUt0WTwAAAF1cW/ian+2k+7Uqc1+5L3TucOW/xSv45n6J6ynn6irctgWjwAAAF6LZ/Ftv/AHtF9whS3fPPTLJDvGNIB2Kekqqt/d0lNLVSftcLHPd8TUU81V00xjM4PdFuu5OFMTM+yMVXUG3uVV3Kq29KKN3+UqnpHp62pq/9iadzUrFHLj0fjBZ2dEzVz6cI9uz3b/cri3bRxJyuut2c/wCyhpWI3/tH6/cmhd1mfop7fx8VvY9MxvuV9UeM+CvrbhmNWrldT2uKSVv+XqPvz9fOnPqiL6kQrruevXN9XZsXOX0rLWfLRGPPO3vVQiIiaJwROxDUWIAAAAAAAAAAAAAAAAAAAAAAAAAAAAAAAAAAAAAAAAAAAAAAAAAAAAAAAAAAAAAAAAAAAAAAAAAAAAAB5VbYrNcdVrrXS1Ll7ZHxNV/67TX5TNbzFy35apjra13J2bvnoiepSdZtni1VqsUE9A5fLBKqp8UnOht0arfp3zE9MeGCtu6Bla90TT0T44qAyfZF90oVp7VfUikSRr2sqotUXRF4K9i+n7Escrrv26sa6OyVbf8ATGMf26+2PjHgtDcNgs+o+NK233VPIlNUci/D37Yk+UuLfqHK1b8Y6Y8MVbc9OZujdhV0T44KOrtsNwLe5Wz4pXyKnatNGlSnxwLIhu29Vyte65HXs78Glc0rN0ThNurqjHuxUpWWm6W9ysr7bVULm/ObUQviVPgeiG3Reor8tUT0S067VdGyqJjph55lY16rd/F9D+94vuEKS55p6WSFH5r2231Tf4huZL6up5qUKb7yAAAF37D/ABPQfi/0VKfMfuSyRueLmf7ipE/zy/cqZ8l5p6EVLdFi8AAABdTFv4mp/t5PulKrNfuS907nHln8UO/HM/RJynnKty15aPDngpampcjKanlqHL2NjY56/EiKeaq4p3zgmKZncqijwDNrhyrS4rc3tf8ANkfTvjb+uejU+U1K9Qy1G+5T2tqjT8xX5bdXZKsKHYzcOsVve26ntzHfX1NTHw+CNXr8hp3NeylO6qZ6In44N63oGcr+nDpmF6rVs7dYqWkgr7vSwrDEyN6wNfLxa1EXTm7vzFJe1qiapmmmevZ4rG16Zuz564joxnwVbSbTWSLRayvq6tydrWckTV+DRy/KadesXJ8sRHvb9r03Yp81VU9kePeqmjwjFaHRYrNBK5Prp9ZuPqkVyfIadefv176p6tncsrWkZW3uoienb3qnihhgYkcETIY2/NjjajWp8CGrNUzOMt+miKYwiMIchD0AAAAAAAAAAAAAAAAAAAAAAAAAAAAAAAAAAAAAAAAAAAAAAAAAAAAAAAAAAAAAAAAAAAAAAAAAAAAAAAAAAAAAAAADyKvH7DXuV1dZKCtc75zp6aKRV9auapmozF2jy1THRMsFeVtV+aimemIl1H4ji8jUYtgoWNaiI1sULI0RE7ETkRD3GcvR9c9rBVpuWq326ezDuU9dNqsDvCR++WNOaLm7p8U88at5tNeDZETyJ2obNrV8za8tXujwa9eh5Or6OyZ8VKzbA4DKqqxLjTeiOpRfu2ONun1Dmo/TPV+bWq9N5Wf1R1/k6EnTthTkXkud5jXyffqdU+L3f9E9x6kzH6aeyfFjn0xlv1V9seDzpenDH1/A5DcI/Nzsif8AURplj1Ld5aI97FPpe1yVz2Q6jum23L8zKqlvrpWL/wDMQ9//AE1f/rjt/J4n0tT/AOyez81V0Gy9HQ0UFJ9PTSrA3l7zuGprxVeznX6pqXNcqrqmeCO16j0xREfuT2fm86+7FQ3iCCGPJn0ixSc6udSJLrw000SZmhlsa/NuZmaMev8AJ5r9L0zuue781Np01R/XZk5fVb0T/wDqFNj/AOnn/wBf/V+Tz/8AKx/7f+n83ZZ0229PwmV1D/taRjfqyOPM+pquS3Hb+T1HpanluT2fm9GHpxxlunvF+ucvn7vuY/qxvMdXqW9yUU+/xZafS9nlrq93hL0o+nnBmL7VZeJvQ+ohT7mBpin1HmZ5KeyfFlj0zlo5au2PBWFs2pwu10zKWKgmnjYqqizVEqrqq6rryOahp3dXzFycZmI6obFGgZSn6Znpmfhg9V+3+GyxpFNj9NPGio7kl5pE1Ts153KYY1HMROMVyzxpGUj/AMce936fEMUpOVaXGbVTq3sdHRwNX40ZqY6s5fq311T1y2Kcjl6d1unsh78cccTUZFG2NidjGIiInwIa8zM72zFMUxhD7ISAAAAAAAAAAAAAAAAAAAAAAAAAAAAAAAAAAAAAAAAAAAAAAAAAAAAAAAAAAAAAAAAAAAAAAAAAAAAAAAAAAAAAAAAAAAAAAAAAAAAAAAAAAAAAAAAAAAAAAAAAAAAAAAAAAAAAAAAAAAAAAAAAAAAAAAAAAAAAAAAAAAAAAAAAAAAAAAAAAAAAAAAAAAAAAAAAAAAAAAAAAAAAAAAAAAAAAAAAAAAAAAAAAAAAAAAAAAAAAAAAAAAAAAAAAAAAAAAAAAAAAAAAAAAAAAAAAAAAAAA//9k=;" parent="1" vertex="1">
                    <mxGeometry x="-160" y="211.07" width="105.26" height="87.5" as="geometry"/>
                </mxCell>
                <mxCell id="guWJe3HH57Yfrju_Ihq2-4" value="&lt;font style=&quot;font-size: 16px;&quot;&gt;ソースコード管理&lt;/font&gt;" style="text;html=1;strokeColor=none;fillColor=none;align=center;verticalAlign=middle;whiteSpace=wrap;rounded=0;" parent="1" vertex="1">
                    <mxGeometry x="-61.030000000000044" y="320" width="180" height="30" as="geometry"/>
                </mxCell>
                <mxCell id="guWJe3HH57Yfrju_Ihq2-5" value="&lt;font style=&quot;font-size: 19px;&quot;&gt;Java&lt;/font&gt;" style="shape=document;whiteSpace=wrap;html=1;boundedLbl=1;" parent="1" vertex="1">
                    <mxGeometry x="-61.03" y="40" width="100" height="100" as="geometry"/>
                </mxCell>
                <mxCell id="guWJe3HH57Yfrju_Ihq2-6" value="&lt;font style=&quot;font-size: 19px;&quot;&gt;HTML&lt;/font&gt;" style="shape=document;whiteSpace=wrap;html=1;boundedLbl=1;" parent="1" vertex="1">
                    <mxGeometry x="4.230000000000004" y="90" width="100" height="100" as="geometry"/>
                </mxCell>
                <mxCell id="guWJe3HH57Yfrju_Ihq2-10" value="&lt;font style=&quot;font-size: 16px;&quot;&gt;クラウド開発環境&lt;/font&gt;" style="text;html=1;strokeColor=none;fillColor=none;align=center;verticalAlign=middle;whiteSpace=wrap;rounded=0;" parent="1" vertex="1">
                    <mxGeometry x="562.26" y="320" width="180" height="30" as="geometry"/>
                </mxCell>
                <mxCell id="guWJe3HH57Yfrju_Ihq2-11" value="" style="endArrow=classic;html=1;rounded=0;fontSize=19;" parent="1" edge="1">
                    <mxGeometry width="50" height="50" relative="1" as="geometry">
                        <mxPoint x="140" y="239" as="sourcePoint"/>
                        <mxPoint x="440" y="240" as="targetPoint"/>
                    </mxGeometry>
                </mxCell>
                <mxCell id="guWJe3HH57Yfrju_Ihq2-12" value="" style="endArrow=classic;html=1;rounded=0;fontSize=19;" parent="1" edge="1">
                    <mxGeometry width="50" height="50" relative="1" as="geometry">
                        <mxPoint x="440" y="280" as="sourcePoint"/>
                        <mxPoint x="140" y="280" as="targetPoint"/>
                    </mxGeometry>
                </mxCell>
                <mxCell id="guWJe3HH57Yfrju_Ihq2-13" value="&lt;font style=&quot;font-size: 16px;&quot;&gt;修正内容を保存&lt;/font&gt;" style="text;html=1;strokeColor=none;fillColor=none;align=center;verticalAlign=middle;whiteSpace=wrap;rounded=0;" parent="1" vertex="1">
                    <mxGeometry x="190" y="290" width="180" height="30" as="geometry"/>
                </mxCell>
                <mxCell id="guWJe3HH57Yfrju_Ihq2-14" value="&lt;font style=&quot;font-size: 16px;&quot;&gt;ソースコードを取得&lt;/font&gt;" style="text;html=1;strokeColor=none;fillColor=none;align=center;verticalAlign=middle;whiteSpace=wrap;rounded=0;" parent="1" vertex="1">
                    <mxGeometry x="190" y="200" width="180" height="30" as="geometry"/>
                </mxCell>
                <mxCell id="guWJe3HH57Yfrju_Ihq2-15" value="ソースコードの&lt;br&gt;変更履歴を&lt;br&gt;管理します" style="shape=callout;whiteSpace=wrap;html=1;perimeter=calloutPerimeter;fontSize=16;position2=0.88;base=31;size=20;position=0.65;" parent="1" vertex="1">
                    <mxGeometry x="-270" y="60" width="170" height="110" as="geometry"/>
                </mxCell>
                <mxCell id="guWJe3HH57Yfrju_Ihq2-16" value="ソースコードの編集や&lt;br&gt;アプリケーションの&lt;br&gt;実行をします" style="shape=callout;whiteSpace=wrap;html=1;perimeter=calloutPerimeter;fontSize=16;position2=0.06;base=31;size=25;position=0.12;" parent="1" vertex="1">
                    <mxGeometry x="840" y="60" width="190" height="130" as="geometry"/>
                </mxCell>
                <mxCell id="guWJe3HH57Yfrju_Ihq2-17" value="" style="shape=actor;whiteSpace=wrap;html=1;fontSize=16;" parent="1" vertex="1">
                    <mxGeometry x="170" y="468" width="70" height="90" as="geometry"/>
                </mxCell>
                <mxCell id="guWJe3HH57Yfrju_Ihq2-18" value="" style="shape=mxgraph.signs.tech.computer;html=1;pointerEvents=1;fillColor=#000000;strokeColor=none;verticalLabelPosition=bottom;verticalAlign=top;align=center;fontSize=16;" parent="1" vertex="1">
                    <mxGeometry x="272" y="464" width="98" height="98" as="geometry"/>
                </mxCell>
                <mxCell id="guWJe3HH57Yfrju_Ihq2-19" value="" style="endArrow=classic;html=1;rounded=0;fontSize=19;exitX=0.5;exitY=0;exitDx=0;exitDy=0;exitPerimeter=0;" parent="1" source="guWJe3HH57Yfrju_Ihq2-18" edge="1">
                    <mxGeometry width="50" height="50" relative="1" as="geometry">
                        <mxPoint x="510" y="330" as="sourcePoint"/>
                        <mxPoint x="490" y="320" as="targetPoint"/>
                    </mxGeometry>
                </mxCell>
                <mxCell id="guWJe3HH57Yfrju_Ihq2-20" value="" style="endArrow=classic;html=1;rounded=0;fontSize=19;entryX=1;entryY=0;entryDx=0;entryDy=0;exitX=0.5;exitY=0;exitDx=0;exitDy=0;exitPerimeter=0;" parent="1" source="guWJe3HH57Yfrju_Ihq2-18" target="guWJe3HH57Yfrju_Ihq2-4" edge="1">
                    <mxGeometry width="50" height="50" relative="1" as="geometry">
                        <mxPoint x="369" y="474" as="sourcePoint"/>
                        <mxPoint x="539.8789999999999" y="300.0139999999999" as="targetPoint"/>
                    </mxGeometry>
                </mxCell>
                <mxCell id="2" value="" style="shape=image;verticalLabelPosition=bottom;labelBackgroundColor=default;verticalAlign=top;aspect=fixed;imageAspect=0;image=data:image/png,iVBORw0KGgoAAAANSUhEUgAAAggAAAEKCAYAAAB33K31AAAAAXNSR0IArs4c6QAAIABJREFUeF7svQd8Hdd95/u9vRf03ggCJApJsBdRFEl1WbIk25JtxS1OtRM7zkvyHCeb9e5LNsmL81KcbDZlU2zJsawuWRYlUqJIsYoVBAmCAEH0fnF7n3Ln7QzULBAEKFISKc35fPCRiHvmzH++Z3DnN+f8iyGTySjoTSegE1gQAUVRyOVyGAyGBfXXO12fBNT51ef4+pw73eqrR8CgC4SrB1Mf6aNPQBRFIpEIdrv9mrhYVbCoP9FolLy8vGvCpo+KEeocWyyWj8rl6NfxESeQyWQ4ffo0tbW15OfnYzKZtCtWX2iMRiOyLBOLxbTviUAgQGFhIcFgkIKCgrfEcE9Pj3aM2+2mtLQUXSB8xG8a/fIWRqBvLMaicu+szjlJICdLmG3Ot/7Yksnkwgb9AHpls1ntj1v9Qy8tLmB0bISsAhU+C2lrOcnpcYLhJJLJQokjg7O4msD0BG5/MZ54J5mIm7waPwHK8bmNmEWBwcEBfC4nTptExl7JcHc31XVVjI2N0NpYQ89wCpKjVNZW4/LkMxIXkRIhfEoCh8PKkOCkLL+QTGgYq9PFuZEIi4stRCIJ/P4i8goLUcQkwckxZKyIJgPV+X56oiYcNjPVPtsHQO7Sp1CFoM1mw+Vyfei26AboBBZCYHJyku9+97t88YtfZPXq1W+9xKj3stlsRhUQ3d3dtLW1ceDAATZs2MCxY8e0vurnanv00Ue1/9bX17Ny5UpdICwEvN7no0/gicde4jMP3j7rQlPJBJlUivyi4mtSIExNTWlvBkVFRSDGmO7bw0Dcyfh0lE/c+SCTw6O0nx0nOtSLt2Udrc4+EkqCQCJLsyeOlCzBWlDKVGEbcTHDUkccIZpCmDrH2XCKm7Z/ipcfexh8TbQ2eRk738fym27GIIsEBZnyPD+P7xuhtMrJSucEne3DnEylWLn+buqMU0gTPZhccOzCJH7JwIr1N7D/+CjxuIDV6qFpfS11rij79nSx+MZtRLIyq8vcH/oNpwuED30KdAMuk8BcAuF73/se+/bt08Tut771LdavXz+nQNixY4d2VqvVyubNm3WBcJlzoHf/mBNQH8aJROKa3J+W0kHSofN4KjZc9iztPnmOdUvrcDtmv71Ph9OEoxkaahe2hfHw7t18cfv2y7YhlpVJijJlbutlH3u1D1DnWV1BcDpnVo70phO41gmoovbgwYOcOXNG21L42te+ppn8yiuvcO7cOe1efuCBB7TtA3VL8pFHHtE+VwXDmjVrLnp5+hbDtT7run3XFAF1Py8ej2vLdXr76BJQ36B0n46P7vzqV7YwArpAWBina7rXq+ei16x925b6rlnbdMN0AjoBnYBOYG4CukD4CNwdo7HcNXsVFV7jNWubbphOQCegE9AJ6ALhI30PqHul12pTvez1phPQCegEdALXH4H3vIIgZiVyOYWkKJDvdaFmWxLFHCajAZPJwOuvvULbuhvJGUzYrEaMBgPqw0J18PL5fG+FVXzYyGQhjclqR1JfwhUFs2n2G+/DDz+MJEk0NTVpoSGxWJKxkUES6QwFxfnUVtVgwEAkJRMKTmCy2Cj22Mmh4HJ53r5EKYOkmMhm0iiKAZfHQzqdxmyzY5CyGh+Hy008kcLldGCQs8TTgsZUTMbxFhRhsc2Ov3+3QJCT/STMdXiNaQwmK5OBKdw2NbGPgUQ6h2y04rQoyFYXQiJJYZ4Ni82j7avLQopMWiAnpPHk+0lJRuzZACeGw7TWLAKbA4cxicloYzqZw5fnIxmN4PO4tZhxIZslK4q4XS7NkU8XCB/2Ha6fXyegE9AJzBAY7w8hZCPULK1m5392cNtDq7Tfq8/vtCCDmMXpetsx9z0JBNVb8sj+diQsOEt9OKwWaiuK6O0doLayjLHxQSRDAYnR88iFi1nTVIbDaiQcDnHw9ZNsXL+G/LxrY286G53C5iskKSiQU3DZZ+JB39nU2NCSkhItIc327dvZvecEW7esYHpqAqvDgd/nZ2hwDKuvkMmJSRpriklGAsQjAeqaVr89VPA807KPgXOnEXIWNmzZzOtHT+EqqcYRH2EqGCQvr4DxYILW1mbMsX56x4IYMSAkMyzftBmPzz/LvncKhOSFdmIXzuPf/gDm8DlM3goOHj9GjTtNPGzi5PF+MhYv7sXlmEoXYQlOsXW5C2fREqbGBpGCg0xHEgQ7D9OyaSVBYw2lxihPn56kylVJ3bIGimxRBi4McXgoxg0rG0iM9bF81Y348goITo3QN5lgaX0dHqddFwj6N5NOQCegE7hGCFxcICio78dTkSy5RIjyyvK3rH1PAkENARoeHEExWamsKGYsEKa0wEckEiTP72dicoLS4jImx8cwuQsoyfdob8FqC4bjeFwOrNbZD+JrhOEsM8bGxrTMVOFwmLKyMo6/fpRVa1cjZpNYHWoiFQOBqaCWAEbOge2NS5NSMczOt5PvjHWfpLC2mWQ8Sk4xkl9YQGA6iMHswJTLouQUxGwaq92By+PFICZRlByClCObFbXxTebZmd3eKRAy432kAzHylreRy8YxWBwYjCYUIUoqLpKMzHjfJ/2F2K0WvHYzTpOAbLCgSFmMORGjxURyegKrzYrFVYAiZhkMxnE61bl0cub469j8BZitFnxWcNvMWDzFGExmZDFNPAM2qwWHzaILhGv1ptbt0gnoBD52BDIpNfGbiNPjZGo4SnHV7BfOd0J5TwLhY0f1XRcsSWpmqstPwSpL4kUf8FfK84P2QRAFAbPFsqBcAPoWw5XOrn68TkAnoBP4cAgYJkIJxe+8ft7mP0hM10uxFjVm+1ptgiBcq6bpdukEdAI6AZ3AJQgYvvezXuUbN1fqkN5FQM1EdalCLdlMFpv93dEDCig5MLxRJEPMYrTYNEdE9S1fHfOdLZ2RcFzE5+HNPplMFvsb50hn0lgt1rcKcMw1YRe3a3ZvSUhpDpP2NyIgVP8KUcphtczYrrqtyJkYBruPn7M6J2lbKhjf7LfwW0cWEqREA54389srEhh0cbpwgnpPnYBOQCfwwRFYsEAIByYxmcz0jYdpXFTFjleOUbmkkeoSExMXJli5rA7kLJOChXAoRm/PEFu3refI4ZNMTwxR489Su6SJksICsBay5+Xj2MsqWNdayr5TwxSWVdJ18hgF1hQtzQ1ErZVYDCn69u9icdMKOoemWVWcJVuxnlw6SG1JPuNjHXS0j2KwOyj2uAmPjlFV4iWWEWlqqcJe3MShoTgtFX7Gp0JUFfnZd2KEeGyA0opqluYJTATN9AwOc+vqCoZTTvIZo6xho/Ywf6dA6Ow4TkVpKYOTYZqWNCBkJaLJDNlIhMlUGn9RDcT6KfM76B6YZs3G9QjJOIlkhslYhGQgQtvqBmQhx1gwS2VlGTlJRlQgGZ7EakhzfjyCSRbJmX001tfgtJkZCcRwmiS6ujtw2X0sX1rD6f4oBT43ipKkblEjXV3tOM12KkrLMNgcDI2HKcu3EYpntCI+LRVO2s8MUuw3YatYwsjAEItLbHSPpykpryUZidHS2kA8LWExG3FYTZrQSY+fwVK+nPT4CO7Sck4cPEyxX8KEi4GoiGJxU+qBnLuQyOg4K1pLsbpKGR0dxiJMc2EwjktJU1S3hHBWoNQ0Rfu0mfKCImw2L6V+iVQixYTgorCkiKHus6xe3jpLSH1wfw76mXQCOgGdgE7gTQLvEggJTp26wMjYJIrRzN23v51PXRIF+s73UlhWjtFo5tnn97Ph9psZGjxHcrif++7aCmKCnoSBQ088ituaJeluxuQpYCKQI9L+v/ijP/kzOs70Ut+4jJ/8+w5yVoGChkUUVyzm9JmzVFdVM917FLsjn6LlW7F3/ID6ZS1c6BthZ3uUO9dUcXw4yw03b8YQOEuZeZyf7urDYpYYn5BZ2eKlZ8JAtTPDHZ+9mxP9aWpXrOVs+1FcUpS6umU8/W9/ypYtGyhctJqMwUyer4IfPnOcLTUhjk97uKF0iqU3fnGWQIhFpjBkJjA4i3C6i5GzMUSjm76OQQb6pzTHwqU31WAY6cOQiVOx8iZEWSQpGOjuPYvVV0lenpOe410oKQubtjQSHj1LxZKVRFNZBs4cpbLYzN6uIIrRxMa2lZR5jIgWP6HAJO3th1m9eiXDXT2Ut2wgmDJQ6jVhL/Bw6MWnsOdctLYtJy/fSVJxEglFCU9PUVdTjineQxoHmYlufGV14K0nPXGWQ8MGVre2kue2YLOaCE6MUFRZp4WkTh/Zi5SYoGT7Zwl0dVC0pJVYcAQ50MnUuJmpQBbF6oCWFZQVuXEoEhXuDBkcCIkwRPsxOPOZ6OzA6akir7EecbKD3cNmWlpWU5vvxJybZteBExixsKjYitMgUd6yXXOq1JtOQCegE9AJfLgE3hIIodFeDh47yN33fonBwUEeeeYYn/3UrSyuml0C98M1+YM5+3xbDHNZoS7Vqz/vbB3nB2msKdeiBt7Zrhcfh/eL+NG9r7H2pi3v1/D6uDoBnYBO4CNF4M1nxsWeM+rv1M+v9Lmi1pt58xn2lkDY8cTLrNxQTmllswZ095ExqsvcukC4zNsrEokQi8V+7ihBNqBu7Ru0dBRvN4/Ho1XWmr+pUapXN2WxuiKUSceQMjk8+fmY3qgHPr8teg+dgE5AJ6AT+DAIqC+uJpOJaDRNPJ7CpIaoyzJvOoMXFBRopZrfq0hQEwKOjo4yMjKCw+HgXQKhgTNdPeSEhLYMvXrFUgq8sz3k1TC/SGCcwrLqGUaKghwf05LyzNVSwPVUOHW+FYSePZ00bm2ZdbnHDsU50BFDrVE0poi4zEZEj4RNzpEZteKvzRJKmoiFTDx4r4viwgLOnevC77Jy+OBJHIV2yosWsWx5C0d3PMOk5GZFcxEGGSLmQlJjx5EcS8kIURAUlq9bTfbUy1Rs2EIwa8NvNWqZGttPncChgMeY5uiZCWoWORFiFkKJNI1LfAxMutm0rlrzkygsX8SLO18lv7GFVFqiMjvC0nX6m/2H8QWgn1MnoBPQCcxHYGoKgsEwNltY85VLpVLaf71er5YR1263U1hYON8wsz5Xw9K7uro0gaC+vL4lEF547KeU1pSTyiYxpUdo2nA3Pp9X9Vef1ZRcjkAoisXuIs9t5eXXXmWpK8Gr3XHKVtzEMqUHf9M2zg+PYLVZSCr5lBTkCHcew5mWMVviPNcj07qkjvVrlzE7efBlX9dVP2A+gbDre89y6+/dO+u8u15M8/gzEg4hy7TLwuqmBP5SheriFP1TRsYnbRTboKouw7pleRTlOYlMjxHo2Ifiz+eJY+Nsu/kWqsuqMYwfQbTVUZDnwKAoPPwfLzIuSjz4wCd4ad9pFtWWYi2poWz3X9DyK99hKmul58hJbryhnr6OdgyxAYToCIq1iOLlW+ndfwF7oZ9dLz9NbUU5n/vNbwEhwMf/fvY0a9fUks7mKAp3Ur/6xqvOVB9QJ6AT0AnoBK6cQE8PDAyMksudRs1srK4YqNsC6upCMpnUhEJzc7OW4M/1ZtTYAk77pkB4cxV8wVEM7xxbDYebmk5QUeoFMYycinGydxSzyUwsmGLz1hv598eeZ/PyMoqWrCMUlTiwfx/FhiArFy3BZk8zNRkkU7OJpkof12IU/3wCYS7Wr7ycwmAYo7TsYvH/BoaGnAwGYd3yNFVlhe9J5S1gnq+oy492HuYXbttwRWPoB+sEdAI6AZ3A+0Pg7Fno7x8jFttLIBDQVg/Ky8sJhUJUVVVRWVmpCQd1FaG4uHje8Pg3rbwqAuH9ueRra9T5BEI8kcTjVtMs600noBPQCegEdAIfHIF3CoSpqSnN76C0tFQrB6AKAnXLQV1VUEWCKh7UGkKqf8J8bZZAeLVzUtlYf3mFk3KKgiDI2N8sOjDfWa/Dz+cTCCNDA1RW116HV6abrBPQCegEdALXM4HBQRgbmyaTOU08HtcqJKtCQP3/6upqzXFRjUZQk/SpWwzqSoIqIOZrswRCJpP5edf6+UaY8UkklhIwmYy47WZO/uxn9IoWPOWL8FrcZAJH2H7bJxcw0rXbZT6BsO9EF+vbmrBe3eCCaxeIbplOQCegE9AJXBMELlyAwcEJFKVTK4i3ePFi1Ag69UcVC2vXrn1PCeeuikAQhQxTQ+cpr1+GIZfklX9+DhmQ3E5W3XIDBYVeFIv1mvQtWOjszicQREnGbDZd1IlzoefQ++kEdAI6AZ2ATuByCahbDBcuDJPLndCiFpYvX67lL1IdFNWH/Pr166mpqcF8meHr8wgEhdP7nyes5OF2WmlZ1obtGi4EdLlQL6f/fAIhFo/j9XguOqS6JHOx6A+1czYDOQUcDvVfCnI2hck2hy9DLgtGtd5DDgXjrDEjGQmf3Tzr97mcTDQ0hSjI+ItKsFrUBE1XP5fC5fDU++oEdAI6AZ3A1SGQElMYDUbMRjM5Jaf9WIwWpJyk/d5iuvxqw9rz6Y0wx7eiGH5+i0EgnrPiMULPiYPkl1RQWFFzda7oOhtlPoHw0x07ufvO2y4qBNTVlFMT4BqGmBtqSiEwDMZyCPSAxwwr16nlDmRi/QcQvI04bQYMqThGd77miVpevRgS58C9BAWBwWgO4fww40qWIq+N5iWNPHx6ms+1eMkpFqJqeKLTRO/585SWFvHkv3wXt6WUbZ//RSaGztOyag3jYxOM9p1j1abbMOrpjK+zO1I3VyegE9AJzBAQRJmO/klKCq0kcgFNGJS4SpAVGZvJRp4jD8N7WN+eRyBIPPKjZ/j0pz7B+OgwBcVl+Lyz35JFUWB6fJiy6vpLzpca6Ke+Sb83LfPh3grzCYTndrzMPXfeMmsK+s7CoQsgVoF9N3TZYWM5lFdCqgwsU2A0wPIVYFJk0kN7OT5tpbK4mAvdEVpq4fxIksqVm6hwZPjPH71EXj6Eilso7x2lL9FFQfly7rmpkX9/8ShrbryR/sN7qatroMjv5CePv8av//ptPPI//5alrRtoW9XIU8/s4ROf+iRnju/n1Ik+vvUH32YiY6Taq9c8+HDvMv3sOgGdgE7g8gkEQ1HGwxaKCxQsdkETA1aTFaflytIRXlIg7HzmMdZuuQ2f36t5QBpNJq1wz7ubmpAhEE5gNFsp9No4+eoeJs0FGKUwa1c0kJdfRlcwTJU1Q/e5M7Qu34zNpq2pXzdtPoGQSmdwOmaneFK3EJJZsKvzlNGSHWI1gN01s8hvyIGcA4t1RjwpUoasjJZDIiuC3SwhygaMFisWo4FQKIxZTdNsc2JT1GOzYLJjtxpIJNOYHS4tG6LDbtfCWpIpAZ/PQSIWx2S2YrOZUctK2+1WRCGLJIHH60LMgdU010bIdTNNuqE6AZ2ATuBjR+D8eZkcBtxOA4ojhaRImIxGHEbwuxyX7XvwJsA5BcJQ5xEKqxbj9ObPC1tNlBQIJikv8YAUAbObkZFpxvp7cFc1cmDX89x//32cPncOIZvlhvXrF1hzYN5Tf2Ad5hMI6Uwah3226JElMBhBEkFSV0/MoIhgsc0IA/UBrUaBzGgLhUwmO5PEIidjsdnI5RQkOYfVYiabSiBjwqoVcjAiSDIWo4LZatfERTKVxulwkMmksdmsWrZFUVYwW8wImbS2fmO12TThEI/HcNgsKEaL5veg+jZYrWaMBgWDyUwmncFitSLLORRZwuZwaIJGFkXNG1YWs5jMFhSDAVlWIKfmAJ+pL2HW1I66GiGjqOdUHWMuIiw/sMnTT6QT0AnoBD7CBNRUA8ORUeLZOBkpS57TRyitZsVF80UocBRQ5i7DaDRoPwttVyWKYaEnu577XVIg5FLs2r+XmzbdjtX883GO4amZ1YNdJyA2CnmLIF8Auw8ceTA9AqkE3HKL6oOQ5dShV0nlLOTZTBSXlpLJZugaiXLb9ps4u/sxguZaGhcVMJE2cuZoN6IwwqZb76OxopB/+/GP+eJn7uPoiTNU1dRSYAixt6OXlpUbeH3nDhY1NtCwtAWHzcbf/PUfc/eaejrGXNRYx4j71hLLRtjYXEh53XLaD+6lsn4xp9Xy1ee7ue0rX8XmhETfeeyFhcSGuzGkMiTMRQwM91FbZiWeduAQYogmKyMRB/lFMepq17KovACD5fpaMbqe71Xddp2ATuDjRSCXg1BYBsU086LmTGmpltUVfzmTQxZz2oudy2XB61Ed3RfWropAUNVLNivhsF+P3gULA3VJgSAnmAon8PqKsKtv9xdpx8ZBOgcdAty7FkaHoKIBrJmZVYSiElUgSEQ6XiDkqievoIhsUN1OyBJMKyxtWaGlscaSp40+GE2R7h7iXHCE1pYWFleX0Xmui6bGRYg5KxHVSdEUo6uvh/yKJoLDQzS1tmo1INXaGWc7T1LhNdN+epItNzYTw8veo6fY2FJNSWklSDEEKcfo+XEGpsPUrlpHqQccskDa6sCBmfFzR8nmiglHL9DUtga73Q1ykt7uHobGEhSUWVlS10w2HcdXWLkw0HovnYBOQCegE7gsAgoKCSFBVspqUQuiLFLiLrmsMS7W+aoIBDWML56eKRDhsRt55JHn2b59BZOjI4yFZEKj/Xzxq1++YmM/zAHm22JYiG2iDCkBfHO9TCsKUiqK2eVfyHDXRR9ZEsnJEpbrzOfkuoCrG6kT0AnoBN4gMDYuc/6CRFFJAknO4LY7yVnSKPak5tOmRjYUOYvw2xf+fLkqAkESMgSGz1NWvwySA+AsQQ4NEg6JmO1u/FWqH8PlpW++1mb9agiEa+2adHt0AjoBnYBO4PonIIrQ1aWQE6dIxHs0x/Y8vxfZYiSUFTHmcjjcPvwmHwajWpNBpqbSrmVZvFS7pEAIhqNkZSPlhRdPAHT9Y134FcwnEDIoWDCgBwounKneUyegE9AJ6ASunIAaZRhLxTBbzYg5URvQZDBpORBs5oX7HLzbkksKhBf3HyWUtXPLYjOy2UVZRfWVX8l1OsJ8AkEhh4TxuszxcJ1OiW62TkAnoBPQCWjxbwrT0QSToQwZOYTLlyMlpfBaveQ78nFZXdjNs8Pw54N3SYFwcv8Oyps3M9H+AvmLV1NZvfjiuZgulUtYK+akaP4J13ObTyBcz9em264T0AnoBHQC1zeBYBBGRiDr6cLrNVDhrdASJqlOi2rSJDUN8+W2SwqErn1Pc6xrHKvPx6cffAjzHA/5jCBxuGuUppoSSpxJzo4Y6AiJtBXbKXSKWt3pPX3ZGdumO/D0D9KfyKO2zcHaNTdcrs0fSv/5BMJwXzdVi5Zc1DY1A8FcfomxKFpYipodce6mpVTSfo5NwJo5qnRO9XZStKiJl3bu5I477rgkp/5IluFYli3VXq1fIhzm6KGjNK9fT0nB5fiL5DjY3kPbkjqcDhvD7b0IqQz1m1o/lHnST6oT0AnoBD5uBARR5OT5ARKSSKWaHclThCkFJcVOPO73HmJ+CYGg8PjzO3GWLOETa2sXzjs9xStnkpQWOfAbBazePAp9bvrDapog6DrfwVKzkbTipaDSSVlp2cLH/hB7XlogyLzw0mtsv3Ub9neVexbUTIoCfPcxqO2Ewxa4ZxskTHDqArSUwKYyWLVRXWmRuDA0QFG6n769HfxtsJx/+fZnSWazWHKCVp7p0FCMqc5DmGJZVm3eyP/eNU4kMYTRXsSnK0+z4Z6v8tpre3BUrGVNqQEBMx7TFENdozz68nnu3d6KOLqPgi3f4MkXduDo7OGX//T3EdQtknSAP3/mHEJ3ltpCA7c8tI1XB2Kc6jjD6rZmPtXkQHao82pgNJKiInueY+dHsbgcuEZfJ79yCc8/1o0g2MgVWznf/WPuvOv3ufWOzZg889ce/xCnVz+1TkAnoBO4bgmoq/SZVAZj3IrBlkGyGXA6ryzNsgrjEgIhx8h0hOHxGBuXXYZAuG4RX9rw+VYQ+iamqCotnuWDEA7ASBjGTWA+CWfN0FwE1WoOBDtYI5DMQF2DlqCAzu5O8k0yyaEIPYUN3LikmKFQCo8YxoxAX0DEZ0kTjE5SWt5I19kx/IuaUTIStuARFm28jf7+QTy5FF6HkaiQobmhnp5TXUQppNQ0xcjwOHUr1tAxPE2tJNCyfR1jcZnUeD9jFGLsm8ZZqZA055FSvV2rqliSZ6C7r5u6xY3YMXGsvZ3m6kJGhkbJpMLkOQSKm29l7/M7MaaN5C9bTCLVx41rtmnpo42O+TNyfkRvHf2ydAI6AZ3A+0pAy4OQTSDIglagSd3S99l82tbClbSrEuZ4cQPUGoaX79OfiCexWC1aquBrqc0nEBZiqyDN1GXIm6Oa80LG0PvoBHQCOgGdgE7g3QR6+7McP5XFVtCDpXSShvwGzTFRFQ2qk6Kaavly21UTCNl4UMvZH5wYpGLpWhRxggOHe4i6FuFQTAwe3cWnH7ofk0nhxz/6AZUOF+nSVuTxPjbdeSflRX56ei7wwpP7cDkl7r93JU+/PkaVz43dkmbt+hvZ9epP8djyWNnQQH7d4su91ivqf2mBIPDMjv1suXU7+RfxA1GDTubKMdl7DtQyCa0rL9M8MQImFxjfHnn3T55my6fu0WovLKQd3HmYitpyahrfjk45/uRemm9Zg8N3cRXTPS2S7zBS5Jot/nKiwN69uzD4K9m6ZoVmQqBvjNDQFEu2tr1lUnLiJEazg3NPHWPlr35hIabqfXQCOgGdgE5gDgJqmOPwVJikaCbflMEsxHGUlmGz2t4KEngvTorquJlM5q1iT4ZMJqPGJLynlgz0Y/MWY7Y5iYz2cP5AHxm/mQ3LCsBoxljYQi42hNmVz2OHRvDZJbylS7VzVZsC2K1+Du/pZsOWMl4/eoCtt9zDaNqE12og321m189+glV20bqslbK6D3bbY74VhP5Th6hbsXEWt0wKYv9nC+EH56B4J/RVwK2rYKAdcmvANDqz5dC2Fpg4zqSpGLfXjtS/n9H+fpbe/tvEJs9xbnCSPUfOsqlwiq5pO3duuQ9XdRl/++ow+V0DBBorME8c5Y++9ouyPvZeAAAgAElEQVR0xc1M9JyhwDLKybPHWL3+Lgb2nUH2lDI+NsFn7mtEGDjBUKgQe81i1qxqY3x8mCOv76VEqmbRDcv416d2YDRUU99QRXbyKMHGRu6tqaE7DCvK7CgTRyj02Om7INFxfC93/fLXiYsKB/ftwp31Y0sfozthIKr4uGPJWnaGjawqnMJf3srI4UOs376Ejkf3sfZXb+dY+yA3bb2JHBbCwehlOkm+p1tVP0gnoBPQCXxkCKjlDsYjCZLhaeyGLNO4ICxRV+nD47ZjNJsRlZk0+wajEbPJ8EZkoUH791xRhqpAkCQJq3VmRf+KBMKbtFWHidj0OL6i8rcmQP2dLMtzlp1UlzJstvee0OH9nun5BMJoOE1F3mxv0d7T8Np5aFYFQCeMAJVGULVEzAjmxIyAqFJf4mWJF55/lk/ecxfZ4CD/8dQrfOEXf42+3gtMTk4RD1wgv347NSUZYv0TnA0LVDe3kT1/gZ7YJA21ZWxdt5qM0ciF06eBNAazgq+kmc6Du7hhRR2O4kr+9aUzfH5NMfFsHmMDHazespWRqQSDp8/QtmEZx89FsMZOYWu8hcXFbk4+9wT1t32Kk6+9QHNdGXlFpezZ08dNa/M4O6oqzAk2bryBviQ4s1NEQxPIhkqchimMLhc2XIwJNjY3lfDa449T0NRERLLQ0/46t937KbqOHeC2224DjPzj4y/z6w/c8n5Ppz6+TkAnoBP4SBEIhdMcOzmGTTxJVXUVcjKFJ2NBEUXEwnIGwgJCJk5+gZuyEjcutxeTyYLV7sRiufga97wC4Wcv7eKu22+9eP6DjxTeS1/MfALhY4RCv1SdgE5AJ6ATuMYIxOJZunuDWKVeSstKkdJpnFkTsiCQKa6kfzhFIpGkoihHQZ4df2E5LtelHeLmFQjnpqfxpaOkTXksKl+YJ/qx13ayZov6RvjzbWxkAovFTFFJ4TWGdn5z5hMIaqaCJPDupNTBCXC4YHgAxmWoLYfUCNQ1QywGA0OQTsGWG9XlH5n2k8cp83lw5xdztL2dm2++WV1a4HTPEFanlUg4SZ7LQCYWorGxmeFgGLvVQWC0n44Lo3zh/nuITAySVKzYEAilDdRUl9OhRh20tOLzWHnlUBdLiszs39NDbY2L9TffouXmnhgZJxYYprFtNVa7nYnpJAd2nSffNc2WT2zjeHs7Xr+fIr+fF155mAfv+01iySxFutfl/DeQ3kMnoBPQCbxPBNQV+nQyizhtwGAKIyfDeBfXY1AMM9sKFguimEOSFcymHCajAaPJrJWAvlSbUyCoH8g5mWmDkRKDgUOv7qK6rp6qRfM7BwqiTN9EnKXFslbL4fETYeoyk1BcytRoP7aaNu5qXpjYeJ94Xvaw8+VBmMomsZm8+ObwD/zr16H4FegphXs3waE9sPF+8IRmnBSXrQLGj5AtakGQU1jGu3n4yWf5ld/5niYQfvDIY/RNTHNf/TQB/zJu2/YZ7Rr+29Od2A92IDWV4GKE3/zi54lYLLS//DKiOM5kaISmxjW89tOX2HjzTZzoDPKNB5cz3HOGkZgfe2kdq1YsIzQR5cmHH2Pbp5fQUK8mrzKRCg5ydP9+WjbfyT8e6uc7dyzlySf/k4bWTRw5+jS/+uU/RJZzmM2XH61y2ROgH6AT0AnoBHQCFyWgCoSsnMVitGhpl7UMiqpvwRWu/c8pEHrOnSWSiBGOZmlraSAYitLc3LSg6ekfDlNXlaf13b17N0sKnaQL6kmNnEHIiFStuoESz/UV6zffCsJCwASTcH4SNiyav/f4iRcoXbYeg6Xgrc7P7XqVT966bdbBSREOHj1FS20x5eWXH8oyvzUX7xFPJBmZiNC0uOK9DqEfpxPQCegEdAJXgcBIIEb3UBijJUye30alvxyb3UgkE9GEgsmoOvx7ycgZreSzWsxpvjanQHht5w5Kqqp5/LnX+MPf+zXN0/Hj3K5EIKjbD1edniKBNsFv17jICUkmowbKihaWQSsZT2GxmrFeJOfEQE8PldVVWvIms8NFSgTnO/xYLgyOU18ztxgRcmB946JTSRGDHMPhVVeN5q/Jkc1mECQTHtdcwaEf5ztRv3adgE5AJzCbwMAAnDwJ5qIOKivs1BVUIZmTTCYmtSgFNcyxyFVEQkhoOREWEvY4p0CIRUKYLFaCkQTVFe9PmtyMlENSwGVRl0Ku7XZpgRAhh59EDrzvUgLnO8BfBD/8DziXhWWtYB6EGx6AjuNgcIBDhk/eBUgZfvjv/0RrRQlldUv4/t//FX/5Dw8jC0Ee3XGIZCrMSF+Egrw4VgU+/7kv872nX2Zp2RK6zxxAELL86q98g3MHdmIrLqeQAK8eGebTX/kcj/7zP/Op+z9LZanIH/7V43yy2ca+Y1l8fiNf//bvEUlJPLFzP77EefKX3c/G8il6R5KkEnF6jnXR8tBv0PHTfyC/sICm5ev5+8d+yn/5wp288tOniMWsPPT1X9FKjT7x6JM0eG3U3H4b+x59mGmqMaRFMoEuvvXd7/D0E8/hKC5lcDjN5z+/jXgmweEXX8DpdLOm3kt5SwujQxb2vPAsQ1Nd/O53/phgzkLptRvgcm3fuLp1OgGdwEeegChJnOkbYyoukssFkNMZllbUYBZERlMpFIOBxTU1SIEgksWDw+PC6DQgiznsRiM+r+OioY7zOileLtnghRPk161govcEZY2r+cEP/pVSOcFI5XpMcoLJYYlYtJctpVam6m+maXEZB3/8BE5fgs9/5TfV6M1rss23gqDIKSSTc86ESH96AMpfgt5a2NwGx7rgtu3gmQI1V8JKNYVC6CSidxGinIWxc3zl+4f44V/8LuGUyNgL/8LOUYkWywimptV84raHNE7f/kkHtlf3UHlDMYqS5auff4iQxUIhOUKhbp589lG23vIZqu0GOroOcvrlAA9+ZjGhSIyh6FJOTQl8/Ss3Eg6EGeno4NVkHdHDHfz3P2pGkp0oskDct5iuCVheIXNsJEODx8JTP/nvfKqpCkdhNVJ4iOK1X+LEaJw9P/47Hrz7bqzLNvDE3/w/TBUsxmtYyf1tGRa1rGBHv8zzzz/Gg23VrNmyDlN6ArujBoRJCPURV2RC6VbGhkNsvEnNdWEkJoD32kqseU3eo7pROgGdwMeXQDYrMx1KYpSDOBx2jLkcxrSa0XimyT4/iURc800oLi7GZLqCLYYrwRzuP05e3WoQ1Gx/Zp7dN0ShLYFgrsTttBOxmEiNDJLvhoIyL41lpby0/zCf2Lr1Sk77vh47n0BYyMmnE9A1DjeqdRfmaRNHXqIvHmfTzTPOiGp7/PmXeODu22cdOT4d4ZXXTnHzpmWUlV77zp8j4+OcHk+ydVkdDsulb9Jg7+sULF4/Hy79c52ATkAn8LEmkEwKTIwmMStjeL0ecig4sCIlk8jpNMmCWsKRNFaLkdJiM5nEFGaTDVHMkJbzwWDGa4sST5uRFCc+r510Okm+34Lb49fYLihRkppqMZd7zwkXr8tJNBmNF60PkUknsdkchKNx8vMuXiZZrWM5V/Jj4f9UelRyYLNfJhYpASa7NqlvtsR4Hz1hD6vU1IwLaEO9w3j9HvyFM5P/zvba88+wZv16cpKAu6yG0ThUeECQFUwGePiJXXzlwdmhrHOdVnVodLuc2jKWkM1gMBg5+uqTbLr98z93iOqNG08k8HhmAkZDXScwLl6lVck0GqDr7EHaWjchCCJq9jD7G/4TGUm1Dbz6VsQCZl7vohPQCXyUCGhRDFkBU9oMpiw5MY3R650zAdJCr/09bTHIskJcdZ3/GDWr1Uyeb3amxNHzpyiuVvfUA7jLmil1zXZHVBd5/tczUDoFnTnYthECApw+B4vLYV0ZNDYDYoic0UJCTGGOTxEb7qJ01YNkQj0YTDZefOElCmXonOpj2x2/QENTM7/2/adYW7IUY7mP9me/z82f+x1S8RQ3rq2jkDGefORxbvrSV3FMBQmEcojxTorzVXeHOGfOZpmwt/KFB9cRi8R5ZddrNC5p5HSPwJqqC1TXNZMTM4y5ljKVtrChAs6HRYrtRv7sL77Dn/zSZ1DrkMcCA5S23Y9itHH22Gk6T+wFp5/QYC/u1nVkDGWQGeaXHvwkIxkDZzpOsaLCy+mHH+Gub3+TnMVKGhE7HoyKgVj/fiyWfAIXzpFXv5Kp/HqKHbDn0AEudLzAJ7d/hdcPHaNt0zpinlKiMYkiv4vs+BAt1T68+W9HfnyMblH9UnUCOoGPMYFwOqxFLIg5kTJPGR7ru7PyXD6ceQWCLEm89JP/wJpfwMrV6ykoLteSLUSiwrxniw9HsHps2PxGfvTIj/iFL3z1oseoCXs2b20kODHKkY6zrN1wA4Ve1RNfXaVQH68zb8k5MUVqsgN35YZ5z321O9hsZgrzZ0cHnDy0h6rm1fSMBVi9dBG2d3lbTg7DuQnYk4CSn0F7CTQUQOt6cLjBOw7JJGzcrq4kTNJ+vINVK5Yz1bWPU2MWlt1wOwdP9eA+v4ejIxPEx+1suruK5bXrmMgqPNaVpbZ3kMqbl3Dh9D6+8UtfZdpgQp4YIpXoY8+BV9l039fJduzHKI9hDAm0T0ywfeUSBiON7Nixiz/5/v9NX1QiL97Js8dEjh8N8uA2EZe/HqNF5nzUSFXjekyBI4xkbKyoyOfvv/9f+K9f/RI9Z9qpr3JTvO4r/OW+YTLP/Q0hk5nl1kYS+QEGDPmYlQbW2Sdpuv0eXjx9jqQ4zc0N5Zz+4dM88D++wVh/H63L2jDg4cHf/f/4r79+Ly898RNy05188kvf4PioQnWeiaMvH+LQVIgaWUFwwhduv4NXAmE+e/utHGg/gzMxwrqWxVTWt1zt6dfH0wnoBHQC1zSBM50Kr+zOUVBygRUtPlweM5IrSPtEO0aDUavs2FTUxFh8jLXla7V/z9fmFAiv7H+d0YELJA3FNLsiNLQ2kl9cgd1bsCCBkEsnSYxEsZcWoAqZ7//VX3DbrduobdyALTeGARlZNnC8e4KxvhTTZoGmwlraVlchCQInxiW2NhWSkeNYVEe1aIaAaIfep3h9GCpW3MGGRfkE4xOMdhzFUrSSdHSEGzdvnu+a39PncwmEyxkskoKBILRVLeCoxCjf/IM/5/vf/7u3Or9y4DA33zBbHHV1dXG08wKfue9unAsr5LgAA/QuOgGdgE5AJ3A9EFC3GMYmBAZHFNKek3gdRpaVtGFQFCQlR04NO7fM1GUwqn5fBjMWNXrQcOn4wTkFQnvvBNZcip8+vZu1ywuYiivccvNNFBYsRCAoZAa6EeMCnmXLtVWAl1/6GUvq68BdQ6k/h8VsIJtMMjKdIB0exG53ofgXoWRjhCcCrN2wAYPJRDiZwmw0cuL1fdy0ZSvZUB8jMTB7q7Tlbb9TQIjGqKyqYdeu/dx62/vj6DiXQJgYHaKwuIyBvj4WL1ly0XtJXQOZyxUvEgJJgsLiy7wNc1kwWMDw9pbGcHcvFQ2L5k2f+eaZxgbHcXvdePNmL0WdnkqxrHhmxSQqgseUY7Cnk7qly944/FJFrGe6qGWdXaUzdazP9w9SX1NFYqQPb/XsbJydnZ1UVVXh9Xq1daPxofNIiUmqmjZp/go/16QkmK/VeJfLnEe9u05AJ6ATuEICkiwzMD7FVCwF2QgFdjNmqxtzRiAuigjZHMWl5aQD41jzvDi8ReTn2ecsnvimOXMKhFN9U9iVNM8+vZv7P7EWu8VE1eKZTIqKAoLqEfYxamo6Yadztgfc2WN7WdSyhoMvPc/2+z57USJqoqTneyDvNAQKYUUDDJ4GuQHiF6DOByvXAeHziL4qpJxAbvIc6iqMZ/E2hMQYgUiK9u4xljhG6AlY2LhyE3lVZTz6+gj+yTDJ6hKGDzzPb/zalxlOm8mEA/jMQc5dOMviJatIDoSZFm0EJya4787FTA900dmVprB5GS3Ni0kKIqfae4mEomSEAD2eFu6wBFm5eS29STjaMUDB6f3c9qufg/gEuH1g8IAi0995mOyFCL7FEl0DTqxRkeLKBC5jLwWrv0nH0R72nz7LN37tc8Q6dpC36h4OXgjSUuUnkzNRIIzwwlM/YEVrCylHDUtbVrJv33Okw5Ns33Y3u57Yi73EjVMRCUgO7r17CyNJM+0nJyiqzMfhsbK8WI+D/Bj9OeqXqhPQCbyLwNvFms5TVFxELp3RijWJiQS22lp6JnOac7fXmaPAr+BwOFAUAy5vAXb7xbcb5hQIZwaDOI0CTz2+k/vvWolRylDXqj7F5m/ReAafZ/79jflHunZ6zBXmuOe1A5QvaePY3l3cff99eN+V/O/IK/DIYVhxJ1h2wFkrLLPBTXdDwA22SYhmYM1qUDIx/ub7f83v/s43yYyc4hv/9e/4y396lOOHDtJ9vpep/uNUrHiQpdVJUj1THJgWKV+9HeHAIY6mJlm1pIxvfvGzhAxmjrz0IiZDiKySprrlTnb/4O/59O2rcVU08gc/OsAf317GZLySns7X+PQv/wqnRzM8+aNnKXaEkHxr6Dj6FH/0m1/FZTXxNz98gt/67d/jH/76e3znj/8Ih6zw3X95hq8/cDsnT7xOZnqK0qSRsjaR9h43S31pjqUquP+OBn7nz3/MCklh6z2reD1UyfE9/0zLmq20VuSzcssN9E4k6Hx1D4loP9u3b+O//cn/y7d//zs898xjfOkrnyF57HV+diRCNl8gPTHMqnt/g64f/j3c/FmqXVXsfP4fufmB32CL8xy1G++8dm4Y3RKdgE5AJ/ABElDLPR8/NY5NbKe6ugopnsCVNJJzOOhLeekbi1NVIlJS7KW0tAC316+lX75U0aZ5nRTfy/VJYpaIYKTQaeQ/f7yDz9y/mb/9n//GsoZaFq/YzOLay11Pfy9WXN1jrkYehKtrkT6aTkAnoBPQCegEZgioWRHlhOrsHicnZ3EUX/lz9n0RCIHBTopqWkCMgtFMZrJXC4scGs+xZNli3HnXfjKfd990cwmEwHSAPH8eZrO6cz67doCQ0XJFkUpCRk0r7QApDS4PiBIk4jM+CCVqNmtFIRIJ47BYMFlthCMRLeOVGs0RTaQwmoyIgozFrEZ0CLg9XtJq7KvRRCaTZDocp76mGjGbQlYMGA2KlhvA6bATjUa1/X2L2chUMI7HZmBiPILbbaGotFRLxSkJElI2idnpoTcQpqG4ALMRQrEEfo+LaCSBw2rQUnCHI0GKi2dqMai22TEQFQTsNgtmQw5ZMRMeO42zqBG33Ub/0AhlZVXkxCROu12r7SEJaVzePBQxRU5IkHMWEA4E8XvdM9dgduJxOklKEko2RTg4gdVVQGa6H19FExarlXQ8RmFBPpFESrMxl5M5dm6ItsYqhHQai82BzWKa1xlH/5LRCegEdALXKwH1QR5NRnE6nMiK/FbUwpVez/siEK7UqGvx+LkEwunjB2hobmOw7yxLWtbOMl1No2y2wNPtYO6CTAU0FcF0ACpbIT0C6RRsvBGI9DGeMWMzg0NKsmPnTj79pd9SizTw7It7SWSzNDgDiL5Klixq1YTJjw724xycJJNnYWK8m9/6yi8QyaboOX0WgxwmmIzRsKiZ1158mU3btjAZTNNQ4YLYGO1nE5TUVLJu8w3E0mkOH++gu/04hfXL6Df7ubfEROuKFs6MR+ibSlHU38vybS1YxBhT6SyVVUuRkiF+/JNHWWopwVQjMBry4U0quPMS5DInMC/6LCeOdTIUTvH1r34BYfwY+bWrOTEUpbbAiNVfhj/Rw3BnFzG7maLSZozTp5gIJdnTMc43v/FbtE9GOP7ys5SYJlm59SEGdv8Tvht/GyxW8iKnqG69iQP90+S7HeR77fyPh/fy7S0eTpwb59bb78JuM2Ocx1v3WrzndJt0AjoBncBCCKglniOJNKmkgZwhhfp157G5sDsNWvVGtZqjIAvYzDbUh77H5tFExHxNFwjzEXrj87kEgpBOam+p8XgMr292RsI3h59IQGQUjgfgvtUzKwfuPDBJalZKcKpO+WKCnNmJQo7RfY/gqFtOUdUqbQUhMB3iB08+x9cevFWr+eDTKiPCaDhNMpRi94l2Vtfns2ZlG5LBQDISQVFEpJyIw+YiGgrj9ftJZiRK851kMykE2YTJYsPpdCLKMqFIlGQsjsXuxOzy4Mpl8fp9ZHMwHUvjFbN4inxaUSnMqlOgCUUSGB8fxWW0Y/NAPG3CJBmwWgVsDhOyycPkVAizzUF5SQGKEMdo8xJKCngcFmQMWHNp0vE0opLFn1dCNj6FIBsIhOLULaonIYiEApP4nSa86uexADlHkZZJ0UlKGy8m5FByOexWs2ZroTlDNCXSPxJhWVMNToeeYnGBt7reTSegE7gOCfT0wOHD4Ck7y9LlZip9lYwlh4ln41rSpFAmRJ2/jgJHAWaTWRMN87VLCgR1uXYmpbJBW95e6FvY7p89yda7PqWlxtXK+6q5hA0G7Qtc+43BiJxTtDHnN3G+S/hgPr8+fBAULcJkvtjWN4mpsbNz9Z2Z9Z9vl+q/4FmYMXDB3fWOOgGdgE5AJ3BpAuqDPJJIImDArOQwyhI2kwmjJJE1GrFYbSiR8EzuQZMRZ1ERqA6KMw/pOducAiEZCzHYeZSeQFZL81tS3UhbY6W2xzxfi8QyhJIii/IERifiFFoijCYMeNJd2kNHdNVzvD/Huq3rybfO5Ai41h8ZcwmETCKK1el+I/fA7KuIhcFih6F+iMiQr774x6C4BqJhyKk1BnJQWa4uFMhc6O0hz+nA4fHR1d3FmnWbUHIC/aMBcopEMiHgsEogZamtbaBnPIDH7iEantTyb7sLG3ApEbA6sJElEM5QWVtF//nz1NTU4rLDibODVPmNDAwkcHvMNLetIKcmowrHSQbHsJVUc3Z4gLb6RnwOE719g5RVVHBs70FaWutxuD30XOhh5co1MzYPjuCVDQzG47i9LpwmmYxoIxoawp5XRoHbxWQgQF5BFcELh6lZulK7OeOxADWLlmBUJM3/QsZIx8kT1Dc0MDp0AUmGQq8Hu8OOaLCRSKQQDA4c6Qxpc5ZCt1VbBfGUVTDY1YPH56ekyIfdOTvj5Xz3rP65TkAnoBO4Xgmoq6mjoTjTYyN4TElcbg/JtIhg8qjrvMQn0jjy87RnSCInUu73kUpmqSx3aeGOsjKz3WAy5rTQRzmnvtiD0ah+NcvYbDMrsG8VazrZfgpbdpoLUynMdjeYrKxuWUxxScm8DMcm45SXzCTfOXbsHCtXNnL44Gusbq7UfjcxFcbgq6G4pBibmtTpOhYIA2cOUb54BRa7DRET747GHxuYSRnwZ49A+BzktUG1Ap56sJvBnAElC5+8B5T4ILv2H6Uq302B28kv/P7fsuu5J0hn4zz3o0foiaYxh8bwVefTWNPE5k1b+Z1HdlM+nSIq92MwW/jD/+t36Oo8icPtw5zu56kXD/DZL/8i7bt3Ud9YixRMcerCOVoLJY5255E05vj2H3ydcELgZ8/tIhIJcfO99/Pvu1/hrro2tm2qZOeBE1DZzIX/eIzbH2gjz2vjhVd389BXfoup3jPsf3UHBVNWThiHSRsrKMzGSElGbOYeLMu+QnwsS1/3QT7/1a8zfeoRmjbcT3dQxCYM0nbDnTjio+T5XUyP9vDi7iPctHUbR/Y+heyoQeqTaVlj5LVTAdKJLFOmYsonFcRWAw9sWcO5CYlo2SJ2/9Uf8/mHHqKttY58zeNTbzoBnYBO4ONDIJUSGR2MY5KH8Hpc2kqtw2gnJ4ookkTaV0A6ndWAlJX4UXISRpNJW9kXZTOKut1rlpBzRiTZqO0e2KxqtkUZu32mDtFbAuFo9wSxMz/jiZeP4cwrZevGVWy/YQ2u/BnP9Y9bm28FwWA0oW6gzJUxcSAC8UE4GYW7V0IkAYX5YBIhJ4NHLQQpxmZ8EJQcE/ue5uX+IF/88te07Zh0YJR/eWYnX777RnB4KSyYeQien0wwfWGQg6e72LJ2KWtWtiAaDFo8hSgmmQpMkpdfrFVDTKSixIMiZSVOBEkkI7pISAqVpX6ygsjYxARGp5+qAg9DkQyubIbCIjcZg4VgQsCdiJJXUQBiGlVgYnSQCE1jkpJIGRNmr0w4bsaQFTGZRPILHYi2csbGolgMaWpqK8hlwmDPZzoh4HdZEGWVQRKH3UYmNoXdW6Q50ShSGpPdz+RAFF+BwMhoiM7216lftpYjj/dw59fXU1ZYSFyyMBFLsm/PK3hK6tjcVEGZClZvOgGdgE7gY0JA/c5Mp9I4baoPm6xt66uZiNWfK2lzbjEcfeWnBKcCDA31YGi4g9qSPOoqi1lcM79AiMaz+DwzSxLj/z979wEnx13fffwz2/te76dT771Zlm25GzcMtjG2wQTwg4EHTHngCSQkhARInhhIIQHHEEIz1cG494ItWbLVZXXpTtKdrvfd27475cnMSXKRz9qzV+a0/IaXXyfd/ec/M+//ovnezL8MRKgpD+f9XvztXMzp3LcQfRDM1+9mlw77qTuPYmia9brITHjHN1XVMGd0fP1m9g3QNB272aejiN/v65pm9VvRVB376xw0M1RYtkpRG5zOz7jULQIicGYK6IZureQYz8Zx292EPCEGkgPWn0s8Jbjsb22m2TftpPjw737DUG87/UoN561cyMrli/LSy6RipPDiy3SzvXmI9S/8gY988HIee3o3evchrrvtf+MPhfKqa6IUGisgDPd3ESqtJJEcIRSSZYYnSnvJeYiACIjAn5LA0BC0t4PHFyUYNDsmKujuBMlsEp/TR0bLWKMZzDBR4i3Brpz66cJpGeYY6WqhpO7YgjyZQXCXoeWi2J1jDwOc6A05VkA4uH099TMXM6JHqQ2aPQ1lEwEREAEREIF3VqClBTZvBnfVThbOL6GpspbDQ4fR0akN1OKwOfA6vNbEevlupyUg5HvwM6ncWAEhMtSPL1iKy2kuXiVj7c+kNpVzFQEREIFiEOUgRs8AACAASURBVFBVlX1HeumMaOSUDqpcBtWBOlwG9KVS1ky5kxsaSHd0Y9hdeKurwG3DabNZQx21rEEg4CIST1uj6gJ+l/XKWgJCnp+OQvRByPNQUkwEREAEREAE8hYw+6GZKywnUhnSWRWPEsfh9KAo5rLPbmsYvsPpwDDn91eU0c6LZn+t40ewhjSawxvNsQyjfza30xIQ1j31CCsvuBy3Q0EzIJ3VrLn3vS4bajqDqhl4fC40zTjletR5C53mgmMFhI3PPc6CFefwy3sf5bY/e+PlnrNAwpx8MAWqA3weyCTB8MDhPdZMyqPLPZsPg8zOiZqKltWJ46QsYHYuyR0bCOpgd7/OFE8CFAcej4u0rpDLxAEPG37zbS77yBf58Mc/wQ9++BMCztEBpNZaB4rDWk5atVWA14fbF6R9xwa+efcjfP2L/wc9mWD35i62H3qUdqWOv7/9Izj9HnI5DbuiWUM4S8xxmbKJgAiIgAhMSAFzqGN0JI1TGcLt9mHTDGwauEIhzPmJHC4Ds7O72fk9EPCbd4fRe4RhvohwWn+3mWvp6GZnb7M3vYGma9YoM3M7Mczx7Vx932CClGrQVKpyoD3Orj3bqF5wEXNKM3Rs2o6qGJQvmsdAWycrVpy8fsHbOfbp2nesgPDypheom7WEBx54mFv/7EZeP0Ch+yjs64LtBpQ9Ci1VcK7ZPSMDIzPA0QGNJbB85egqXBueew6/w0Zi7yDP1S7lz6+aSzSVoufIAVxGlrV7h3ENNlM3ZQ7+sjLahiNo7hxDg02Udd3Dqls+xfe//nmu/djXWVTn5uU9zSxp8rDrSA/lPtB7faw7uJY/+/w3iMcG2LR5C+k9zdh8Cq2ddq65fi7TF6zmwV8/hHvBWbR1DuDu3o2x/EouCfTSMG3u6SKWekVABERABN6igPkUIRrJ0HfUXBDvKB5fCIfLg0tTUFMpVN0g7q0knsjidjmoKodMIjK6cF4uQ0qrwuFQ8TkSDCc8OBwevF47dptBefnovEYFCwhV5X7Q0hztjZMdPEj1rNWoySjpSITSkEK3Vkp2qItZs2a9RY53drexAsLRji78pZX0dx5l9sxpJ51U5xHY2Q5Nc8DWCsM2CBswbR4kFbCnIJEFa9FGXWPjxo2UldXgSCTI1ExiWlWAYXMCjObduI0krV3mIkkh6ic10NEbw53qpmre+Qz3xzl6YBt1i5bTu2czc2fMwOF0smXHDtasWcOePTupqZtMeWmIp59+mosuv4qRaC9eTwh3poO97R48epTpc6bg9vhJ9u9hIFNKNpslfrSNhpXnk+jYTdOshe8svBxNBERABETglALmk4FkQkUfSeH056zXCeYaOPZjQ+UNt5tcznwajbX+Tj5D4k/LK4ZTXskZWED6IJyBjSanLAIiIAJ/IgLmk4HWoxFcejsVFZWomRRe1Uk2GrWeIMRqZ9PXF8PtdjC5wU1qpAun000mkyKpVmIoLkq9Q0QSTlQjQFmpl2QyTnWFm2B4dPK5gjxBiCWyBHzmu3NzrT5QzY4RDieKzUBXVewo5AwbhprD7nBa4zLdrrc2kcM71fZjBYR1655n6dJlNA+qLGwsObZA1StnZa7F4PZAeydEs1BRAXoEymshm4NDzZBMwPkXHl+LoQW/me6SGmm3wZSmKcQi3Rxt76CutAJXVSPp4V40PCRzWZRMBG95vTVR0gMP/ZD/9cHPcSTjosStUOU02L17DzOnT6GjqwdHsouS6sns7Ixx7uK5rLv/Plq2PciNn/tbDvfbCPnNaTddOAI+kl0tVNbVkM5mSUditHqnc/C5n3PbLR9EtSu0vLyP+ilN9PVHqayptdrbnKRINhEQAREQgXdeIJFNs7PnoLU6sMvmZDg5RKm9jIFMBwvKV+C026zplL1uBfQMdsXAllHRzScNpWU43G5r5MKrN/MJgqZpuI7dnwsSENKxQXKuEtypTkaSEXY8swX3kquY26SyZ/tOvPoI2wcq6N+1lflnr+DIcJTP3/zed150HEccKyD0te2nrLYeHOZymlA1xjpB9+wF3ybY64X3roL9O2D2GvCNQDYDU2eaJzNMKpIiM9JD9FCKPzhq+ch5U0d7MVpRy87RWJpc5w52HvRxwTlTac25adn1ONgXssS3k2krL2Z7r51Sj50ppea8214ynVvJuMrRIq20vnyE32w+yB133EHL9g78nkH6uzZz9/1RPnLb+STjNcxfXI1X6WXrvj5eOtjNDe+5jN6YQtfu55k9pZFQWKO0bDbbn/8vDg+Uct5Fl1MW8uLIZ4rIcZhLUREQAREQgfwEUtkcrX0jxJNJjBEDQzfwuh3W/P+5XIbyQJJELgCGQirroMQ7jNcNNleY4ZEcuZzKpMYafF47Zn8GsyN8JpOxBhL4/f7CPUGID7QTqGi0Kuzs6WakJ4cn4KGs3MClZTkynMCBg5weQndlUdxB5teZixFM3K0QrxjiaeiKwsxTr3c1YSG62ocIBA1CJeYjJzO0GBzqjNBYFcLlzH8Cjgl7gXJiIiACInAGCpijAtNxFfQ41ihGlxs7Ngy7HXMq+uMrMo7n0qQPQp5abycgjA4kKcyWVkdXgXxLm5azllnGGr4yvi2lgvetHnd8h5LSIiACIiAC4xAwb+TJZBK/13xCYK7jY4wu1vQ21+aRgJBnI4wVEI4v9+xyOczIdlJtLz0FdZPhO/8AzybhPZdD8jn40FfhxRcgroAtDZ+9DYxsmts/9zlWLJiJfd8QB8JRvv0P32Pzc7/lm39/B5+5/F1U3vJlDj7xa/z+Bja2dZP4nxU359/8NVLJHi6o7mf2ypuIq0664wozyxQuueIqfvGT/+Df/vW7hAM+rrpyDR/+l4fYeve/Wec68D9Lf/7gO9/myU2H+eylS+hJxKk+6wb+6mPv5Zrr/xfnLi7hhV88yFX/fDfNT/8Ht918PcN+Nx8/52q++cMfc/8DzzFn9bu4YEUjIf/E7keSZ1NLMREQARE4owTMfnxDqSFrfQUzFHicHqKpKE67k6A7iNNmru87/u20BARdM+jc2U1pg8Z//PC3fOTPPojd4yEccqI6AqTig7gD5RzetQdtuJeX+kf40LtWs7sty4LJAVK6TsCp8dS657nw4uvx2HUi0QS7Ii4W1zpwOx04bebDbYNIJEIgEMRh5FDsDkbiGUrCgfFLnGKPsQJC9+HdVDZMZ92ml7nw3LPGrOXnOyG0AQ6WwsXLYdteOHc1+IYhk4GZ88xdMyQiA6iRNgb3J3jCOZnbLpxOOpclYL5Lwk5bEtKHm3nhsU1c95GrWdep0t38Ir7AXFYEtjHrnPcSzTkYjMSoC2i4/GHUrs1kHGGSnXvp2K+z/ObryemGNWFVxmnjgd89yJWXXsreo4OMRA2GXj5EsD7Bpe++Et0wcNhsHOxVad/xBJW1FdRXu5lUPZuRI88RmnYZQ/EsYZ9bOikW/FMnFYqACIhAfgLDw9DZCW7fCOGQHafLRtY+QkbN4Hf6yek566sZJszQYMvjSXLBA4KejtD15AsElp9PSV2Q9c8fQjuym+bkEGvOX8zR4TRlZW4Ck5YwcKCVqlgHgyEf7uEhXIqP3sgQHbYUTaEAkZxKoGoe4VQrPTEnfSNuwpPCTC31MmdaE7HBgzz03DZmzJyH3+HAk+mhNxXm/HOX5ic6jlJv5xXD8cOMpKB9GOadoWs6GbpGezRJ2GcQdpsTZ1hjVEhoCl6b/aQRHOPglaIiIAIiIAJvQ+D4Yk2umh3Mnx1iWvUkWiOtVo01gRrr6YLb4c4rGBw/jYIHBHNa3+GdByhdtsS6fUSGUxipGP3xCGWVNcSGeqhtmoKuOMklUvgc0BGJE7B7rScMPb2DqA5zauYAAbdKOgtachBfqJJI3wiusiABpzlcsIJ0rIeuoTQulxeb048t1YsrWElZSeGXkh4rIGRSSVxuD9FYnJLwGx/XnGp5rIfvuSyYHUZdb7rO0yu9GJqHYUbpG3+K0rEInkCYru5u6upGU8iDP/t3zrrpM1S/Qf3pdApDTeMNmKtsvraXRGSwh4A5YdOxb+8bhDmvWs26ra2Npqamt/Fxll1FQAREQAQKIWAu1rT3cDftEYOc0U65Q2d6zTRQNWK6jsfjIajmiPcNE5g0CXfYZz0d1nUDm6FYI9Byho7dMKdYBo/bYb2qKHhAKMTFTsQ6xpxJce8maqfOZ0f7ECtmNLzhqZu398/+C0zphbUpuPk90KPAs8+A+bDjXZNh4VLzlYlO19Aw1cn9ND+3kX/Y7+Hub37qNWsxvNQVo2PnC/gGVZaet4zvPtxNd89unCWl3LaojxUX3sCBQ60k/LNY4DjEOVd+jBfX/wK7rhBPJ/jtT++mPXARf3fb5axd9wf0o88ycrCCVZ++mZ/9593sfHoncxZM4bpvfIav/fM/4QycxQ1XnE9FaQmz6uBgT4LKgJPM0WZm+vrIqXHUTJwf/WIzgfOv4kOXXYxuQEA6NE7Ej7GckwiIQJEKmOvmpNM5MjkVl5LC4XSjKHYcLhc2mzn7kDn0UbdexZ/cd3F0RNrxkWnHOzcWNCBkc+Zv/oo1IUM2l2U4EiPsd5PRnaipGGWVFWCoRGJpsqk44XAQc3GJUNBvTQs8kbexAkLL7i1UT5lGOq3gDJVQ8rrLiEWgPwZP9kHJH2BHCcyuhSmzoSwE3h6IJ2DRKvNJgsHeQ3uoTPfSvb2XZyuWcss5U9jVGWVuiYZDUdnTr+JNdvLS1ue5+KLr+N3jrYQnT8OvKExNPcXiqz/KjsN95Np3UR0M8WxrKZ+/1k//QD+11VO455ltlM6ZzeyqOh5Zu47srsO8/5aL+Pl/P8Xc2nrsgRmsuWAqdz65gYbJszlnWgVdfZ04Q5Pwqp3MaWg48axhpGUtQ4Nd1MxYxs/W7WD14uXUV09G1c35IAo1bmMifyrk3ERABERg4gikUjlGYhlcSgSX24uiYS3Y5PD5rDUYbC4bOVXFZnMQCHisEQ/HF2vSDBeKYliL86mazVqsyfy7bi7W5PVYF/m2JkrKJqNkFA9Br4u+oXaeWbubc+Y1sn5HGo/SzerLr6TMOcC6XR1079/H3GnTGEpmWLZkASVlFRNH+Q3OpBB9EGJp6BweDQiyiYAIiIAIiEChBKzFmoYz9LTGCfiO4vYEcXq8uHQbajKJpkPMXKwp+cpiTelExFoK2pxIKaVX4bRpeJ1xInE3DpcXr8eOzWZQUYjFmnKpEexmfwC7+Wu0+ebd/KrQ1tJF1eRaklmNUk/OOiFVdRAdjFNebc7QZE6wM7F/4xzzCcLel5k0dRZrN27jkvNXv2Fbm8tjjPV8pLsDslloMidMHHMzU5652emIQcPowlonbTv/8ADz11zFv915F5/9zO0nrSz56h2GUirRjMqUktFkeHy776e/JFuxkBuvXkB371GyuQzZ1hZmnHvFa8od7wuhq3F+e889XHHldZSUmH0ZXr1FyREe89oL9X8MqUcEREAE/tQFzNEJ5syHehxUR9z6t9sdCFkzIZqb+XOPw4PDlv/734K+YijmBhozILy8nkkzF9PWO0RZfSPlb5AEzDc7d22FqnXQ1QDnLYG96yCxEHKH4exJsGSlqRcnOTBAariDwT1xHnA18edXznlNH4TN7VEG1z+D01vJopVz2BJzc3T3fejKKpboj7LivR/l85/5EDf8xS85b1KQ7a2tLChJMRAxqKkKkxk6SsvuXsrPvZqHH3mJy5Y3sfGlu6mIN3HhJz7I1z7xOZRz3kdZz24uvfZs0ukElfGd1Ky4hp8+tJcF8xeyoD7I9mEfc2OPoZbN5/u/eJSpAQcLG1Qy/QO4/Y0cMTxce8P1tHQkONqTwOM32PvgTj725cuL+WMi1yYCIiACfxSBdE6lbSBGNJVlJBtFHcxYa/SEfAFmlJaQcHWRiA2RzaRomraEkL/E6nZgDn8050kwRzi8fitIQNDUHOmchtdjDqF45UmApo72ScBmG/O3WXP5SXM5SvMGPJG3sQLC408/T92c5Wz5w/PcesuVJ13Cs/fBd5+Gq28F18Nw0ANNabjhk9DtAE8fdEZh5crRiZK+8pWvsGDBufi6uhg++128b+Uk9nXHePZX36fc6OWBtcNccskULrrqUp7e0EpZ/wss/9//wb6tHTz203/kgi/+DS/d9TU+fvNNeAMuvvFP/873vvd97vruP/K1r/4VeCv42fYuPI/+C8m6Jnbt0vibj8/liz/byX995Sbu/OcfMVR+Ptue/z7f+/4/sKt1gLv+9S5u//rf0tfSwb69Ea5ZM5N7vvIZbvv+9/nON/6CTN0C7vjyh/nYzbfzj1/4W+ZdtoIh4DsfvpCBxst517TpdPVsx77yQ7y37AB1S66ZyE0t5yYCIiACZ6RAb3+CBx7Zz6LpScwHB4bipXvQQWNDDeX+Hux2JzkNQmW1lJaOrtD4ZltBAsLmF59kX5/B6uVLmV5fyZG2Vvx2P70jMbyBEOFJFYQ1g0RGI+xzWMPwasoDdPdEONLWRmVZHY2zppAbTFBaXfhJjk6FkM/PC9EHIZ/jSBkREAEREAEReCsCXT0x9h0YsIYv2o0YZZ42fCWNzJizyOp0ON6tIAFh14719KohmurqmFHlZMfWjazd0svMyaV4J6+gb6ibcKSTRedfQs/uLdhCTg73xDCiccrcHiIjbhRvNzWhZay4eMZ4r+EdKT92QFAxsJHEhssA58TuSvGOWMlBREAEREAE3nmBzu4YB5oHsNsMjFyEUn+UqsZ51tMCu009tjaDDbtjdJ6DU20FCQianmMkmSXk92M3chhajvb+EYIuG85AGZGRGM5ckur6eob7+giVhekZShBw2bHbbGiaQjoxQCBUgz/02k5zp7qAd+rnYwWEtgM7qZ1cSWu61hr7Xze6KqZsIiACIiACIvCOCvT0xnns6RaWzU5h6FmyRik9Q24qyvyUOg+iKU4mTVtMMDhGT/fXnW1BAoJZpznEIp9E8o5qFfBg8oqhgJhSlQiIgAiIQMEF+gYS3PfwPpbNSuK0g2YvpbPXoLTUx8xGGB7sxHAEmD5r0YnRDW92EgUJCG0tB+iKacydMYVwwIuWidPRN2wtP+nQPXjcCdzeWpxenUQ8TXVliPb+JG4lR339G88+WHC5t1nh2wkImq5iN5dZtoZyFnLx57d5UbK7CIiACIhAUQik01li8Qx2uwO73YbXraNro68Vsqph/RLvdDpxuVzWwIB8toIEhA0P302keinTamuY1VDKlpeepauzjf0dBmV6JZUzsmjJSTQtDRLrizJrWgn7WmMEFLP3vjW+b8JvbxYQzHkO+g7vp37q7De8joF0htzgi6j++RiZDuqqFuHI4/3PhEeRExQBERABEZgQAqlEjq6WGBktjhEfpG56BYrbYY0sTGQMNM2cEdFLKBSygkI+W0ECgpqKkjKceDxeaxnmQ80Hadu7n9krz8Wm2cg6dboidhZND1mL/2haBo91gvlP2JDPxZzOMmMFhI3bmpk3ZxJ71z3Gysvee9IpxIZ2obsqUbQEuqsGQ40SDtS+Zjjo6TxvqVsEREAERKC4BQxzJR9zqsS0Oa2ASi4ZwxkIYHe/6SqAp0QpSEB4/VHMRxnmydodo48xzL8bKGf0csBjBQRzIgrzZ+ZSyLY3eGxjGJp55bzB6hinbBwpIAIiIAIiIAL5CAwkB9g3sI+AM2B9nVo2lRp/DbFsDL/TT8tQC0F3kFgmRn2onu5YNyWeEuZWzcXn8L3hIQoSEPRcjnRvL95XLeSTzwWdSWXGCggmoPkz8/HNm73X0Q0VsFlrcUfSEauh+hP9uOwuAq6A9f29/XsJu8M0lYwuo9wV66LKX2V9DXvC1s80Q7Ma2Jwu05w203y/ZP5P1VXrewcGDzCnwpx9kRPHMc9x/+B+gq6g9cEwZ80yN/P4fck+q7x5/Fdv5gesNlBLSk0xlBqyypjfq/JVUemvPJOaTs5VBERABIpawDCgtRXa23XqZvTTHNvJzNJp1PkqsDlcuN1vbXRgQQJCuq+Plh/8mDlf/QvsZMxZn9GzafoHhhm2lWOPZmioyuJw+3H6Ss/IhhorIJhzX9tcLtRUCq/vjVOYecEH23fjcgaZXNPEvfvuZVXDKp5rfY7h1DDTy6azrHYZ195zLbcsvIV3z3w3HruHxw49xnmTzuNjD36MK2dcyadXfJqt3VutwLCwaiG1wVq292y36jJDgxk67lh/B19Y9QXr5r+le4v1MzMQ3P7Y7cytnMsnl32SJ1qesPY1w8kfWv/ANbOuYUrJFB468BBrmtZYoeCevfewpGaJte8L7S/wdxf8Hd94/hvWzy+ZeskZ2YZy0iIgAiJQjAKqCm2t4HRlsLuz5GwZjGwSVzaGy19ORWX1WxplWJCAoCWTRHfspGz1KvP3VkBFVzU6B3JsH3Tj2tuF0ztEQ2MFsxYtOCPbZ6yAcKgnQlVZkI6+GLMaSsacUrproAuH3UlVaaUVEM5pPIdnW58lnUvjd/m5YPIFfG/T96wb8KLqRdbN27zphzwhnmx5kupANWc3nG0FhIZQAy92vHjiN3/zt39z39tX3m49fbjjhTv4xLJPsKFjg3Ucc/voAx9lUc0iPn/W59ncudl6CrCsbhl3br7TuuGbda5tXcvSuqVk1Ay7+3azom4FIXfIGoFhBoX17esp85ZZTynM7fo515+RbSknLQIiIALFKGBo5vIGhXulXZCAYEJbJ2a9g9dPuOvYyKo6Sk5DM3Qcdhsud369Jyda440VELKqhsNuJ6fpuB35TWVp/obutrtJ5BLWawFzpQqn3Uk8G7f+7nOOPonQdM26OZt9OMzNfJ1gvmKwK3ZGMiNWHeYCGxktY70GMG/e5o3c/HOFr8J6EmCWMffvTfRaryTMVxXm/labYVhPMEq9pdZrildv5rmYrz7MFcCOz2+RyqWs8zEDhLmZ4UE2ERABERCBiSFg6Mf+vS7QKLmCBASzknQ2h2Kz43WNc2SCefMr0MWcziYaKyAkkilrkap4IkHoTWanSqYTx3ze2rug03ltUrcIiIAIiMCZL5DJqqRSKi57mmxOJ51z4XDYyGY13M4cHpeCw+nB5R7tv3aqrSAB4cmXW+jo6qChYRKXLWjghXUv4fZ4mFJfRSybpbR2CiVuDbDTfugwHsNOe04h5FbwaFDRUI/H+/aGY5zqQt/uz8cc5rhxAwsWLOauH/+KL9z+sTEPs3nvOjzeShZMeeO5Et7u+cn+IiACIiACf9oC/f1x9jcPUh1os8JB51AFqXSOkpCHgK0Zn89JVcMsKipr8lpBuSAB4eY772d60MbqxfO5YkEpTz35DB6vj3Cgkl39ORo9VRhhnZqgDyM1QOzlA7TEsnhcLhyqjfPecwklVRO78+JYAWHrlo2UT17Avb/+FV/8zNgBweyXcSbN+/Cn/X8zuXoREAEROLMEcuZowlSOeFLD64yDYkc1AgxHUoRCHhQjh6IN4fSECIXL3rmA0D44gstu4PN4CHrMVwyj78wzWYOUqmDP5sjaFNwOBZ/XRXYkhqEbmDMEmMtSBsIBbMfmTJioTTJWQIiaC1F5/CRjESrKT72+9kS9PjkvERABERCBM1PAHGZvDXk/9l+hrqIgTxAKdTITuZ5TrcWgqjkcjrE7YOpaBsPmxq6Mxic1Bw7HK90vMiq4HeakUqMK5uuhV3fP0A2siabMjoXmZuiqlRCPz4Ngffc1C2YZ6Mbo2g/mfuY6EKPTVb263lO/g5rIbSLnJgIiIAIicPoEChIQ9EyGeGsrwVmzXtcXfuwT7+rro66q6vRdWYFrHrOT4kgfHr+fTdteYNXyd43Z37Lt4M/Qaj7M1BC0HIXtG8HngbMvHQ0G330EvnwNJIdA18HnhVQOQsfevOyPwBTvCNsGhwlrMWJDG5g86SLS6QFcZcsYiicIae00VM5DUcz+Hgn2R0oYGjnIigY/3XEfg4kj1Dp03IGp6PEeQsFynJ7qAktJdSIgAiIgAsUgUJCAcHyipLlf/QtspDAMD8lYN05FITfSYznZS2Yw2LqbkpLRzoj3b2vng+++5owxHCsgDPd2Eirzo2HD4QjmtcbC0f2QsMNzz8HVN0LIB3uOwuqpkE1ALgV+c6Sj99gCkMBgGkpswzzdOUg420uJW2d6/WKOdK7HXXMRHUNRptjaqKleiqKYzxNyDKY97OnYwYrJk9k/nCQS38MUp0FT/SX0dG6irLQOt3/SGdMGcqIiIAIiIALvnEBBAoKWShM/cIDw4kXAMF//+r/z/ve9h0MvP89ZcyqtpwrN2Tqqy714Y4cwH8Q/21PCDZdf8c5d6ds80qleMYynelnweTxaUlYEREAEROCPIVCQgPD6EzcrHR1jab7zHn3Pbd0Uj79Yf/Xf/xhX/RaO+fYDwmgsUE0b84mKOduVbCIgAiIgAiIwQQUKEhDUXIZISqM06MWex+QLE9TiTU9rzFcMkTiuoA+73WY9GRmdo/DkrWXPf2JrvIVqRxa/L3wmEsg5i4AIiIAI/AkJFCQg9I8M09IdZen0RtzWHdL87Thrfe1pi0A8TtW8JobTWeJ9EepLDRzBWgYG+mg/so/Z85bxzLM7uPrqcycs/VgBYe+Bo0ydXIvb7bSWqXqzeRJT6QSDkV4aaqZO2OuUExMBERABERABU6AgAWFTV4KR1sNctGwqNmuthbQ1pO7wrr38+tcPc8nMs1n54csYGDxMLK7Q5EviqFpC9+Awh7u7aCh309eRZcWKuRO2Vd7+K4YJe2lyYiIgAiIgAiJwkkBBAkIqozI4MEhDXZX5mv14DwNUc2andAaP043D48TQNQxFwWYO8Lc5rHH+1tJO5gJEtrEezk+MVhtzsaZcDqfDgZrL4nRN7OmiJ4aknIUIiIAIiMCZIFCQgHAmXOjbPcexAkI6q6I7bdz3099y00dutiZCkk0EREAEREAEznQBCQh5tuBYHcsZewAAIABJREFUAaFtIE5NiY8EOl6Hw5q6QDYREAEREAERONMFJCDk2YLSByFPKCkmAiIgAiJQFAISEPJsxrECwkOPP8P55yzi7nue5KYPfYBy12sr3Ld1F/sPt3Dhitk8lghz87y6EwUefukgV6+aeeLv5hwJT+0+yKRQJRVhL9Wl5nSKsomACIiACIjAOy8gASFP87ECQip6FIe/loHmHdTOWXFSbW2Ht7N2zyGGqpZx4/x61h7oJBQMcVRXCHd1cMHZCzgQiTLN5+Boxsuh5peZUVaDN9lP+ZQSPINRypuawClzJ+TZVFJMBERABESgAAISEPJEHCsgrN2wmepp89A1lTl1oZNq6+o8xH3r93H14mlsynhpdKlUNkynNZqgPtaGrW4mTUEH339mM7dfMJ+frNvJlBIfk+vq+cmGXXzl7OkEq+vzPEspJgIiIAIiIAKFEZCAkKej9EHIE0qKiYAIiIAIFIWABIQ8m3HsgGDOGOnEXGEhCQReV58514Omg7nAYn8c9vXA6lJwlUNOB4djdIfjSzPkctC8DSpqIVwNLhdo2uhaFg47pLNZ9rR1s2zGJHQD1m/cyuqVS7Epo2XMiSh0Q+dQJI3LbqMh6MJht5FEwaMb2DBQDXONjBwKrtF6baAbCnazEusqPNY52xTF+rn51TyHtVt1Llwpa0jk+ZGRYiIgAiJwRgtIQMiz+cYKCEd2vUT9jIV0GwmqPZV4XjcPwuYX4ZnfQdgG8ZmQ8sJ76mHhudC7HSpWjt7Yzfknj29bnoLqSbB8DazdCA/8AQwdbr0WvN4Mmw+2MrfMxWGlgsjebVxx8VmgZ+np7uXxfVkeaD/Exy+/iCn2CF+4dx2/unYZqrMEVU2QGh6mJuTB2ziNgy1dlJWEeXhbD2vqs0ydtxiIAX5WfefXvPecc7lpfj2Tgw4rjBxJwjR/nmBSTAREQARE4IwWkICQZ/O91VcM+/dCeTlUVud5oAlazHyCsH67zprl8gRhgjaRnJYIiIAIFFRAAkKenG81IORZvRQTAREQAREQgQklIAEhz+Z4s4CQIYqTMCnr4bxsIiACIiACInDmC0hAyLMNxwoIjzy5mfPOnksw6CNjdgTMsz4pJgIiIAIiIAITWUACQp6tI68Y8oSSYiIgAiIgAkUhIAEhz2Y8HQFBM6BrJEHIqTOSiNNYWZvn2UgxERABERABETi9AhIQ8vQdKyAYRhZFSaFqMJwNUzmO5RwHOx6jz7EMu01loK+b1fOX5Xk2UkwEREAEREAETq+ABIQ8fcd+gmCQQmcgBeVuO75xjAL87o4d3L5wIQYGuqbjcr56NoQ8T0yKiYAIiIAIiMBpEJCAkCfq6XjFkOehpZgIiIAIiIAIvOMCEhDyJB9zJsW2dupra+htb6Nx2vQ8a3ulWCqbsaY+Drg9mJMwmk8TFBSORI7QFG7iyUNPsqJ+BXbFTomnhAMDB6gOVKMZGps7NxPNRFlZv5IpJVNOVJpSUwynhqkL1ln1HRw4yKyKWSd+vqd/j1V3MpckkUtYf7Yp5iTMBh0jHVT7q7l37700lTSxunE1LUMtZLQM8yrnvaaOnb07mVk2k2V1o69GdvXtss6xMdQ4bgfZQQREQAREYGIJSEDIsz3GCgg///XvefcVF7P92Ue46LoP5FnbK8U6BntJqTmmVzeQ07J84YkvcOWMK3ms5TG+fem3OffH53LnVXfidXhZUL2Al3texm6zWzf31kgrQ6khLpxyoXWjNm/w5o3e/Fl/st+68ZvfM2/ki6oXnTjomp+u4TuXfsf6vvmfGTZunn+zFQbu238fl0y9hLI7yrhp/k384rpfsLtvNw8eeJC/Ou+vrDrMOv/fuv9H2BNmQdUC1jStsb7/rfXf4vq51zOtdNq4HWQHERABERCBiSUgASHP9hgrINz9m/u4+vKL+NFPf8mtn/4U5ePsRpBTc+iGgdvpshZZeqz5MbZ0b7F+s//mhd/knB+fw/MfeZ6/fvav+dI5XyLgCvBc63NcNOUifE6ftY8ZCo7fuM2nD8t+uIwb591IJB3hs2d91noioCiji0SYTwbWHl3LJ5d/ksPDh5ldPts6Vn2onnJvOffuu9cKCH/59F+yvG45ty659UQg+Mp5X8EwzHhg8I8v/KNV3twunnox08um882132RVwyprf9lEQAREQATObAEJCHm2n/RByBNKiomACIiACBSFgASEPJtx7GGOhvXbuWFkUBR3nrW9Uqw/3oOqZakNVIDdN+79ZQcREAEREAEROB0CEhDyVB0rIJiAKZuN4eaXaJixKs/aXinW0r+XdC6JkdBZMGPluPeXHURABERABETgdAhIQMhTdayAoGk6mt1GcqCHkoqaPGs7uVhfZIiqkrK3vL/sKAIiIAIiIAKFFJCAkKem9EHIE0qKiYAIiIAIFIWABIQ8m/F0BIT+LgiWgqHD4VaYNwN0F3R2gS0JPRGYMx8GojCpevRENRUig+BxQUQDJQGldeC1A8dmcVSBaCKFTVfpTWSYXlVOTzSBx2YQDng40B8noKj4PC4Muwstq1IT9hHPZMkZkMOGz+liKBoj6HNi5DK4/GEGR0aYUh62zmPry93MmVlBR9sgmg6T6rxknD5yQ0N4vE5GVDc93RH8YS/1pR5Uj5syr52OI/1U1oWt4wQ8LvpjOeKDSRx2qKjwse/gIPPnVpLLaQR8rjxbR4qJgAiIgAgUWkACQp6ibxYQRlQIOiALjKeb4gOPgDm/0dQg/MtX4Z/+FTrisHULeOPw7D54zxro9cG1542eaCoBB3ZAph/+0AeRZrj6GjjX7L5w7OCDQNvRHmy5BL/dP8iXLlzEL5/fQo3HwZyGMA/s72VWmQub3YU7VI4nZ1DhUenVHCRyBsFQmGgiiToywvSaAJFEkqbJ09hy8BA3LpsDqShf+dZmPnXrUh757QZy3hDXXFjDS5kyEs8/S6DESXNXgK6jXVSvmseyyWFqZzeSPByhva2Vsy6YQ0oxiKbTqCk3W+7fxrTF1cxt8PDj+7r488+vJBrPMrkulGfrSDEREAEREIFCC0hAyFP0zQJCUhv9Dd78zX080yDsikLYBnVBGGqGyukwPAghP9g9oCkwaH5/Gthet8bDQBdEkhDLQrUH6ia/8gTBDCpOw0BHYTCtUeZS6BsawmZzYjdyhL1OXP4gkXgap8OB3+Oio7cfRyCMTdMpC7g5OjhMU1kQm2GQVFz47Rq6YcNmzqeQTaDZvdjQ0bIZFK8f8wFGRySLkoiRVTMQ06mp86L5w8TSGjUhN/v3D9M0swTFULAp0Do4zPTSENHeYcoaSslEYzgCIXKkyOo+Qs7RuRtkEwEREAEReOcFJCDkaX46XjGYyz3b5R54UgtYUzEdCxF5No8UEwEREAERKLCABIQ8Qd9sNUdQSOdyeGQ1xjw1pZgIiIAIiMBEF5CAkGcLjR0QVFTDxpG+dqZXNXFsRuM8a5ViIiACIiACIjAxBSQg5Nkub/aKwVyNUdFT2Gw+CQh5ekoxERABERCBiS0gASHP9jkdfRDyPLQUEwEREAEREIF3XEACQp7kYwWE3/zuIS6/9Hx+8ONf8eX/88k8axstllXTtI/E0HSVSH8vK+csHtf+UlgEREAEREAETpeABIQ8ZccMCPc+xOWXnM9dP/4VfzHOgLBux6PMnno2qqbSNzzIoqmz8zwbKSYCIiACIiACp1dAAkKevmMFhP0HDzG5qZGdu/exctmiPGsbLdYSzTI9LLMFjgtNCouACIiACLwjAhIQ8mSe6H0QdvbupNJfSW2gNs8rkmIiIAIiIAIiMLaABIQ8Px1jBYR0JoPL5eL53R1cuKAxz9peKfbkvt8TTQ1xw9KPmdMDMZAcwO/043P6rEKGOUJCUayfKShEM1GePvw018+5/qRj3b3zbm6afxM/2fETblt6m1VeNhEQAREQARF4KwISEPJUe7OAkHbpeDQ3kayNmtH7et6bbq7UZJhTKb9uLmVzYSZD49HmR3n3zHeztm0ti2sWW0HhiUNPcN3s66xjOGwO66tZ1gwOF0+5mMHUIK2RVs6qPyvv85CCIiACIiACIvBqAQkIeX4exgoIqqpit9vJ5VRcrvGsxHDqA2e1LC77K30UclrOCgKHhg4xr2oeqVwKr9NrVWSWtSt27Db7a75/6qNICREQAREQARE4WUACQp6fioneByHPy5BiIiACIiACIpCXgASEvJhGXwE4T7HWgoG5KsP4tif3/m60D8Kyj49vRyktAiIgAiIgAqdRQAJCnrhvFhC6M7Bnw3NccuEFedYmxURABERABERgYgtIQMizffJ5gpBnVVJMBERABERABCa8gASEPJvodAWE4XgUVdeoDJWRy8J//yd84NN5ntTrirW8tJepK2Zjs588IuJUNfZnoTKPOZs2Hd5GbUk1jWX1p6ryNT+PD27CX7YMRbG/5vtfeupLfGDBB2geamZd2zq+c9l3+L9P/l+umHEFV0y/YlzHkMIiIAIiIAKFE5CAkKfl2AEhCzg5HM0wOexhvLfmo4OdxNUss6un0LUBvv0N+PA/wLzJ0LUP3HbQgK4D8MDLsOICuPbd8Py6A+zdFCVos7H82kkc7RqkJjvC/PPm8qO71tF06WpW1Xt45mCc9yz0MNTVRThQSnxggH37uij12tk7mCU4onPeDedyKKXStbGFJCF2Rwy++tFZdCVUsjo0D/Rw/qRKftHcQoU6SKPWxc92beQr7/8cjsgwGX89yY4HONDbjOGfTKl3IesO7SAW+RGeqi9SFprG+WVDzJ15BXdsfIb3zDiLgbSdPT33cEHTasxJnpbWLmU4Pczy2uV0xjoJuUPWf7KJgAiIgAj8cQQkIOTp/mZPEBJGCjdehrJQ5c6zwjcotvv3sK8bzrkUnHEYGYJwNcTTsPYRMGrggkuhaRo8/GAzy5bXUlHl41t3beW6ZQGqy6F0eiP3/mAzZVctYcmkIL9c38PtZ7vAVkl2oJPWHc1Mv/A8OnfspHHpDF5szbGyqYQ9/VHadhxhiHKuWV1LadBJZ0IlpxlMDjl5sUejvWcbNX4bldkjbOvsYPWMSVQEqkiEzuXQrm9xzvIv0dy5kwdf+m9uuehTPLLp51x71keJxgZpqgygeOq5a28zV02ahtOmUOOz8+vdv+bm+TdbGolcArfdzZOHn6TGX0N1oJr64PieVLx1fdlTBERABETg1QISEPL8PJyuVwyvPnw2Az+8E243F4Ucnd5ANhEQAREQARH4owhIQMiTfayAsGPXPmbNmMrGzdu54LxVedb2SrFoMk5G16kMmInAOe5hkuM+oOwgAiIgAiIgAnkISEDIA8ksMlZAuPfBx7jkgtUkMyruknLKxjmZYvtAD2k1x9ajL3PTyqvzPBspJgIiIAIiIAKnV0ACQp6+YwWEBx59igvOO5tf/vpxPvXx9+VZ28nFunSoG28Px7d8NNlRBERABERABN5cQAJCnp+Qd6IPQp6nIsVEQAREQARE4LQLSEDIk3isgNDX3U5ZZQ3RnEaJ18NrR/nnWfmxYpoO2w/Cgqlgt4PjWGWZkW5yahZ/aSPoKtnYUdwlU49N7PzK5M7trfupnzTTeh0ykkiTMRTK/W5sx4qYwyXNhxSvng46roLfAenX9YtU4+3EHLVkNINqv9NadnrvYJKZJR7sNgX7q1afPF6vuWBVW28fTbU1uF43F4Ohayi2U+uMAH7dQNMMXM5jj1S0HORS4Bkd9rjp2TYWntuAx/Xa+nJZ1ZoDwv6qYx+NRKgNBnHa7aR10A3wnfo0xtdwUloEREAEilBAAkKejfrGAUEjFhvA73ewvd1ObXmYukD+qzHsi0B7DyyaCqUO2NMHmzfBOdXgysD0c0GxwUjnNpLJFGWVFew8lGFmRQ+hpkutW/3h7iN0715PLquQ1OBdV93I4/d+lyXv+hgl+jDecD0xW4IQJZgzNqQ6/kCwdjX7X17H3LkL6VWqrKGZh/s72XD/T6lsXM3qsxfz1N4HWTLnRuI5nT27dvG+C1ZyX/MAs7wqJVqcff0GTTNrOdDWxRWLZrF200u82Jvmihn1bNnfSmtG4bzJVSyd1khLJMviWichfynNMejr72RvVOWWBZNIjozwX//djNfv4przJ+NoDGPrTvL0C/upnBtiuUvl2//ZzB1/tZSf/aKdhw4P8dUPLOTfHjmCF4OLrpnHxVODvNgVZ0FmhGBVmGBtKUdbWnhmS4JlK9LMalyAw6bQM7CHqqrluORVTp6feikmAiLwpywgASHP1h/7FYNu3agHhqKUl5WMaxTCs3tgWSPkNEjEoKEBujrB5waPD3p6Ydo086FBmnh0ELtdQbOHcbtsJEciYHfhDQTIJKIY5m/cLic2bwnJSCcef4l1U0zGo4QrqlFwkIgN47SpuPyVZDMJ0qkkmqrishtkVTt2h4Jh8xAMBoi2P4Gr5hJSqk4yk6GxNMhIMomq2Kwbc0a34fbaSWc0zA9RyOOgYziB3+XE53QwnM4RdNkp8Xmsnw8kMzicTmxaDsN8zmKzUepzoeY0evvj1m/+ZWEvnd0xqstdDMVyBEs9uDNZ4lkFt8dFLp1hRFMssFCJm2xaxRP0WpM+JUaSZFQFh8fJSF+c8toAI9EMB0faWDZpGn63h5Gcjo6NknF2JM3zIyLFREAERKCoBCQg5NmciqKccjXHPKuSYiIgAiIgAiIw4QXMgKBp2ol7n5JOp81Vi2UTAREQAREQAREQgRMCEhDkwyACIiACIiACInCSgASEPD8UPR0drH/o15TMvoAnnngAp8vBxz7/10wpc7yuBnN8gPk9B3u3H2TukpljHmF360HmT57KQFrF6/BYowsSI2kO7NjNtAUNhEtr8jq71hhMDp5cNHK0E39FGU7fyfM4J3MGgwmNxpLXn/8r9SQGo7Tta2HSolkEggGMXBItMYijpPGU53X4YD+Tp1dgsyloiX5rRIPNW3bK/aSACIiACBSXgDlKS0ex2ejv7qG6rvZNL88su2t9K4vXmCPXXr/FAR8bHtnL6qsmAwGrwL98/vMc/p8RX1defjlXXH75uPk2bDjAWWfNYEi3UfmqPlsSEPKk7Grv5NFf/ojS6Wfz3LqnmRkOcsvX/ppS+6tHMRg8cP/vuf/393Lnnd/npW391NU6rKmZX7098MADrF2/gRmrLuOsSSXMbKzGKA2wb+cRGrwR4rZGwmUlHB8lWBL0WR3/XN4Ah3u66WtvZtWKNVaVW7a+hG/yCuaU20/qMLl17SM0lLupnneJVTY10MJPHt7EbR98P4ePHCbtLKWqppyQFscfeN1Kigb0Huqko2uYmStnE/Q40DMxmrc8gb9+IQ2TXx98dPp6e1Eih0lrQXxlFZTX1HGgrQNjYA/R/l4WnnctXv8bJJk820CKiYAIiMCZJqBns+i5HHs2Pslf/9MP+NXdP+fpRx8k1DgPPdnFuQsa6BpwMG3xMiDGl7/894wMJbj+xvdw0Zrl2FxhIlkocZn3GnNgeIDn7t3JBdeb95XRf7c3//wxBoDpi6YzY9EM63sGOY4M5Nj2wgauuPRs/H4/5lrBqqazfu0mzr/wnBOUum7wn7/fxMffd9Zr7iMSEPL8tKWzGhs2bsGja0QzCjOXLSbgdlEdeNUgez3Ltq0vsX3nQd536WJclfMZGhymvuH1iVGjJ2lQ7XMQ18BvB32kC91fSzIS4cj+Qyw5Zzm/+c1vrLO7+tILSKUzlNdN4vGf/5QrP/zRE2c9kNNJJ2LUhsO8JquYqyUOtGHzVeD1mR8MyKSTPPnU01xxxZUkevYTrptujchoe3kjTUtGA8fxTdd0dq7bQ2ONg9KpTdhcPgw1jZ6KYA++0ZONFP/1o19SV1vFmsuuQtdUgh43j6/bwmXLpmKmHZsnnKe2FBMBERCB4hAwVBVDzXH//euIjhzg5j+7ld0tR2hu6aPRM8iqVctRlAD2cKV1webNunVfL1PnvfG/s+Bm35YO5iw3y48+HT6yficxoLqxmupJ1eOGSyazeL0uzDF6r76PSEAYN+WZsUMqpzOcyOV9suZkSNUhV97lpaAIiIAIiECeAoZBZCRBOOTHHCF3pmwSEM6UlhrneeqGQU7Lf4CK+ZF1OWRGoXEyS3EREAERKFoBCQhF27RyYSIgAiIgAiLw1gUkILx1O9kT6Ipk6BjOsKgxgFueQMhnQgREQASKRkACQp5NmcqkONrVghKoY0p5Gc7jKyId278jCQ2+11aWyOXoTiToi7SzuLyEXXEfZ9WWW4XS6TStra2UVk1iMJJi7tTR75tbbDCFza7gL/Gc8uyGjvZTNmm0c8vrN3PA5fERK2+0XtH2Q0N4XXbKfBpV5aNDEM3FjcxXZMffkhnmvNA2G4pdYaCvl4qqaqKdneyLaqyaO4l7Nvfxq4093PWh2dSEpQ/DKRtMCoiACIjABBcw708ulwsJCHk2VDQ+zHM7n+fpnn38zbs+yT89/y3ePfk6/PZB7m5r4/1Lb+PllmeYVKZx+czL2bHnbn7WA9fMPJfth7Zw67I13HMkzscXTiMSiRCNRvn617/Ot793F0/s7cY2GGHu8vms29fHRVVuXu5L4Rnupq+iAdVlp2VfH1eXu1l98RRu/PaLBLDxiRvmsG7vIO+rctCfTmAPhfnFy/00NlZQoWS5/pKpmOMX+nI6d/9uP59+/1zWrd3Nmukhvv7wEI0elWtWhOlylxKqLKeBOKqq4e3eyeD2CF57FP+yyxh66kW0vm4q//LDeH0+svE4P73nHj5+660SEPL8/EgxERABEThTBFRVxW63S0DIt8GimSzb+nqYXVaOpuvEUoM0+d0kcinSip+R9ABNpVNJZjMkcsO4jRwZWxC3zUDTNUodDjpSUWZXzj5xSPNm/OgzOznvrLl0jmRx6BqzJpeQyWhkk2kGYzlyPg8vdsa4ZHKIMp+Tlq4RagJuupI5pnpSBCuq2PjEYUILqphU6mFgKIWv3Eel10HnUIrkSIak3U7QpeB3O/C5oDWq4jMgp+o4vU6SqSwLJoXB0MEw0FNxcjEVtBw2PYOm2cFQSNrTlE2aRnxkkN4RlWkN1ccCQi93fWiWPEHI98Mk5URABETgDBCQJwhnQCNN5FOMpTViaZWqkMtaTVI2ERABERCB4hCQgFAc7ShXIQIiIAIiIAIFFZCAUFBOqUwEREAEREAEikNAAkJxtKNchQiIgAiIgAgUVEACQkE5pTIREAEREAERKA4BCQjF0Y5yFSIgAiIgAiJQUAEJCAXllMpEQAREQAREoDgEJCAURzvKVYiACIiACIhAQQUkIBSUUyoTAREQAREQgeIQkIBQHO0oVyECIiACIiACBRWQgFBQTqlMBERABERABIpDQAJCcbSjXIUIiIAIiIAIFFRAAkJBOaUyERABERABESgOAQkIxdGOchUiIAIiIAIiUFABCQgF5ZTKREAEREAERKA4BCQgFEc7ylWIgAiIgAiIQEEFJCAUlFMqEwEREAEREIHiEJCAUBztKFchAiIgAiIgAgUVkIBQUE6pTAREQAREQASKQ0ACQnG0o1yFCIiACIiACBRUQAJCQTmlMhEQAREQAREoDgEJCMXRjnIVIiACIiACIlBQAQkIBeWUykRABERABESgOAQkIBRHO8pViIAIiIAIiEBBBSQgFJRTKhMBERABERCB4hCQgFAc7ShXIQIiIAIiIAIFFZCAUFBOqUwEREAEREAEikNAAkJxtKNchQiIgAiIgAgUVEACQkE5pTIREAEREAERKA4BCQjF0Y5yFSIgAiIgAiJQUAEJCAXllMpEQAREQAREoDgEJCAURzvKVYiACIiACIhAQQUkIBSUUyoTAREQAREQgeIQkIBQHO0oVyECIiACIiACBRWQgFBQTqlMBERABERABIpDQAJCcbSjXIUIiIAIiIAIFFRAAkJBOaUyERABERABESgOAQkIxdGOchUiIAIiIAIiUFABCQgF5ZTKREAEREAERKA4BCQgFEc7ylWIgAiIgAiIQEEFJCAUlFMqEwEREAEREIHiEJCAUBztKFchAiIgAiIgAgUVkIBQUE6pTAREQAREQASKQ0ACQnG0o1yFCIiACIiACBRUQAJCQTmlMhEQAREQAREoDgEJCMXRjnIVIiACIiACIlBQAQkIBeWUykRABERABESgOAQkIBRHO8pViIAIiIAIiEBBBSQgFJRTKhMBERABERCB4hCQgFAc7ShXIQIiIAIiIAIFFZCAUFBOqUwEREAEREAEikNAAkJxtKNchQiIgAiIgAgUVEACQkE5pTIREAEREAERKA4BCQjF0Y5yFSIgAiIgAiJQUAEJCAXllMpEQAREQAREoDgEJCAURzvKVYiACIiACIhAQQUkIBSUUyoTAREQAREQgeIQkIBQHO0oVyECIiACIiACBRWQgFBQTqlMBERABERABIpD4KSA8PjD9+KvaOK8VcuL4wrlKkRABERABERABMYtcCIgRAb7iKRVAkqahOIHNUNlRTU+r3vclcoOIiACIiACIiACZ7bAiYCweX8Xk32D+BsWoOdSHDl4kCl1VQTKa8/sK5SzFwEREAEREAERGLfAiYCw/uUjNHiGGNJCuG05RoaGmDN9CuGq+nFXKjuIgAiIgAiIgAic2QInAkI2GeX+Fw5w7YVLifZ30NPTxYwFZ+F22s/sK5SzFwEREAEREAERGLfASZ0Ud27fjDtYwazpU8ZdmewgAiIgAiIgAiJQHAIyzLE42lGuQgREQAREQAQKKiABoaCcUpkIiIAIiIAIFIdAXgFB13UymUxxXHGeV2G323G5XHmWlmIiIAIiIAIiUFwCJwWEXC6Hoig4HI6TrlTTDWw2BQyDTDqNodhwu13ohoJiaGiajtNpI5tVsdkdOB12VN1A13Rc0tmxuD45cjUiIAIiIAJFLXAiIKiqSk9PD1u3biUYDLJgwQLKy8ux2WwnAHojdjqQAAAI/UlEQVQiaUqDbshlePyhh0m6Aqw+Zw2ay0Oqu53d2/dy1SXz2N3cydHBDPOn1JB2laAYCounl5LTnbgcSlGDysWJgAiIgAiIQDEIvDLMMZtl7dq1hEIhzLBgfp0zZw7mo/bj23Aii9/rhGyGbS9tonHmTAaiIyiKA5tiZ/tLO7ju+otZv3EzLpefviMtzJk9ixwaU+bOx+P24nVKQCiGD45cgwiIgAiIQHELnAgIHR0deDweKySYTw5mzpxJOBzG5/OdEMioOi67DUPXSIyMECwtJZUYIaUq+Nwu0ukcJSUBOru6qa+rJRmLodhsJJNJgmUVuOwSDor74yRXJwIiIAIiUCwCJwKCYRhs377derWQSCRIpVLU1so0y8XS0HIdIiACIiACIjAegRMBIZ1Os27dOtra2nC73cybN4+FCxe+prNiOhnH7Rl9oqBlEsQ1N36Pg+7OLqqry8mlU9a+g9EYDocHj8uOzW4DQ8XpC2P2b5SHCONpHikrAiIgAiIgAn8cgZNGMRx/1VBRUXHSGbXu20bd1DlWaBg4vIvOlJuZM2fxg/96kBves4odL25g5ZK5dI6kOdSvMD2YxuvzUVFdQsv+bpaevwrXK30e/zhXLEcVAREQAREQAREYU8DsFmB2OchrHoTjtSTjI3h8fmw2O+nEiNUXwRsspa17hKpyH/3dPVRXluL2+ekeSuJXMlYnR38oRGfLEepl+mb5SIqACIiACIjAhBbIZrM4nU6U4eFhY0KfqZycCIiACIiACIjAOy6g8OHHrYDgsCmUh1z8//bOpbeN647iv3nPkBQliqRkSZQl60Upjp0qjqvagbNp4DRNkQJdBOiXKPIt+gEKtNuimwAFirZAkYWLIG6TtC6kOmokW1L0tihRb4kPkfOeYoYypaBBEa+84V3O3Ln3zsGA5885c8/ZO7XQFZFUXOaw6uC44elwq6P3nReXBMqEWoLfvEZFwOb/1yIDHQqlus+p1Zirv1Nj+Zd3KO9vILVlEXyPWDwc/aIFroUga80DkZlT4CFIF0ZPnm0iyCo+QnSf5dIpyfYO6qaNpCiR7GGaNQJBwdAb7omu5+FYJlIAcjyOc1bFkxRi+sVc3xmQVscWAi0EWgi0EHgpCNi1Gur5bjzXthBlpenvEzoEB7ZDXdZJKAJ1yyIZf75zL8A261TOHNrbE5RrJpoYEE8kovsIPJuTUg1V1UkkdM5Kh8TbL6R5s3yGnjSoVirUbI9kWxu6qjT55zkYZqmKaKiEGwXCb/jOB4fAB1H5VsyCACwvQD/3FfLsOr4gU61W8QQV0bcRJJGEoSFLIoKkEjki18+ZWTIwLnFZPcRIlSgWD8j155pzNguEpCHzzkSGh/O7JGIa90YSfLpYIpsxKFTjfH8ICjtl+roMznyR45LDs0OT0aRMIBvMbB6R71YY79YwNus8jbUjZSTaayYx12WjILCWDOhOynR1aug7p8yXPMZSBgUrYDQe8M6wxpeHIqdxhc9mD8jE5ahAqJ5uUzisYdfOGBsZZWdjnUCM42CSFo44cAfpH+jCKW0jZ/uR7SqilowKnRCU9fkZ2roHOPYSjGVdFuZXeeXmdbbW1/FlnVxvD/MzfyfVc42BayMROOXSCYuz02hqjPzUXeb+9gl6R44bkxMv5SFvTdpCoIVAC4EWAi+OwP7iDOnRSUrlClpgISQ6iKkNIl5aXMDcLDKXvs79YY251XV++MbkOUn77BeWebpyxNX+NLt1CXu/SH7salQsDPeleTT9JW3ZUcbzV9h49Efy937eXODTv3zBxHuvs7SwxKfzz3jr5jD9g3k+e/Ax773/frPfV394SPLWYBRnkM/nG8ftMm51j4KbpVetU3dlHCMVcWLYTDdg5cil3wjY2y3gH53Qe32Ux9OPsI0e2sQagm7Qn1bIxFWq+lVigs3Cvz+mp6ODXXWMybGB5hpmHz/mxo0hfvWb3/LhLz783wLhjcEEuwcWNdshUBSudepcTSqsVmwmcp1kUgJJz+HNySx//tchpiuzulPi7dF2/nMoM724RV9vjB+NGlRLAg9WbW7fzjCkQP3ZIX+ardA1kaQtqTOSUUifWfx6+oi3Xs1g+iLX6hVmtk44Vtq4/4Mufvdgk4QmRQXCzvYaXxXq3H1tHNGqsDQ/hy/EWVzd5P6tLCvFDOM3+5H8Ewr7J8RTV+i9kkaTxagqW1leYWdnh77hVxju0ZmdKzLYm2R/ex3L8Rm5NcXB5hqJ9hTpTPa8gHMobK7xrHjMnTtTbK0tIeld5HLpF39CW1e0EGgh0EKghcBLQcAzT6n5Gv+cXeD+3ddxgSfzq7z26jCLG0UMz+bzUoyfTiQoHh0xmmv8g3Ydm4PCCqlUkqrpkO4eZHfvGDmwqJoWXvWAgaFB9k/KxNuzxMwiana8eY+l7T3mN4pMvfk9nmzt0635JDoyPPzkr/zk3Xeb/ZY//wLnSo5cVyoyKAzbaanE2tIsrtFHQgywypu05+8x1NkobCo1k4ePl5m6nqdW2ufrf+xz+8d5dou7jAzn2F59wlHQwUjaRlcU6rEB2mSf9a9n8bwAuSvPcHdHcw3F7QIfffR7fvbBBwxe/ZY3CIYqYrsBz/MWFEmIjI2qpkdca2QqhDbJmiJRqblRJoPvB2iKSN0NCDwfXxDQZJAFkYrlYagSkiTgOR6246OqIgFCtNUxvL5qeVF2gyQI4Po4vo8XhHOIWI5HX6ohMYT5EG4gRuOFhO95DQnCslwMXcL3RCRZRBCFKCNClMMciEsSg+dj21b0+ia0jq7XLVRFxvXcKHdCUVUC32+sLdyLed78IMCxnShvIvwg00f8xvmX8rS3Jm0h0EKghUALgRdCIPwtNy27KRGbpo2uq7iejygIEYfFFIGwn3QeLxBxjWtHH9oLggQhT11qtllD1Qxcz0GUFMRIErhwHg67np2ZxOM6XhAgIkRDhB5DhmE0RwplD1+UUC9zlh9ylo0syZE0LvihHK43+Sfk3lAOMXQ9sg8wz2wUXcbzw9wjGduq4wUSeuhcLAgIYoMPPdeN5PNQWpcvxSiEb9qPj47pTHd+I17hv/V59ZcYBHh/AAAAAElFTkSuQmCC;strokeWidth=5;" vertex="1" parent="1">
                    <mxGeometry x="490" y="84" width="324.5" height="166" as="geometry"/>
                </mxCell>
                <mxCell id="3" value="&lt;b&gt;&lt;font style=&quot;font-size: 22px;&quot;&gt;GitHub Codespaces&lt;/font&gt;&lt;/b&gt;" style="text;strokeColor=none;align=center;fillColor=none;html=1;verticalAlign=middle;whiteSpace=wrap;rounded=0;strokeWidth=5;" vertex="1" parent="1">
                    <mxGeometry x="528.38" y="280" width="247.75" height="30" as="geometry"/>
                </mxCell>
            </root>
        </mxGraphModel>
    </diagram>
</mxfile>